<svg width="16" height="18" viewBox="0 0 16 18" fill="none" xmlns="http://www.w3.org/2000/svg">
<path d="M4.75 2.75H3.95C2.8299 2.75 2.26984 2.75 1.84202 2.96799C1.46569 3.15973 1.15973 3.46569 0.967987 3.84202C0.75 4.26984 0.75 4.82989 0.75 5.95V14.05C0.75 15.1701 0.75 15.7302 0.967987 16.158C1.15973 16.5343 1.46569 16.8403 1.84202 17.032C2.26984 17.25 2.8299 17.25 3.95 17.25H12.05C13.1701 17.25 13.7302 17.25 14.158 17.032C14.5343 16.8403 14.8403 16.5343 15.032 16.158C15.25 15.7302 15.25 15.1701 15.25 14.05V5.95C15.25 4.82989 15.25 4.26984 15.032 3.84202C14.8403 3.46569 14.5343 3.15973 14.158 2.96799C13.7302 2.75 13.1701 2.75 12.05 2.75H11.25M6.35 4.75H9.65C10.2101 4.75 10.4901 4.75 10.704 4.64101C10.8922 4.54513 11.0451 4.39215 11.141 4.20399C11.25 3.99008 11.25 3.71005 11.25 3.15V2.35C11.25 1.78995 11.25 1.50992 11.141 1.29601C11.0451 1.10785 10.8922 0.954867 10.704 0.858993C10.4901 0.75 10.2101 0.75 9.65 0.75H6.35C5.78995 0.75 5.50992 0.75 5.29601 0.858993C5.10785 0.954867 4.95487 1.10785 4.85899 1.29601C4.75 1.50992 4.75 1.78995 4.75 2.35V3.15C4.75 3.71005 4.75 3.99008 4.85899 4.20399C4.95487 4.39215 5.10785 4.54513 5.29601 4.64101C5.50992 4.75 5.78995 4.75 6.35 4.75Z" stroke="white" stroke-width="1.5" stroke-linejoin="round"/>
</svg>
