<?xml version="1.0" standalone="no"?>
<!DOCTYPE svg PUBLIC "-//W3C//DTD SVG 1.1//EN" "http://www.w3.org/Graphics/SVG/1.1/DTD/svg11.dtd" >
<svg xmlns="http://www.w3.org/2000/svg" xmlns:xlink="http://www.w3.org/1999/xlink" version="1.1">
<metadata>
Created by FontForge 20201107 at Sat Jun  5 18:31:52 2021
 By Unknown
\(c\) TipoType 2021, all rights reserved.
</metadata>
<defs>
<font id="Rustica-Regular" horiz-adv-x="650" >
  <font-face 
    font-family="Rustica"
    font-weight="400"
    font-stretch="normal"
    units-per-em="1000"
    panose-1="0 0 0 0 0 0 0 0 0 0"
    ascent="800"
    descent="-200"
    x-height="506"
    cap-height="706"
    bbox="-215 -290 1234 1220"
    underline-thickness="50"
    underline-position="-100"
    unicode-range="U+000D-1F441"
  />
<missing-glyph horiz-adv-x="716" 
d="M90 0v706h536v-706h-536zM358 418l134 209h-268zM408 353l139 -218v436zM169 135l139 218l-139 218v-436zM224 79h268l-134 209z" />
    <glyph glyph-name="f_f" unicode="ff" 
d="M208 549v-43h206v46c0 102 72 166 173 166c26 0 50 -3 70 -14v-84c-17 8 -36 12 -55 12c-47 0 -91 -22 -91 -83v-43h121v-81h-121v-425h-97v425h-206v-425h-97v425h-70v81h70v46c0 102 72 166 173 166c26 0 50 -3 70 -14v-84c-17 8 -36 12 -55 12c-47 0 -91 -22 -91 -83z
" />
    <glyph glyph-name="f_f_t" unicode="fft" horiz-adv-x="976" 
d="M208 549v-43h206v46c0 102 72 166 173 166c26 0 50 -3 70 -14v-84c-17 8 -36 12 -55 12c-47 0 -91 -22 -91 -83v-43h199v139h94v-139h130v-81h-130v-264c0 -57 26 -83 82 -83c11 0 36 2 60 16v-89c-19 -11 -46 -17 -81 -17c-99 0 -158 59 -158 161v276h-196v-425h-97v425
h-206v-425h-97v425h-70v81h70v46c0 102 72 166 173 166c26 0 50 -3 70 -14v-84c-17 8 -36 12 -55 12c-47 0 -91 -22 -91 -83z" />
    <glyph glyph-name="ft" unicode="ft" horiz-adv-x="673" 
d="M643 94v-89c-19 -11 -46 -17 -81 -17c-99 0 -158 59 -158 161v276h-196v-425h-97v425h-70v81h70v46c0 102 72 166 173 166c26 0 50 -3 70 -14v-84c-17 8 -36 12 -55 12c-47 0 -91 -22 -91 -83v-43h199v139h94v-139h130v-81h-130v-264c0 -57 26 -83 82 -83
c11 0 36 2 60 16z" />
    <glyph glyph-name=".notdef" horiz-adv-x="716" 
d="M90 0v706h536v-706h-536zM358 418l134 209h-268zM408 353l139 -218v436zM169 135l139 218l-139 218v-436zM224 79h268l-134 209z" />
    <glyph glyph-name="NULL" horiz-adv-x="0" 
 />
    <glyph glyph-name="uni000D" unicode="&#xd;" horiz-adv-x="250" 
 />
    <glyph glyph-name="space" unicode=" " horiz-adv-x="246" 
 />
    <glyph glyph-name="uni0000" horiz-adv-x="267" 
 />
    <glyph glyph-name="exclam" unicode="!" horiz-adv-x="277" 
d="M95 194l-10 512h107l-10 -512h-87zM139 111c33 0 61 -27 61 -61s-28 -62 -61 -62s-61 28 -61 62s28 61 61 61z" />
    <glyph glyph-name="quotedbl" unicode="&#x22;" horiz-adv-x="361" 
d="M137 456h-63l-12 250h87zM287 456h-63l-12 250h87z" />
    <glyph glyph-name="numbersign" unicode="#" horiz-adv-x="702" 
d="M47 303h147l17 101h-147l13 77h148l35 202h86l-35 -202h123l35 202h86l-35 -202h147l-13 -77h-148l-17 -101h147l-13 -77h-148l-35 -203h-86l35 203h-123l-35 -203h-86l35 203h-146zM280 303h123l17 101h-123z" />
    <glyph glyph-name="dollar" unicode="$" horiz-adv-x="530" 
d="M225 832h93v-116c54 -5 103 -22 139 -43v-103c-49 34 -114 55 -171 55c-72 0 -131 -33 -131 -96c0 -57 47 -85 140 -124c105 -45 200 -88 200 -209c0 -107 -74 -181 -183 -201v-127h-93v122c-69 6 -131 29 -172 58v112c51 -44 126 -78 198 -78c78 0 143 41 143 110
c0 62 -54 89 -155 133c-92 39 -183 83 -183 198c0 102 71 171 175 190v119z" />
    <glyph glyph-name="percent" unicode="%" horiz-adv-x="793" 
d="M367 552c0 -94 -74 -164 -166 -164s-167 70 -167 164c0 93 75 165 167 165s166 -72 166 -165zM95 0l516 706h88l-516 -706h-88zM286 552c0 49 -38 87 -85 87c-48 0 -86 -38 -86 -87s38 -86 86 -86c47 0 85 37 85 86zM758 152c0 -94 -74 -164 -166 -164s-167 70 -167 164
c0 93 75 165 167 165s166 -72 166 -165zM677 152c0 49 -38 87 -85 87c-48 0 -86 -38 -86 -87s38 -86 86 -86c47 0 85 37 85 86z" />
    <glyph glyph-name="ampersand" unicode="&#x26;" horiz-adv-x="688" 
d="M625 381c10 -96 -14 -185 -62 -255l118 -126h-125l-55 59c-56 -44 -126 -71 -206 -71c-132 0 -251 74 -251 195c0 84 58 142 154 199c-52 57 -83 102 -83 165c0 86 73 171 188 171c114 0 187 -83 187 -168c0 -73 -47 -120 -152 -184l156 -167c29 53 42 117 35 182h96z
M277 431c79 46 119 75 119 118c0 42 -38 81 -93 81c-56 0 -94 -37 -94 -82c0 -46 26 -74 68 -117zM435 129l-176 187c-67 -39 -112 -75 -113 -129c-1 -71 80 -105 151 -105c55 0 101 18 138 47z" />
    <glyph glyph-name="quotesingle" unicode="'" horiz-adv-x="211" 
d="M137 456h-63l-12 250h87z" />
    <glyph glyph-name="parenleft" unicode="(" horiz-adv-x="297" 
d="M264 776c-77 -149 -114 -312 -114 -453s37 -304 114 -453h-93c-73 131 -120 292 -120 453s47 322 120 453h93z" />
    <glyph glyph-name="parenright" unicode=")" horiz-adv-x="297" 
d="M33 -130c77 149 114 312 114 453s-37 304 -114 453h93c73 -131 120 -292 120 -453s-47 -322 -120 -453h-93z" />
    <glyph glyph-name="asterisk" unicode="*" horiz-adv-x="380" 
d="M50 548v66l111 -17l-71 88l58 34l42 -105l42 105l58 -34l-71 -88l111 17v-66l-112 16l72 -87l-57 -34l-43 105l-43 -105l-57 34l72 87z" />
    <glyph glyph-name="plus" unicode="+" horiz-adv-x="556" 
d="M322 396h201v-85h-201v-201h-88v201h-201v85h201v200h88v-200z" />
    <glyph glyph-name="comma" unicode="," horiz-adv-x="238" 
d="M61 -121l41 112c-22 8 -44 31 -44 59c0 35 26 61 61 61s61 -26 61 -61c0 -10 -3 -20 -8 -31l-62 -140h-49z" />
    <glyph glyph-name="hyphen" unicode="-" horiz-adv-x="468" 
d="M399 229h-330v84h330v-84z" />
    <glyph glyph-name="period" unicode="." horiz-adv-x="232" 
d="M55 50c0 34 28 61 61 61s61 -27 61 -61s-28 -62 -61 -62s-61 28 -61 62z" />
    <glyph glyph-name="slash" unicode="/" horiz-adv-x="521" 
d="M405 786h94l-382 -926h-94z" />
    <glyph glyph-name="zero" unicode="0" horiz-adv-x="630" 
d="M315 -12c-187 0 -257 181 -257 365s70 365 257 365s257 -181 257 -365s-70 -365 -257 -365zM160 353c0 -174 56 -271 155 -271s155 97 155 271s-56 271 -155 271s-155 -97 -155 -271z" />
    <glyph glyph-name="one" unicode="1" horiz-adv-x="395" 
d="M196 592l-167 -92v101l180 105h86v-706h-99v592z" />
    <glyph glyph-name="two" unicode="2" horiz-adv-x="541" 
d="M329 392c36 42 50 82 50 117c0 69 -60 115 -133 115c-55 0 -132 -25 -185 -86v116c40 37 111 64 186 64c132 0 234 -84 234 -208c0 -71 -33 -126 -85 -185l-210 -239h299v-86h-436v63z" />
    <glyph glyph-name="three" unicode="3" horiz-adv-x="559" 
d="M75 541v114c42 38 108 63 182 63c138 0 225 -89 225 -190c0 -71 -32 -130 -98 -161c64 -21 116 -84 116 -178c0 -107 -84 -201 -242 -201c-83 0 -149 23 -202 68v121c44 -55 116 -96 194 -96c97 0 152 49 152 118c0 70 -55 117 -159 117h-81v87h60c109 0 159 47 159 114
c0 59 -46 108 -134 108c-69 0 -127 -30 -172 -84z" />
    <glyph glyph-name="four" unicode="4" horiz-adv-x="599" 
d="M554 267v-89h-98v-177h-100v177h-333v64l339 464h93v-439h99zM144 266h212v295z" />
    <glyph glyph-name="five" unicode="5" horiz-adv-x="553" 
d="M466 706v-85h-272l-19 -182c27 9 56 14 84 14c126 0 248 -84 248 -228c0 -116 -81 -238 -258 -238c-81 0 -147 26 -199 69v115c52 -59 125 -90 196 -90c98 0 160 59 160 142s-63 145 -172 145c-56 0 -97 -16 -134 -34l-14 12l30 360h350z" />
    <glyph glyph-name="six" unicode="6" horiz-adv-x="573" 
d="M291 -12c-134 0 -239 92 -239 236c0 91 40 162 88 234l168 248h118l-201 -287c26 18 60 25 93 25c122 0 218 -96 218 -223c0 -143 -113 -233 -245 -233zM294 81c78 0 143 54 143 137c0 82 -64 137 -142 137c-76 0 -142 -52 -142 -136c0 -79 62 -138 141 -138z" />
    <glyph glyph-name="seven" unicode="7" horiz-adv-x="508" 
d="M66 0l307 619h-342v87h457v-68l-313 -638h-109z" />
    <glyph glyph-name="eight" unicode="8" horiz-adv-x="596" 
d="M298 718c116 0 220 -77 220 -194c0 -76 -52 -138 -102 -159c57 -20 124 -80 124 -173c0 -116 -108 -204 -242 -204s-242 88 -242 204c0 93 67 153 124 173c-50 21 -102 83 -102 159c0 117 104 194 220 194zM298 628c-63 0 -120 -41 -120 -106c0 -69 56 -112 120 -112
s120 43 120 112c0 65 -57 106 -120 106zM298 320c-79 0 -138 -51 -138 -122c0 -68 59 -120 138 -120s138 52 138 120c0 71 -60 122 -138 122z" />
    <glyph glyph-name="nine" unicode="9" horiz-adv-x="571" 
d="M281 718c134 0 239 -92 239 -236c0 -91 -40 -162 -88 -234l-169 -248h-117l201 287c-26 -18 -60 -25 -93 -25c-122 0 -218 96 -218 223c0 143 113 233 245 233zM278 625c-78 0 -143 -54 -143 -137c0 -82 64 -137 142 -137c76 0 142 52 142 136c0 79 -62 138 -141 138z
" />
    <glyph glyph-name="colon" unicode=":" horiz-adv-x="260" 
d="M69 457c0 34 28 61 61 61s61 -27 61 -61s-28 -62 -61 -62s-61 28 -61 62zM69 50c0 34 28 61 61 61s61 -27 61 -61s-28 -62 -61 -62s-61 28 -61 62z" />
    <glyph glyph-name="semicolon" unicode=";" horiz-adv-x="260" 
d="M69 457c0 34 28 61 61 61s61 -27 61 -61s-28 -62 -61 -62s-61 28 -61 62zM72 -121l41 112c-22 8 -44 31 -44 59c0 35 26 61 61 61s61 -26 61 -61c0 -10 -3 -20 -8 -31l-62 -140h-49z" />
    <glyph glyph-name="less" unicode="&#x3c;" horiz-adv-x="579" 
d="M54 399l440 195v-93l-339 -148l339 -148v-93l-440 195v92z" />
    <glyph glyph-name="equal" unicode="=" horiz-adv-x="554" 
d="M72 489h410v-85h-410v85zM72 301h410v-85h-410v85z" />
    <glyph glyph-name="greater" unicode="&#x3e;" horiz-adv-x="579" 
d="M525 307l-440 -195v93l339 148l-339 148v93l440 -195v-92z" />
    <glyph glyph-name="question" unicode="?" horiz-adv-x="442" 
d="M42 671c39 31 101 47 151 47c127 0 215 -77 215 -190c0 -90 -52 -133 -101 -173c-43 -35 -83 -67 -83 -128v-44h-98v48c0 97 54 142 104 181c41 32 78 61 78 115c0 68 -53 99 -114 99c-56 0 -119 -26 -152 -73v118zM175 111c33 0 61 -27 61 -61s-28 -62 -61 -62
s-61 28 -61 62s28 61 61 61z" />
    <glyph glyph-name="at" unicode="@" horiz-adv-x="950" 
d="M740 152c43 0 75 54 75 158c0 183 -144 340 -340 340c-194 0 -345 -157 -345 -350c0 -192 145 -350 344 -350c88 0 166 33 196 56v-89c-41 -23 -106 -49 -196 -49c-239 0 -430 197 -430 432c0 236 191 432 431 432c242 0 426 -196 426 -422c0 -135 -69 -233 -161 -233
c-63 0 -104 40 -121 84c-28 -49 -91 -89 -152 -89c-122 0 -215 93 -215 223s93 223 205 223c58 0 115 -29 138 -64v52h83v-279c0 -37 22 -75 62 -75zM464 149c72 0 134 59 134 146c0 88 -62 146 -134 146c-67 0 -128 -59 -128 -146s61 -146 128 -146z" />
    <glyph glyph-name="A" unicode="A" horiz-adv-x="666" 
d="M7 0l274 706h104l274 -706h-102l-74 192h-300l-74 -192h-102zM215 285h236l-118 313z" />
    <glyph glyph-name="B" unicode="B" horiz-adv-x="645" 
d="M98 0v706h237c132 0 221 -72 221 -187c0 -80 -43 -134 -87 -157c54 -16 123 -75 123 -167c0 -119 -93 -195 -231 -195h-263zM197 397h139c78 0 116 52 116 114c0 57 -43 105 -119 105h-136v-219zM197 91h166c74 0 125 50 125 113c0 62 -58 110 -137 110h-154v-223z" />
    <glyph glyph-name="C" unicode="C" horiz-adv-x="653" 
d="M610 151v-105c-42 -35 -120 -58 -198 -58c-203 0 -362 157 -362 365c0 212 159 365 354 365c72 0 136 -16 193 -48v-105c-57 36 -121 56 -183 56c-150 0 -262 -116 -262 -268c0 -171 128 -268 272 -268c64 0 130 23 186 66z" />
    <glyph glyph-name="D" unicode="D" horiz-adv-x="750" 
d="M98 0v706h246c206 0 356 -156 356 -352c0 -200 -150 -354 -356 -354h-246zM197 90h138c144 0 262 110 262 264c0 151 -117 262 -261 262h-139v-526z" />
    <glyph glyph-name="E" unicode="E" horiz-adv-x="594" 
d="M98 0v706h438v-90h-339v-215h281v-90h-281v-221h349v-90h-448z" />
    <glyph glyph-name="F" unicode="F" horiz-adv-x="540" 
d="M98 0v706h409v-90h-310v-226h267v-88h-267v-302h-99z" />
    <glyph glyph-name="G" unicode="G" horiz-adv-x="739" 
d="M675 376v-320c-75 -45 -168 -68 -266 -68c-209 0 -358 159 -358 367c0 215 172 363 375 363c85 0 157 -18 226 -56v-107c-72 45 -146 66 -228 66c-146 0 -273 -111 -273 -275c0 -153 102 -260 267 -260c43 0 103 8 159 27v176h-188v87h286z" />
    <glyph glyph-name="H" unicode="H" horiz-adv-x="768" 
d="M98 0v706h99v-310h374v310h99v-706h-99v310h-374v-310h-99z" />
    <glyph glyph-name="I" unicode="I" horiz-adv-x="295" 
d="M98 0v706h99v-706h-99z" />
    <glyph glyph-name="J" unicode="J" horiz-adv-x="466" 
d="M22 131c37 -32 83 -50 129 -50c81 0 126 51 126 144v481h98v-498c0 -134 -84 -220 -216 -220c-52 0 -101 14 -137 39v104z" />
    <glyph glyph-name="K" unicode="K" horiz-adv-x="652" 
d="M197 386l299 320h125l-284 -302l322 -404h-125l-264 337l-73 -86v-251h-99v706h99v-320z" />
    <glyph glyph-name="L" unicode="L" horiz-adv-x="524" 
d="M98 0v706h99v-616h311v-90h-410z" />
    <glyph glyph-name="M" unicode="M" horiz-adv-x="902" 
d="M482 171h-62l-223 347v-518h-99v706h91l262 -419l262 419h91v-706h-99v518z" />
    <glyph glyph-name="N" unicode="N" horiz-adv-x="774" 
d="M577 706h99v-706h-87l-391 530v-530h-100v706h88l391 -529v529z" />
    <glyph glyph-name="O" unicode="O" horiz-adv-x="828" 
d="M414 718c204 0 364 -157 364 -365s-160 -365 -364 -365s-364 157 -364 365s160 365 364 365zM414 621c-144 0 -262 -114 -262 -268s118 -268 262 -268s262 114 262 268s-118 268 -262 268z" />
    <glyph glyph-name="P" unicode="P" horiz-adv-x="601" 
d="M197 262v-262h-99v706h249c123 0 224 -99 224 -220c0 -124 -101 -224 -223 -224h-151zM197 348h135c74 0 137 60 137 138c0 74 -63 130 -137 130h-135v-268z" />
    <glyph glyph-name="Q" unicode="Q" horiz-adv-x="828" 
d="M414 718c204 0 364 -157 364 -365c0 -154 -88 -280 -214 -335c72 -59 165 -88 258 -88c28 0 63 2 90 8v-91c-32 -6 -71 -10 -104 -10c-127 0 -262 56 -346 154c-16 -2 -32 -3 -48 -3c-204 0 -364 157 -364 365s160 365 364 365zM414 621c-144 0 -262 -114 -262 -268
s118 -268 262 -268s262 114 262 268s-118 268 -262 268z" />
    <glyph glyph-name="R" unicode="R" horiz-adv-x="655" 
d="M98 0v706h248c145 0 239 -86 239 -212c0 -93 -63 -176 -162 -200l202 -294h-117l-192 279h-119v-279h-99zM197 367h149c87 0 135 51 135 126c0 73 -48 123 -135 123h-149v-249z" />
    <glyph glyph-name="S" unicode="S" horiz-adv-x="554" 
d="M296 718c68 0 130 -19 174 -45v-103c-49 34 -114 55 -171 55c-72 0 -131 -33 -131 -96c0 -57 47 -85 140 -124c105 -45 200 -88 200 -209c0 -127 -103 -207 -246 -207c-81 0 -155 26 -202 59v112c51 -44 126 -78 198 -78c78 0 143 41 143 110c0 62 -54 89 -155 133
c-92 39 -183 83 -183 198c0 120 98 195 233 195z" />
    <glyph glyph-name="T" unicode="T" horiz-adv-x="557" 
d="M229 0v616h-212v90h523v-90h-212v-616h-99z" />
    <glyph glyph-name="U" unicode="U" horiz-adv-x="726" 
d="M636 706v-451c0 -148 -116 -267 -273 -267c-158 0 -273 119 -273 267v451h99v-445c0 -96 71 -178 174 -178c102 0 174 82 174 178v445h99z" />
    <glyph glyph-name="V" unicode="V" horiz-adv-x="648" 
d="M273 0l-265 706h104l212 -567l212 567h104l-265 -706h-102z" />
    <glyph glyph-name="W" unicode="W" horiz-adv-x="1016" 
d="M508 558l-178 -558h-102l-213 706h103l163 -563l175 563h104l175 -563l163 563h103l-213 -706h-102z" />
    <glyph glyph-name="X" unicode="X" horiz-adv-x="616" 
d="M14 0l230 364l-216 342h114l166 -263l166 263h114l-216 -342l230 -364h-112l-182 286l-182 -286h-112z" />
    <glyph glyph-name="Y" unicode="Y" horiz-adv-x="611" 
d="M256 0v320l-251 386h115l185 -294l186 294h115l-251 -386v-320h-99z" />
    <glyph glyph-name="Z" unicode="Z" horiz-adv-x="564" 
d="M39 0v66l351 550h-339v90h469v-65l-351 -550h348v-91h-478z" />
    <glyph glyph-name="bracketleft" unicode="[" horiz-adv-x="339" 
d="M308 776v-86h-124v-734h124v-86h-218v906h218z" />
    <glyph glyph-name="backslash" unicode="\" horiz-adv-x="521" 
d="M498 -140h-94l-382 926h94z" />
    <glyph glyph-name="bracketright" unicode="]" horiz-adv-x="339" 
d="M31 -130v86h124v734h-124v86h218v-906h-218z" />
    <glyph glyph-name="asciicircum" unicode="^" horiz-adv-x="524" 
d="M223 706h78l181 -310h-98l-122 214l-122 -214h-98z" />
    <glyph glyph-name="underscore" unicode="_" horiz-adv-x="539" 
d="M497 -148h-455v74h455v-74z" />
    <glyph glyph-name="grave" unicode="`" horiz-adv-x="321" 
d="M171 735l95 -167h-82l-129 167h116z" />
    <glyph glyph-name="a" unicode="a" horiz-adv-x="542" 
d="M83 468c41 28 104 50 172 50c129 0 209 -75 209 -191v-327h-90v78c-36 -60 -95 -90 -165 -90c-94 0 -164 62 -164 146c0 90 67 140 189 157l133 19v19c0 63 -44 101 -118 101c-67 0 -128 -31 -166 -59v97zM225 70c82 0 144 68 144 139v26l-120 -15
c-70 -9 -109 -36 -109 -80c0 -43 35 -70 85 -70z" />
    <glyph glyph-name="b" unicode="b" horiz-adv-x="635" 
d="M179 75v-75h-93v706h97v-270c29 45 97 82 167 82c135 0 240 -111 240 -265s-105 -265 -240 -265c-70 0 -143 38 -171 87zM334 77c84 0 158 71 158 176s-74 176 -158 176s-157 -70 -157 -176c0 -105 73 -176 157 -176z" />
    <glyph glyph-name="c" unicode="c" horiz-adv-x="499" 
d="M449 484v-97c-37 26 -91 39 -132 39c-105 0 -174 -74 -174 -174c0 -92 63 -172 174 -172c46 0 98 12 134 40v-98c-39 -25 -95 -34 -142 -34c-153 0 -265 114 -265 264c0 151 110 266 266 266c48 0 100 -11 139 -34z" />
    <glyph glyph-name="d" unicode="d" horiz-adv-x="635" 
d="M456 75c-28 -49 -101 -87 -171 -87c-135 0 -240 111 -240 265s105 265 240 265c70 0 138 -37 167 -82v270h97v-706h-93v75zM301 77c84 0 157 71 157 176c0 106 -73 176 -157 176s-158 -71 -158 -176s74 -176 158 -176z" />
    <glyph glyph-name="e" unicode="e" horiz-adv-x="568" 
d="M295 518c145 0 229 -105 229 -235c0 -19 -2 -39 -5 -55h-373c11 -107 88 -150 175 -150c64 0 127 23 170 61v-101c-65 -44 -124 -50 -184 -50c-160 0 -263 115 -263 264s99 266 251 266zM293 431c-75 0 -129 -47 -144 -124h279c-7 75 -59 124 -135 124z" />
    <glyph glyph-name="f" unicode="f" horiz-adv-x="347" 
d="M208 549v-43h121v-81h-121v-425h-97v425h-70v81h70v46c0 102 72 166 173 166c26 0 50 -3 70 -14v-84c-17 8 -36 12 -55 12c-47 0 -91 -22 -91 -83z" />
    <glyph glyph-name="g" unicode="g" horiz-adv-x="541" 
d="M247 518c26 0 50 -4 73 -12h186v-81h-83c17 -27 26 -58 26 -92c0 -103 -89 -185 -202 -185c-18 0 -35 2 -52 6c-11 -8 -20 -19 -20 -34c0 -23 20 -36 40 -36h128c102 0 168 -60 168 -141c0 -87 -99 -155 -252 -155c-140 0 -228 52 -228 141c0 49 38 87 85 110
c-23 17 -33 41 -33 68c0 30 18 56 45 76c-50 33 -83 88 -83 150c0 103 89 185 202 185zM247 433c-60 0 -108 -45 -108 -100s48 -100 108 -100s108 45 108 100s-48 100 -108 100zM187 -2c-22 -6 -59 -24 -59 -60c0 -40 57 -63 133 -63c100 0 155 27 155 66
c0 38 -37 57 -81 57h-148z" />
    <glyph glyph-name="h" unicode="h" horiz-adv-x="618" 
d="M86 706h97v-270c29 45 80 82 162 82c112 0 196 -78 196 -212v-306h-97v302c0 84 -55 127 -119 127c-105 0 -142 -87 -142 -162v-267h-97v706z" />
    <glyph glyph-name="i" unicode="i" horiz-adv-x="269" 
d="M135 718c33 0 61 -27 61 -61s-28 -62 -61 -62s-61 28 -61 62s28 61 61 61zM86 0v506h97v-506h-97z" />
    <glyph glyph-name="j" unicode="j" horiz-adv-x="269" 
d="M135 718c33 0 61 -27 61 -61s-28 -62 -61 -62s-61 28 -61 62s28 61 61 61zM183 506v-537c0 -123 -61 -181 -157 -181c-30 0 -46 5 -62 13v86c19 -10 38 -12 54 -12c42 0 68 31 68 92v539h97z" />
    <glyph glyph-name="k" unicode="k" horiz-adv-x="537" 
d="M183 0h-97v706h97v-443l212 243h116l-179 -212l197 -294h-112l-150 233l-84 -98v-135z" />
    <glyph glyph-name="l" unicode="l" horiz-adv-x="290" 
d="M80 126v580h97v-563c0 -38 9 -66 47 -66c9 0 20 1 33 6v-87c-15 -6 -30 -8 -45 -8c-67 0 -132 31 -132 138z" />
    <glyph glyph-name="m" unicode="m" horiz-adv-x="976" 
d="M86 506h95v-76c29 53 80 88 164 88c80 0 143 -38 175 -105c47 72 99 105 183 105c115 0 196 -78 196 -212v-306h-97v302c0 84 -54 127 -119 127c-105 0 -142 -97 -142 -172v-257h-97v302c0 84 -54 127 -119 127c-105 0 -142 -97 -142 -172v-257h-97v506z" />
    <glyph glyph-name="n" unicode="n" horiz-adv-x="618" 
d="M181 430c29 53 80 88 164 88c115 0 196 -78 196 -212v-306h-97v302c0 84 -54 127 -119 127c-105 0 -142 -97 -142 -172v-257h-97v506h95v-76z" />
    <glyph glyph-name="o" unicode="o" horiz-adv-x="612" 
d="M306 518c150 0 262 -116 262 -265s-112 -265 -262 -265s-262 116 -262 265s112 265 262 265zM306 426c-96 0 -163 -79 -163 -173s67 -173 163 -173s163 79 163 173s-67 173 -163 173z" />
    <glyph glyph-name="p" unicode="p" horiz-adv-x="635" 
d="M86 -200v706h93v-74c32 49 101 86 171 86c135 0 240 -111 240 -265c0 -153 -104 -265 -245 -265c-64 0 -130 32 -162 77v-265h-97zM177 253c0 -105 73 -176 157 -176s158 71 158 176s-74 176 -158 176s-157 -70 -157 -176z" />
    <glyph glyph-name="q" unicode="q" horiz-adv-x="633" 
d="M549 506v-706h-97v269c-30 -46 -100 -81 -167 -81c-135 0 -240 111 -240 265s105 265 240 265c70 0 139 -37 171 -86v74h93zM458 253c0 106 -73 176 -157 176s-158 -71 -158 -176s74 -176 158 -176s157 71 157 176z" />
    <glyph glyph-name="r" unicode="r" horiz-adv-x="379" 
d="M181 506v-89c25 62 77 101 145 101c12 0 25 -2 31 -4v-95c-4 1 -14 2 -20 2c-93 0 -154 -67 -154 -170v-251h-97v506h95z" />
    <glyph glyph-name="s" unicode="s" horiz-adv-x="461" 
d="M238 518c58 0 119 -18 155 -47v-100c-45 38 -94 60 -151 60c-64 0 -94 -27 -94 -61c0 -37 37 -55 105 -75c81 -23 166 -51 166 -152c0 -95 -74 -155 -189 -155c-66 0 -131 20 -178 58v108c49 -50 102 -79 171 -79c68 0 102 28 102 67c0 41 -40 55 -113 77
c-80 25 -159 55 -159 146c0 88 73 153 185 153z" />
    <glyph glyph-name="t" unicode="t" horiz-adv-x="373" 
d="M343 94v-89c-19 -11 -46 -17 -81 -17c-99 0 -158 59 -158 161v276h-76v81h79v119l94 30v-149h130v-81h-130v-264c0 -57 26 -83 82 -83c11 0 36 2 60 16z" />
    <glyph glyph-name="u" unicode="u" horiz-adv-x="618" 
d="M437 76c-29 -53 -80 -88 -164 -88c-115 0 -196 78 -196 212v306h97v-302c0 -84 54 -127 119 -127c105 0 142 97 142 172v257h97v-506h-95v76z" />
    <glyph glyph-name="v" unicode="v" horiz-adv-x="522" 
d="M305 0h-88l-207 506h104l147 -376l147 376h104z" />
    <glyph glyph-name="w" unicode="w" horiz-adv-x="802" 
d="M181 0l-165 506h101l115 -374l122 374h94l122 -374l115 374h101l-165 -506h-94l-126 371l-126 -371h-94z" />
    <glyph glyph-name="x" unicode="x" horiz-adv-x="506" 
d="M488 0h-111l-122 194l-127 -194h-111l170 260l-162 246h112l116 -182l116 182h112l-163 -246z" />
    <glyph glyph-name="y" unicode="y" horiz-adv-x="524" 
d="M42 -199v87c27 -17 52 -17 64 -17c44 0 70 25 91 80l21 56l-210 499h109l147 -383l143 383h105l-235 -589c-30 -76 -69 -129 -162 -129c-20 0 -45 1 -73 13z" />
    <glyph glyph-name="z" unicode="z" horiz-adv-x="479" 
d="M43 0v56l260 366h-260v84h388v-56l-262 -366h271v-84h-397z" />
    <glyph glyph-name="braceleft" unicode="{" horiz-adv-x="349" 
d="M316 690c-79 6 -102 -21 -102 -89v-140c0 -67 -15 -119 -63 -138c48 -19 63 -71 63 -138v-140c0 -68 23 -95 102 -89v-85c-132 -10 -196 45 -196 170v144c0 71 -18 97 -86 98v80c68 1 86 27 86 98v144c0 125 64 180 196 170v-85z" />
    <glyph glyph-name="bar" unicode="|" horiz-adv-x="274" 
d="M184 -140h-94v926h94v-926z" />
    <glyph glyph-name="braceright" unicode="}" horiz-adv-x="349" 
d="M33 -44c79 -6 102 21 102 89v140c0 67 15 119 63 138c-48 19 -63 71 -63 138v140c0 68 -23 95 -102 89v85c132 10 196 -45 196 -170v-144c0 -71 18 -97 86 -98v-80c-68 -1 -86 -27 -86 -98v-144c0 -125 -64 -180 -196 -170v85z" />
    <glyph glyph-name="asciitilde" unicode="~" horiz-adv-x="565" 
d="M133 257l-65 20c0 68 50 128 122 128c82 0 126 -64 188 -64c39 0 56 43 59 70l65 -20c0 -68 -50 -128 -122 -128c-82 0 -126 64 -188 64c-39 0 -56 -43 -59 -70z" />
    <glyph glyph-name="uni00A0" unicode="&#xa0;" horiz-adv-x="246" 
 />
    <glyph glyph-name="exclamdown" unicode="&#xa1;" horiz-adv-x="263" 
d="M132 518c33 0 61 -27 61 -61s-28 -62 -61 -62s-61 28 -61 62s28 61 61 61zM175 312l10 -512h-107l10 512h87z" />
    <glyph glyph-name="cent" unicode="&#xa2;" horiz-adv-x="530" 
d="M268 730h93v-114c37 -4 74 -15 103 -32v-97c-37 26 -91 39 -132 39c-105 0 -174 -74 -174 -174c0 -92 63 -172 174 -172c46 0 98 12 134 40v-98c-29 -19 -68 -28 -105 -32v-114h-93v117c-124 24 -209 128 -209 259c0 132 84 236 209 261v117z" />
    <glyph glyph-name="sterling" unicode="&#xa3;" horiz-adv-x="580" 
d="M217 508v-121h198v-82h-198v-145c0 -27 -11 -54 -27 -69h348v-91h-481v91h13c30 0 48 26 48 70v144h-60v82h60v123c0 122 94 208 222 208c68 0 132 -23 173 -60v-116c-43 53 -109 82 -170 82c-77 0 -126 -47 -126 -116z" />
    <glyph glyph-name="currency" unicode="&#xa4;" horiz-adv-x="698" 
d="M118 356c0 47 14 90 38 126l-103 104l65 66l104 -104c36 24 79 38 126 38s91 -14 127 -39l105 105l65 -66l-104 -105c23 -36 37 -79 37 -125c0 -47 -14 -90 -38 -126l105 -105l-66 -65l-105 104c-36 -24 -79 -38 -126 -38c-46 0 -89 14 -125 37l-104 -103l-66 65l104 104
c-25 36 -39 80 -39 127zM210 356c0 -77 61 -140 138 -142c81 -2 144 61 142 142c-2 77 -65 138 -142 138s-138 -61 -138 -138z" />
    <glyph glyph-name="yen" unicode="&#xa5;" horiz-adv-x="658" 
d="M554 158h-176v-158h-99v158h-175v80h175v68h-175v80h132l-208 320h115l185 -294l186 294h115l-208 -320h133v-80h-176v-68h176v-80z" />
    <glyph glyph-name="brokenbar" unicode="&#xa6;" horiz-adv-x="274" 
d="M184 446h-94v340h94v-340zM90 200h94v-340h-94v340z" />
    <glyph glyph-name="section" unicode="&#xa7;" horiz-adv-x="529" 
d="M265 718c68 0 130 -18 174 -44v-101c-49 36 -117 56 -172 56c-66 0 -104 -27 -104 -68c0 -48 40 -65 153 -122c130 -65 159 -114 159 -181c0 -39 -24 -74 -57 -103c36 -34 52 -68 52 -108c0 -90 -86 -159 -200 -159c-84 0 -158 26 -203 59v108c53 -46 129 -78 200 -78
c56 0 106 26 106 68c0 49 -36 66 -136 117c-143 73 -176 113 -176 183c0 39 24 73 60 102c-38 32 -55 66 -55 112c0 89 80 159 199 159zM352 204c17 14 29 31 28 53c-1 36 -20 58 -120 107c-28 14 -52 27 -74 39c-22 -17 -32 -35 -30 -55c2 -32 22 -52 119 -101
c29 -15 55 -29 77 -43z" />
    <glyph glyph-name="dieresis" unicode="&#xa8;" horiz-adv-x="572" 
d="M176 718c33 0 61 -27 61 -61s-28 -62 -61 -62s-61 28 -61 62s28 61 61 61zM396 718c33 0 61 -27 61 -61s-28 -62 -61 -62s-61 28 -61 62s28 61 61 61z" />
    <glyph glyph-name="copyright" unicode="&#xa9;" horiz-adv-x="854" 
d="M60 353c0 203 160 365 365 365s369 -162 369 -365s-164 -365 -369 -365s-365 162 -365 365zM425 632c-158 0 -276 -122 -276 -279s118 -279 276 -279s280 122 280 279s-122 279 -280 279zM545 263v-86c-31 -19 -75 -27 -110 -27c-117 0 -204 86 -204 201
c0 116 85 205 202 205c39 0 80 -10 110 -28v-83c-27 19 -72 31 -107 31c-73 0 -120 -51 -120 -124c0 -70 43 -122 122 -122c37 0 80 12 107 33z" />
    <glyph glyph-name="ordfeminine" unicode="&#xaa;" horiz-adv-x="415" 
d="M256 423v39c-10 -21 -38 -46 -83 -46c-53 0 -94 34 -94 82c0 47 37 76 93 89l80 19v4c0 26 -28 40 -58 40c-32 0 -76 -16 -93 -32v75c22 13 65 26 105 26c73 0 125 -42 125 -113v-183h-75zM255 552l-62 -16c-24 -6 -37 -15 -37 -31c0 -17 13 -25 32 -25c35 0 67 29 67 66
v6zM64 296v74h282v-74h-282z" />
    <glyph glyph-name="guillemotleft" unicode="&#xab;" horiz-adv-x="508" 
d="M168 449h98l-121 -196l121 -195h-98l-121 195zM355 449h98l-121 -196l121 -195h-98l-121 195z" />
    <glyph glyph-name="logicalnot" unicode="&#xac;" horiz-adv-x="583" 
d="M72 311v85h432v-200h-88v115h-344z" />
    <glyph glyph-name="uni00AD" unicode="&#xad;" horiz-adv-x="444" 
d="M69 228v86h306v-86h-306z" />
    <glyph glyph-name="registered" unicode="&#xae;" horiz-adv-x="493" 
d="M48 575c0 112 86 198 199 198c112 0 198 -86 198 -198c0 -113 -86 -199 -198 -199c-113 0 -199 86 -199 199zM106 575c0 -83 58 -143 141 -143c82 0 141 60 141 143c0 82 -59 142 -141 142c-83 0 -141 -60 -141 -142zM174 481v186h90c36 0 62 -26 62 -61
c0 -31 -19 -48 -33 -55l42 -70h-55l-35 63h-19v-63h-52zM226 586h27c13 0 22 9 22 20c0 10 -9 19 -22 19h-27v-39z" />
    <glyph glyph-name="macron" unicode="&#xaf;" horiz-adv-x="369" 
d="M50 622v70h269v-70h-269z" />
    <glyph glyph-name="degree" unicode="&#xb0;" horiz-adv-x="392" 
d="M196 416c-83 0 -151 67 -151 151s68 151 151 151s151 -67 151 -151s-68 -151 -151 -151zM196 495c42 0 74 29 74 72c0 44 -32 74 -74 74c-41 0 -72 -30 -72 -74c0 -43 31 -72 72 -72z" />
    <glyph glyph-name="plusminus" unicode="&#xb1;" horiz-adv-x="556" 
d="M322 479h191v-85h-191v-181h-88v181h-191v85h191v180h88v-180zM43 132h470v-85h-470v85z" />
    <glyph glyph-name="twosuperior" unicode="&#xb2;" horiz-adv-x="330" 
d="M182 536c25 27 31 41 31 65c0 29 -28 48 -67 48c-31 0 -73 -14 -103 -48v82c22 20 61 35 103 35c84 0 145 -49 145 -116c0 -36 -14 -64 -52 -103l-107 -111h167v-70h-273v53z" />
    <glyph glyph-name="threesuperior" unicode="&#xb3;" horiz-adv-x="332" 
d="M45 601v81c25 22 64 36 108 36c78 0 136 -46 136 -109c0 -39 -20 -73 -55 -88c38 -14 66 -53 66 -99c0 -69 -60 -116 -147 -116c-49 0 -88 13 -119 38v86c26 -31 69 -55 115 -55c48 0 74 23 74 55s-31 53 -89 53h-40v65h29c61 0 89 21 89 51c0 27 -22 50 -65 50
c-41 0 -75 -18 -102 -48z" />
    <glyph glyph-name="acute" unicode="&#xb4;" horiz-adv-x="321" 
d="M55 568l95 167h116l-129 -167h-82z" />
    <glyph glyph-name="uni00B5" unicode="&#xb5;" horiz-adv-x="637" 
d="M91 -200v706h97v-302c0 -84 54 -127 119 -127c105 0 142 97 142 172v257h97v-506h-95v76c-29 -53 -80 -88 -164 -88c-38 0 -73 9 -102 25v-213h-94z" />
    <glyph glyph-name="paragraph" unicode="&#xb6;" horiz-adv-x="645" 
d="M456 -100v726h-77v-726h-85v406h-36c-121 0 -227 76 -227 200s106 200 227 200h282v-806h-84z" />
    <glyph glyph-name="periodcentered" unicode="&#xb7;" horiz-adv-x="256" 
d="M67 304c0 34 28 61 61 61s61 -27 61 -61s-28 -62 -61 -62s-61 28 -61 62z" />
    <glyph glyph-name="cedilla" unicode="&#xb8;" horiz-adv-x="270" 
d="M154 0l-16 -56c45 -8 82 -37 82 -81c0 -58 -57 -89 -118 -89c-25 0 -39 3 -52 7v62c12 -3 27 -6 47 -6c27 0 46 10 46 29c0 20 -20 30 -50 30c-8 0 -18 -1 -22 -2l34 127z" />
    <glyph glyph-name="onesuperior" unicode="&#xb9;" horiz-adv-x="299" 
d="M123 318v294l-85 -47v81l98 60h64v-388h-77z" />
    <glyph glyph-name="ordmasculine" unicode="&#xba;" horiz-adv-x="434" 
d="M217 416c-83 0 -151 67 -151 151s68 151 151 151s151 -67 151 -151s-68 -151 -151 -151zM217 495c42 0 74 29 74 72c0 44 -32 74 -74 74c-41 0 -72 -30 -72 -74c0 -43 31 -72 72 -72zM76 301v74h282v-74h-282z" />
    <glyph glyph-name="guillemotright" unicode="&#xbb;" horiz-adv-x="508" 
d="M340 58h-98l121 196l-121 195h98l121 -195zM153 58h-98l121 196l-121 195h98l121 -195z" />
    <glyph glyph-name="onequarter" unicode="&#xbc;" horiz-adv-x="791" 
d="M127 0l516 706h88l-516 -706h-88zM157 318v294l-85 -47v81l98 60h64v-388h-77zM436 80v47l192 261h63v-240h58v-68h-58v-80h-75v80h-180zM617 257l-80 -110h80v110z" />
    <glyph glyph-name="onehalf" unicode="&#xbd;" horiz-adv-x="854" 
d="M127 0l516 706h88l-516 -706h-88zM157 318v294l-85 -47v81l98 60h64v-388h-77zM697 218c25 27 31 41 31 65c0 29 -28 48 -67 48c-31 0 -73 -14 -103 -48v82c22 20 61 35 103 35c84 0 146 -49 146 -116c0 -36 -14 -64 -52 -103l-108 -111h167v-70h-273v53z" />
    <glyph glyph-name="threequarters" unicode="&#xbe;" horiz-adv-x="798" 
d="M57 601v81c25 22 64 36 108 36c78 0 136 -46 136 -109c0 -39 -20 -73 -55 -88c38 -14 66 -53 66 -99c0 -69 -60 -116 -147 -116c-49 0 -88 13 -119 38v86c26 -31 69 -55 115 -55c48 0 74 23 74 55s-31 53 -89 53h-40v65h29c61 0 89 21 89 51c0 27 -22 50 -65 50
c-41 0 -75 -18 -102 -48zM134 0l516 706h88l-516 -706h-88zM443 80v47l192 261h63v-240h58v-68h-58v-80h-75v80h-180zM624 257l-80 -110h80v110z" />
    <glyph glyph-name="questiondown" unicode="&#xbf;" horiz-adv-x="433" 
d="M264 395c-33 0 -61 27 -61 61s28 62 61 62s61 -28 61 -62s-28 -61 -61 -61zM215 323h98v-48c0 -97 -54 -142 -104 -181c-41 -32 -78 -61 -78 -115c0 -68 53 -99 114 -99c56 0 119 26 152 73v-118c-39 -31 -101 -47 -151 -47c-127 0 -215 77 -215 190c0 90 52 133 101 173
c43 35 83 67 83 128v44z" />
    <glyph glyph-name="Agrave" unicode="&#xc0;" horiz-adv-x="666" 
d="M155 935h116l95 -167h-82zM7 0l274 706h104l274 -706h-102l-74 192h-300l-74 -192h-102zM215 285h236l-118 313z" />
    <glyph glyph-name="Aacute" unicode="&#xc1;" horiz-adv-x="666" 
d="M378 768h-82l95 167h116zM7 0l274 706h104l274 -706h-102l-74 192h-300l-74 -192h-102zM215 285h236l-118 313z" />
    <glyph glyph-name="Acircumflex" unicode="&#xc2;" horiz-adv-x="666" 
d="M290 935h86l120 -182h-92l-71 114l-71 -114h-92zM7 0l274 706h104l274 -706h-102l-74 192h-300l-74 -192h-102zM215 285h236l-118 313z" />
    <glyph glyph-name="Atilde" unicode="&#xc3;" horiz-adv-x="666" 
d="M235 776l-65 20c0 70 42 111 102 111c57 0 88 -53 121 -53c26 0 37 28 39 56l65 -20c0 -70 -48 -111 -102 -111c-57 0 -88 53 -121 53c-26 0 -37 -28 -39 -56zM7 0l274 706h104l274 -706h-102l-74 192h-300l-74 -192h-102zM215 285h236l-118 313z" />
    <glyph glyph-name="Adieresis" unicode="&#xc4;" horiz-adv-x="666" 
d="M223 918c33 0 61 -27 61 -61s-28 -62 -61 -62s-61 28 -61 62s28 61 61 61zM443 918c33 0 61 -27 61 -61s-28 -62 -61 -62s-61 28 -61 62s28 61 61 61zM7 0l274 706h104l274 -706h-102l-74 192h-300l-74 -192h-102zM215 285h236l-118 313z" />
    <glyph glyph-name="Aring" unicode="&#xc5;" horiz-adv-x="666" 
d="M225 868c0 60 48 108 108 108s108 -48 108 -108s-48 -108 -108 -108s-108 48 -108 108zM287 868c0 -25 21 -46 46 -46s46 21 46 46s-21 46 -46 46s-46 -21 -46 -46zM7 0l274 706h104l274 -706h-102l-74 192h-300l-74 -192h-102zM215 285h236l-118 313z" />
    <glyph glyph-name="AE" unicode="&#xc6;" horiz-adv-x="947" 
d="M471 0v242h-257l-124 -242h-102l361 706h540v-90h-319v-215h261v-90h-261v-220h329v-91h-428zM261 332h210v284h-64z" />
    <glyph glyph-name="Ccedilla" unicode="&#xc7;" horiz-adv-x="653" 
d="M610 151v-105c-41 -34 -115 -56 -190 -58l-13 -44c45 -8 82 -37 82 -81c0 -58 -57 -89 -118 -89c-25 0 -39 3 -52 7v62c12 -3 27 -6 47 -6c27 0 46 10 46 29c0 20 -20 30 -50 30c-8 0 -18 -1 -22 -2l26 97c-181 22 -316 170 -316 362c0 212 159 365 354 365
c72 0 136 -16 193 -48v-105c-57 36 -121 56 -183 56c-150 0 -262 -116 -262 -268c0 -171 128 -268 272 -268c64 0 130 23 186 66z" />
    <glyph glyph-name="Egrave" unicode="&#xc8;" horiz-adv-x="594" 
d="M264 935l95 -167h-82l-129 167h116zM98 0v706h438v-90h-339v-215h281v-90h-281v-220h349v-91h-448z" />
    <glyph glyph-name="Eacute" unicode="&#xc9;" horiz-adv-x="594" 
d="M278 768l95 167h116l-129 -167h-82zM98 0v706h438v-90h-339v-215h281v-90h-281v-220h349v-91h-448z" />
    <glyph glyph-name="Ecircumflex" unicode="&#xca;" horiz-adv-x="594" 
d="M356 935l120 -182h-92l-71 114l-71 -114h-92l120 182h86zM98 0v706h438v-90h-339v-215h281v-90h-281v-220h349v-91h-448z" />
    <glyph glyph-name="Edieresis" unicode="&#xcb;" horiz-adv-x="594" 
d="M214 918c33 0 61 -27 61 -61s-28 -62 -61 -62s-61 28 -61 62s28 61 61 61zM434 918c33 0 61 -27 61 -61s-28 -62 -61 -62s-61 28 -61 62s28 61 61 61zM98 0v706h438v-90h-339v-215h281v-90h-281v-220h349v-91h-448z" />
    <glyph glyph-name="Igrave" unicode="&#xcc;" horiz-adv-x="295" 
d="M87 935l95 -167h-82l-129 167h116zM98 0v706h99v-706h-99z" />
    <glyph glyph-name="Iacute" unicode="&#xcd;" horiz-adv-x="295" 
d="M109 768l95 167h116l-129 -167h-82zM98 0v706h99v-706h-99z" />
    <glyph glyph-name="Icircumflex" unicode="&#xce;" horiz-adv-x="295" 
d="M191 935l120 -182h-92l-71 114l-71 -114h-93l121 182h86zM98 0v706h99v-706h-99z" />
    <glyph glyph-name="Idieresis" unicode="&#xcf;" horiz-adv-x="295" 
d="M39 918c33 0 61 -27 61 -61s-28 -62 -61 -62s-62 28 -62 62s29 61 62 61zM259 918c33 0 61 -27 61 -61s-28 -62 -61 -62s-61 28 -61 62s28 61 61 61zM98 0v706h99v-706h-99z" />
    <glyph glyph-name="Eth" unicode="&#xd0;" horiz-adv-x="760" 
d="M108 0v308h-81v90h81v308h246c206 0 356 -156 356 -352c0 -200 -150 -354 -356 -354h-246zM207 91h138c144 0 262 109 262 263c0 151 -117 262 -261 262h-139v-218h180v-90h-180v-217z" />
    <glyph glyph-name="Ntilde" unicode="&#xd1;" horiz-adv-x="774" 
d="M289 776l-65 20c0 70 42 111 102 111c57 0 88 -53 121 -53c26 0 37 28 39 56l65 -20c0 -70 -48 -111 -102 -111c-57 0 -88 53 -121 53c-26 0 -37 -28 -39 -56zM577 706h99v-706h-87l-391 530v-530h-100v706h88l391 -529v529z" />
    <glyph glyph-name="Ograve" unicode="&#xd2;" horiz-adv-x="828" 
d="M353 935l95 -167h-82l-129 167h116zM414 718c204 0 364 -157 364 -365s-160 -365 -364 -365s-364 157 -364 365s160 365 364 365zM414 621c-144 0 -262 -114 -262 -268s118 -268 262 -268s262 114 262 268s-118 268 -262 268z" />
    <glyph glyph-name="Oacute" unicode="&#xd3;" horiz-adv-x="828" 
d="M379 768l95 167h116l-129 -167h-82zM414 718c204 0 364 -157 364 -365s-160 -365 -364 -365s-364 157 -364 365s160 365 364 365zM414 621c-144 0 -262 -114 -262 -268s118 -268 262 -268s262 114 262 268s-118 268 -262 268z" />
    <glyph glyph-name="Ocircumflex" unicode="&#xd4;" horiz-adv-x="828" 
d="M458 935l120 -182h-92l-71 114l-71 -114h-92l120 182h86zM414 718c204 0 364 -157 364 -365s-160 -365 -364 -365s-364 157 -364 365s160 365 364 365zM414 621c-144 0 -262 -114 -262 -268s118 -268 262 -268s262 114 262 268s-118 268 -262 268z" />
    <glyph glyph-name="Otilde" unicode="&#xd5;" horiz-adv-x="828" 
d="M316 776l-65 20c0 70 42 111 102 111c57 0 88 -53 121 -53c26 0 37 28 39 56l65 -20c0 -70 -48 -111 -102 -111c-57 0 -88 53 -121 53c-26 0 -37 -28 -39 -56zM414 718c204 0 364 -157 364 -365s-160 -365 -364 -365s-364 157 -364 365s160 365 364 365zM414 621
c-144 0 -262 -114 -262 -268s118 -268 262 -268s262 114 262 268s-118 268 -262 268z" />
    <glyph glyph-name="Odieresis" unicode="&#xd6;" horiz-adv-x="828" 
d="M305 918c33 0 61 -27 61 -61s-28 -62 -61 -62s-61 28 -61 62s28 61 61 61zM525 918c33 0 61 -27 61 -61s-28 -62 -61 -62s-61 28 -61 62s28 61 61 61zM414 718c204 0 364 -157 364 -365s-160 -365 -364 -365s-364 157 -364 365s160 365 364 365zM414 621
c-144 0 -262 -114 -262 -268s118 -268 262 -268s262 114 262 268s-118 268 -262 268z" />
    <glyph glyph-name="multiply" unicode="&#xd7;" horiz-adv-x="565" 
d="M283 410l164 164l57 -57l-164 -164l164 -165l-57 -57l-164 164l-165 -164l-57 57l164 165l-164 164l57 57z" />
    <glyph glyph-name="Oslash" unicode="&#xd8;" horiz-adv-x="828" 
d="M50 353c0 208 160 365 364 365c67 0 130 -17 183 -47l68 94l61 -42l-69 -95c75 -66 121 -163 121 -275c0 -208 -160 -365 -364 -365c-67 0 -129 17 -182 47l-68 -94l-62 42l69 95c-75 66 -121 163 -121 275zM230 160l309 430c-37 20 -80 31 -125 31
c-144 0 -262 -114 -262 -268c0 -77 30 -145 78 -193zM598 545l-308 -429c37 -20 79 -31 124 -31c144 0 262 114 262 268c0 77 -30 145 -78 192z" />
    <glyph glyph-name="Ugrave" unicode="&#xd9;" horiz-adv-x="726" 
d="M293 935l95 -167h-82l-129 167h116zM636 706v-451c0 -148 -116 -267 -273 -267c-158 0 -273 119 -273 267v451h99v-445c0 -96 71 -178 174 -178c102 0 174 82 174 178v445h99z" />
    <glyph glyph-name="Uacute" unicode="&#xda;" horiz-adv-x="726" 
d="M329 768l95 167h116l-129 -167h-82zM636 706v-451c0 -148 -116 -267 -273 -267c-158 0 -273 119 -273 267v451h99v-445c0 -96 71 -178 174 -178c102 0 174 82 174 178v445h99z" />
    <glyph glyph-name="Ucircumflex" unicode="&#xdb;" horiz-adv-x="726" 
d="M406 935l120 -182h-92l-71 114l-71 -114h-92l120 182h86zM636 706v-451c0 -148 -116 -267 -273 -267c-158 0 -273 119 -273 267v451h99v-445c0 -96 71 -178 174 -178c102 0 174 82 174 178v445h99z" />
    <glyph glyph-name="Udieresis" unicode="&#xdc;" horiz-adv-x="726" 
d="M253 918c33 0 61 -27 61 -61s-28 -62 -61 -62s-61 28 -61 62s28 61 61 61zM473 918c33 0 61 -27 61 -61s-28 -62 -61 -62s-61 28 -61 62s28 61 61 61zM636 706v-451c0 -148 -116 -267 -273 -267c-158 0 -273 119 -273 267v451h99v-445c0 -96 71 -178 174 -178
c102 0 174 82 174 178v445h99z" />
    <glyph glyph-name="Yacute" unicode="&#xdd;" horiz-adv-x="611" 
d="M271 768l95 167h116l-129 -167h-82zM256 0v320l-251 386h115l185 -294l186 294h115l-251 -386v-320h-99z" />
    <glyph glyph-name="Thorn" unicode="&#xde;" horiz-adv-x="615" 
d="M197 130v-130h-99v706h99v-132h150c123 0 224 -99 224 -220c0 -124 -101 -224 -223 -224h-151zM197 215h144c85 0 137 53 137 138s-52 135 -136 135h-145v-273z" />
    <glyph glyph-name="germandbls" unicode="&#xdf;" horiz-adv-x="588" 
d="M564 125c0 -92 -92 -137 -169 -137c-48 0 -101 9 -141 29v88c23 -12 83 -31 134 -31c42 0 77 13 77 53c0 36 -40 51 -99 86c-85 51 -114 76 -114 132c0 39 20 67 85 119c54 43 69 67 69 95c0 38 -34 73 -106 73c-59 0 -117 -35 -117 -109v-523h-97v530
c0 123 107 188 216 188c120 0 205 -65 205 -154c0 -61 -32 -96 -100 -151c-39 -32 -60 -45 -60 -65c0 -21 36 -39 84 -67c101 -59 133 -98 133 -156z" />
    <glyph glyph-name="agrave" unicode="&#xe0;" horiz-adv-x="542" 
d="M206 735l95 -167h-82l-129 167h116zM83 468c41 28 104 50 172 50c129 0 209 -75 209 -191v-327h-90v78c-36 -60 -95 -90 -165 -90c-94 0 -164 62 -164 146c0 90 67 140 189 157l133 19v19c0 63 -44 101 -118 101c-67 0 -128 -31 -166 -59v97zM225 70c82 0 144 68 144 139
v26l-120 -15c-70 -9 -109 -36 -109 -80c0 -43 35 -70 85 -70z" />
    <glyph glyph-name="aacute" unicode="&#xe1;" horiz-adv-x="542" 
d="M210 568l95 167h116l-129 -167h-82zM83 468c41 28 104 50 172 50c129 0 209 -75 209 -191v-327h-90v78c-36 -60 -95 -90 -165 -90c-94 0 -164 62 -164 146c0 90 67 140 189 157l133 19v19c0 63 -44 101 -118 101c-67 0 -128 -31 -166 -59v97zM225 70c82 0 144 68 144 139
v26l-120 -15c-70 -9 -109 -36 -109 -80c0 -43 35 -70 85 -70z" />
    <glyph glyph-name="acircumflex" unicode="&#xe2;" horiz-adv-x="542" 
d="M298 735l120 -182h-92l-71 114l-71 -114h-92l120 182h86zM83 468c41 28 104 50 172 50c129 0 209 -75 209 -191v-327h-90v78c-36 -60 -95 -90 -165 -90c-94 0 -164 62 -164 146c0 90 67 140 189 157l133 19v19c0 63 -44 101 -118 101c-67 0 -128 -31 -166 -59v97zM225 70
c82 0 144 68 144 139v26l-120 -15c-70 -9 -109 -36 -109 -80c0 -43 35 -70 85 -70z" />
    <glyph glyph-name="atilde" unicode="&#xe3;" horiz-adv-x="542" 
d="M156 576l-65 20c0 70 42 111 102 111c57 0 88 -53 121 -53c26 0 37 28 39 56l65 -20c0 -70 -48 -111 -102 -111c-57 0 -88 53 -121 53c-26 0 -37 -28 -39 -56zM83 468c41 28 104 50 172 50c129 0 209 -75 209 -191v-327h-90v78c-36 -60 -95 -90 -165 -90
c-94 0 -164 62 -164 146c0 90 67 140 189 157l133 19v19c0 63 -44 101 -118 101c-67 0 -128 -31 -166 -59v97zM225 70c82 0 144 68 144 139v26l-120 -15c-70 -9 -109 -36 -109 -80c0 -43 35 -70 85 -70z" />
    <glyph glyph-name="adieresis" unicode="&#xe4;" horiz-adv-x="542" 
d="M139 718c33 0 61 -27 61 -61s-28 -62 -61 -62s-61 28 -61 62s28 61 61 61zM359 718c33 0 61 -27 61 -61s-28 -62 -61 -62s-61 28 -61 62s28 61 61 61zM83 468c41 28 104 50 172 50c129 0 209 -75 209 -191v-327h-90v78c-36 -60 -95 -90 -165 -90c-94 0 -164 62 -164 146
c0 90 67 140 189 157l133 19v19c0 63 -44 101 -118 101c-67 0 -128 -31 -166 -59v97zM225 70c82 0 144 68 144 139v26l-120 -15c-70 -9 -109 -36 -109 -80c0 -43 35 -70 85 -70z" />
    <glyph glyph-name="aring" unicode="&#xe5;" horiz-adv-x="542" 
d="M151 668c0 60 48 108 108 108s108 -48 108 -108s-48 -108 -108 -108s-108 48 -108 108zM213 668c0 -25 21 -46 46 -46s46 21 46 46s-21 46 -46 46s-46 -21 -46 -46zM83 468c41 28 104 50 172 50c129 0 209 -75 209 -191v-327h-90v78c-36 -60 -95 -90 -165 -90
c-94 0 -164 62 -164 146c0 90 67 140 189 157l133 19v19c0 63 -44 101 -118 101c-67 0 -128 -31 -166 -59v97zM225 70c82 0 144 68 144 139v26l-120 -15c-70 -9 -109 -36 -109 -80c0 -43 35 -70 85 -70z" />
    <glyph glyph-name="ae" unicode="&#xe6;" horiz-adv-x="890" 
d="M209 -12c-94 0 -164 62 -164 146c0 79 56 128 164 152l160 35v8c0 63 -46 101 -120 101c-58 0 -128 -24 -166 -59v97c47 35 114 50 172 50c81 0 148 -38 180 -96c44 67 113 96 186 96c141 0 224 -105 224 -235c0 -19 -2 -39 -5 -55h-369c11 -107 88 -150 173 -150
c62 0 126 23 168 61v-101c-64 -44 -121 -50 -180 -50c-95 0 -170 42 -215 107c-46 -70 -138 -107 -208 -107zM622 431c-76 0 -134 -47 -149 -124h278c-7 75 -57 124 -129 124zM225 70c82 0 148 68 148 139v36l-147 -32c-61 -13 -86 -34 -86 -73c0 -41 35 -70 85 -70z" />
    <glyph glyph-name="ccedilla" unicode="&#xe7;" horiz-adv-x="499" 
d="M449 484v-97c-37 26 -91 39 -132 39c-105 0 -174 -74 -174 -174c0 -92 63 -172 174 -172c46 0 98 12 134 40v-98c-34 -22 -80 -31 -122 -33l-13 -45c45 -8 82 -37 82 -81c0 -58 -57 -89 -118 -89c-25 0 -39 3 -52 7v62c12 -3 27 -6 47 -6c27 0 46 10 46 29
c0 20 -20 30 -50 30c-8 0 -18 -1 -22 -2l26 96c-135 16 -231 123 -231 262c0 151 110 266 266 266c48 0 100 -11 139 -34z" />
    <glyph glyph-name="egrave" unicode="&#xe8;" horiz-adv-x="568" 
d="M250 735l95 -167h-82l-129 167h116zM295 518c145 0 229 -105 229 -235c0 -19 -2 -39 -5 -55h-373c11 -107 88 -150 175 -150c64 0 127 23 170 61v-101c-65 -44 -124 -50 -184 -50c-160 0 -263 115 -263 264s99 266 251 266zM293 431c-75 0 -129 -47 -144 -124h279
c-7 75 -59 124 -135 124z" />
    <glyph glyph-name="eacute" unicode="&#xe9;" horiz-adv-x="568" 
d="M256 568l95 167h116l-129 -167h-82zM295 518c145 0 229 -105 229 -235c0 -19 -2 -39 -5 -55h-373c11 -107 88 -150 175 -150c64 0 127 23 170 61v-101c-65 -44 -124 -50 -184 -50c-160 0 -263 115 -263 264s99 266 251 266zM293 431c-75 0 -129 -47 -144 -124h279
c-7 75 -59 124 -135 124z" />
    <glyph glyph-name="ecircumflex" unicode="&#xea;" horiz-adv-x="568" 
d="M333 735l120 -182h-92l-71 114l-71 -114h-92l120 182h86zM295 518c145 0 229 -105 229 -235c0 -19 -2 -39 -5 -55h-373c11 -107 88 -150 175 -150c64 0 127 23 170 61v-101c-65 -44 -124 -50 -184 -50c-160 0 -263 115 -263 264s99 266 251 266zM293 431
c-75 0 -129 -47 -144 -124h279c-7 75 -59 124 -135 124z" />
    <glyph glyph-name="edieresis" unicode="&#xeb;" horiz-adv-x="568" 
d="M180 718c33 0 61 -27 61 -61s-28 -62 -61 -62s-61 28 -61 62s28 61 61 61zM400 718c33 0 61 -27 61 -61s-28 -62 -61 -62s-61 28 -61 62s28 61 61 61zM295 518c145 0 229 -105 229 -235c0 -19 -2 -39 -5 -55h-373c11 -107 88 -150 175 -150c64 0 127 23 170 61v-101
c-65 -44 -124 -50 -184 -50c-160 0 -263 115 -263 264s99 266 251 266zM293 431c-75 0 -129 -47 -144 -124h279c-7 75 -59 124 -135 124z" />
    <glyph glyph-name="igrave" unicode="&#xec;" horiz-adv-x="269" 
d="M75 735l95 -167h-82l-129 167h116zM86 0v506h97v-506h-97z" />
    <glyph glyph-name="iacute" unicode="&#xed;" horiz-adv-x="269" 
d="M98 568l95 167h116l-129 -167h-82zM86 0v506h97v-506h-97z" />
    <glyph glyph-name="icircumflex" unicode="&#xee;" horiz-adv-x="269" 
d="M178 735l120 -182h-92l-71 114l-71 -114h-93l121 182h86zM86 0v506h97v-506h-97z" />
    <glyph glyph-name="idieresis" unicode="&#xef;" horiz-adv-x="269" 
d="M28 718c33 0 61 -27 61 -61s-28 -62 -61 -62c-34 0 -62 28 -62 62s28 61 62 61zM248 718c33 0 61 -27 61 -61s-28 -62 -61 -62s-61 28 -61 62s28 61 61 61zM86 0v506h97v-506h-97z" />
    <glyph glyph-name="eth" unicode="&#xf0;" horiz-adv-x="590" 
d="M171 735h118l59 -69l126 33l15 -60l-98 -25c80 -101 151 -213 151 -364s-108 -261 -249 -261s-247 110 -247 251s99 252 240 252c46 0 84 -16 106 -37l1 1c-19 37 -50 81 -94 135l-152 -39l-14 58l123 32c-14 16 -30 33 -46 51zM442 239c0 89 -59 162 -149 162
s-150 -73 -150 -162s60 -161 150 -161s149 72 149 161z" />
    <glyph glyph-name="ntilde" unicode="&#xf1;" horiz-adv-x="618" 
d="M212 576l-65 20c0 70 42 111 102 111c57 0 88 -53 121 -53c26 0 37 28 39 56l65 -20c0 -70 -48 -111 -102 -111c-57 0 -88 53 -121 53c-26 0 -37 -28 -39 -56zM181 430c29 53 80 88 164 88c115 0 196 -78 196 -212v-306h-97v302c0 84 -54 127 -119 127
c-105 0 -142 -97 -142 -172v-257h-97v506h95v-76z" />
    <glyph glyph-name="ograve" unicode="&#xf2;" horiz-adv-x="612" 
d="M240 735l95 -167h-82l-129 167h116zM306 518c150 0 262 -116 262 -265s-112 -265 -262 -265s-262 116 -262 265s112 265 262 265zM306 426c-96 0 -163 -79 -163 -173s67 -173 163 -173s163 79 163 173s-67 173 -163 173z" />
    <glyph glyph-name="oacute" unicode="&#xf3;" horiz-adv-x="612" 
d="M261 568l95 167h116l-129 -167h-82zM306 518c150 0 262 -116 262 -265s-112 -265 -262 -265s-262 116 -262 265s112 265 262 265zM306 426c-96 0 -163 -79 -163 -173s67 -173 163 -173s163 79 163 173s-67 173 -163 173z" />
    <glyph glyph-name="ocircumflex" unicode="&#xf4;" horiz-adv-x="612" 
d="M349 735l120 -182h-92l-71 114l-71 -114h-92l120 182h86zM306 518c150 0 262 -116 262 -265s-112 -265 -262 -265s-262 116 -262 265s112 265 262 265zM306 426c-96 0 -163 -79 -163 -173s67 -173 163 -173s163 79 163 173s-67 173 -163 173z" />
    <glyph glyph-name="otilde" unicode="&#xf5;" horiz-adv-x="612" 
d="M208 576l-65 20c0 70 42 111 102 111c57 0 88 -53 121 -53c26 0 37 28 39 56l65 -20c0 -70 -48 -111 -102 -111c-57 0 -88 53 -121 53c-26 0 -37 -28 -39 -56zM306 518c150 0 262 -116 262 -265s-112 -265 -262 -265s-262 116 -262 265s112 265 262 265zM306 426
c-96 0 -163 -79 -163 -173s67 -173 163 -173s163 79 163 173s-67 173 -163 173z" />
    <glyph glyph-name="odieresis" unicode="&#xf6;" horiz-adv-x="612" 
d="M196 718c33 0 61 -27 61 -61s-28 -62 -61 -62s-61 28 -61 62s28 61 61 61zM416 718c33 0 61 -27 61 -61s-28 -62 -61 -62s-61 28 -61 62s28 61 61 61zM306 518c150 0 262 -116 262 -265s-112 -265 -262 -265s-262 116 -262 265s112 265 262 265zM306 426
c-96 0 -163 -79 -163 -173s67 -173 163 -173s163 79 163 173s-67 173 -163 173z" />
    <glyph glyph-name="divide" unicode="&#xf7;" horiz-adv-x="556" 
d="M217 548c0 34 28 61 61 61s61 -27 61 -61s-28 -62 -61 -62s-61 28 -61 62zM58 396h440v-85h-440v85zM217 160c0 34 28 61 61 61s61 -27 61 -61s-28 -62 -61 -62s-61 28 -61 62z" />
    <glyph glyph-name="oslash" unicode="&#xf8;" horiz-adv-x="614" 
d="M45 253c0 149 112 265 262 265c46 0 89 -11 126 -31l57 80l57 -40l-58 -81c50 -48 80 -116 80 -193c0 -149 -112 -265 -262 -265c-46 0 -88 11 -125 30l-57 -79l-58 40l58 81c-50 47 -80 116 -80 193zM182 139l195 271c-21 10 -44 16 -70 16c-96 0 -163 -79 -163 -173
c0 -43 14 -83 38 -114zM432 366l-195 -270c21 -10 44 -16 70 -16c96 0 163 79 163 173c0 43 -14 83 -38 113z" />
    <glyph glyph-name="ugrave" unicode="&#xf9;" horiz-adv-x="618" 
d="M250 735l95 -167h-82l-129 167h116zM437 76c-29 -53 -80 -88 -164 -88c-115 0 -196 78 -196 212v306h97v-302c0 -84 54 -127 119 -127c105 0 142 97 142 172v257h97v-506h-95v76z" />
    <glyph glyph-name="uacute" unicode="&#xfa;" horiz-adv-x="618" 
d="M266 568l95 167h116l-129 -167h-82zM437 76c-29 -53 -80 -88 -164 -88c-115 0 -196 78 -196 212v306h97v-302c0 -84 54 -127 119 -127c105 0 142 97 142 172v257h97v-506h-95v76z" />
    <glyph glyph-name="ucircumflex" unicode="&#xfb;" horiz-adv-x="618" 
d="M345 735l120 -182h-92l-71 114l-71 -114h-92l120 182h86zM437 76c-29 -53 -80 -88 -164 -88c-115 0 -196 78 -196 212v306h97v-302c0 -84 54 -127 119 -127c105 0 142 97 142 172v257h97v-506h-95v76z" />
    <glyph glyph-name="udieresis" unicode="&#xfc;" horiz-adv-x="618" 
d="M183 718c33 0 61 -27 61 -61s-28 -62 -61 -62s-61 28 -61 62s28 61 61 61zM403 718c33 0 61 -27 61 -61s-28 -62 -61 -62s-61 28 -61 62s28 61 61 61zM437 76c-29 -53 -80 -88 -164 -88c-115 0 -196 78 -196 212v306h97v-302c0 -84 54 -127 119 -127
c105 0 142 97 142 172v257h97v-506h-95v76z" />
    <glyph glyph-name="yacute" unicode="&#xfd;" horiz-adv-x="524" 
d="M225 568l95 167h116l-129 -167h-82zM42 -199v87c27 -17 52 -17 64 -17c44 0 70 25 91 80l21 56l-210 499h109l147 -383l143 383h105l-235 -589c-30 -76 -69 -129 -162 -129c-20 0 -45 1 -73 13z" />
    <glyph glyph-name="thorn" unicode="&#xfe;" horiz-adv-x="635" 
d="M86 -200v906h93v-274c32 49 101 86 171 86c135 0 240 -111 240 -265s-105 -265 -240 -265c-67 0 -137 35 -167 81v-269h-97zM177 253c0 -105 73 -176 157 -176s158 71 158 176s-74 176 -158 176s-157 -70 -157 -176z" />
    <glyph glyph-name="ydieresis" unicode="&#xff;" horiz-adv-x="524" 
d="M153 718c33 0 61 -27 61 -61s-28 -62 -61 -62s-61 28 -61 62s28 61 61 61zM373 718c33 0 61 -27 61 -61s-28 -62 -61 -62s-61 28 -61 62s28 61 61 61zM42 -199v87c27 -17 52 -17 64 -17c44 0 70 25 91 80l21 56l-210 499h109l147 -383l143 383h105l-235 -589
c-30 -76 -69 -129 -162 -129c-20 0 -45 1 -73 13z" />
    <glyph glyph-name="Amacron" unicode="&#x100;" horiz-adv-x="666" 
d="M468 822h-269v70h269v-70zM7 0l274 706h104l274 -706h-102l-74 192h-300l-74 -192h-102zM215 285h236l-118 313z" />
    <glyph glyph-name="amacron" unicode="&#x101;" horiz-adv-x="542" 
d="M120 622v70h269v-70h-269zM83 468c41 28 104 50 172 50c129 0 209 -75 209 -191v-327h-90v78c-36 -60 -95 -90 -165 -90c-94 0 -164 62 -164 146c0 90 67 140 189 157l133 19v19c0 63 -44 101 -118 101c-67 0 -128 -31 -166 -59v97zM225 70c82 0 144 68 144 139v26
l-120 -15c-70 -9 -109 -36 -109 -80c0 -43 35 -70 85 -70z" />
    <glyph glyph-name="Abreve" unicode="&#x102;" horiz-adv-x="666" 
d="M386 916h74c0 -75 -53 -130 -127 -130s-127 55 -127 130h74c1 -36 21 -63 53 -63s52 27 53 63zM7 0l274 706h104l274 -706h-102l-74 192h-300l-74 -192h-102zM215 285h236l-118 313z" />
    <glyph glyph-name="abreve" unicode="&#x103;" horiz-adv-x="542" 
d="M303 716h74c0 -75 -53 -130 -127 -130s-127 55 -127 130h74c1 -36 21 -63 53 -63s52 27 53 63zM83 468c41 28 104 50 172 50c129 0 209 -75 209 -191v-327h-90v78c-36 -60 -95 -90 -165 -90c-94 0 -164 62 -164 146c0 90 67 140 189 157l133 19v19c0 63 -44 101 -118 101
c-67 0 -128 -31 -166 -59v97zM225 70c82 0 144 68 144 139v26l-120 -15c-70 -9 -109 -36 -109 -80c0 -43 35 -70 85 -70z" />
    <glyph glyph-name="Aogonek" unicode="&#x104;" horiz-adv-x="666" 
d="M7 0l274 706h104l275 -706c-56 -42 -83 -67 -83 -98c0 -32 39 -44 68 -49l-27 -75c-68 3 -124 38 -124 99c0 52 37 92 81 123h-18l-74 192h-300l-74 -192h-102zM215 285h236l-118 313z" />
    <glyph glyph-name="aogonek" unicode="&#x105;" horiz-adv-x="542" 
d="M297 -123c0 52 37 92 81 123h-4v78c-36 -60 -95 -90 -165 -90c-94 0 -164 62 -164 146c0 90 67 140 189 157l133 19v19c0 63 -44 101 -118 101c-67 0 -128 -31 -166 -59v97c41 28 104 50 172 50c129 0 209 -75 209 -191v-327h-1c-56 -42 -83 -67 -83 -98
c0 -32 39 -44 68 -49l-27 -75c-68 3 -124 38 -124 99zM225 70c82 0 144 68 144 139v26l-120 -15c-70 -9 -109 -36 -109 -80c0 -43 35 -70 85 -70z" />
    <glyph glyph-name="Cacute" unicode="&#x106;" horiz-adv-x="653" 
d="M363 768l95 167h116l-129 -167h-82zM610 151v-105c-42 -35 -120 -58 -198 -58c-203 0 -362 157 -362 365c0 212 159 365 354 365c72 0 136 -16 193 -48v-105c-57 36 -121 56 -183 56c-150 0 -262 -116 -262 -268c0 -171 128 -268 272 -268c64 0 130 23 186 66z" />
    <glyph glyph-name="cacute" unicode="&#x107;" horiz-adv-x="499" 
d="M255 568l95 167h116l-129 -167h-82zM449 484v-97c-37 26 -91 39 -132 39c-105 0 -174 -74 -174 -174c0 -92 63 -172 174 -172c46 0 98 12 134 40v-98c-39 -25 -95 -34 -142 -34c-153 0 -265 114 -265 264c0 151 110 266 266 266c48 0 100 -11 139 -34z" />
    <glyph glyph-name="Ccircumflex" unicode="&#x108;" horiz-adv-x="653" 
d="M448 935l120 -182h-92l-71 114l-71 -114h-92l120 182h86zM610 151v-105c-42 -35 -120 -58 -198 -58c-203 0 -362 157 -362 365c0 212 159 365 354 365c72 0 136 -16 193 -48v-105c-57 36 -121 56 -183 56c-150 0 -262 -116 -262 -268c0 -171 128 -268 272 -268
c64 0 130 23 186 66z" />
    <glyph glyph-name="ccircumflex" unicode="&#x109;" horiz-adv-x="499" 
d="M343 735l120 -182h-92l-71 114l-71 -114h-92l120 182h86zM449 484v-97c-37 26 -91 39 -132 39c-105 0 -174 -74 -174 -174c0 -92 63 -172 174 -172c46 0 98 12 134 40v-98c-39 -25 -95 -34 -142 -34c-153 0 -265 114 -265 264c0 151 110 266 266 266
c48 0 100 -11 139 -34z" />
    <glyph glyph-name="Cdotaccent" unicode="&#x10a;" horiz-adv-x="653" 
d="M405 918c33 0 61 -27 61 -61s-28 -62 -61 -62s-61 28 -61 62s28 61 61 61zM610 151v-105c-42 -35 -120 -58 -198 -58c-203 0 -362 157 -362 365c0 212 159 365 354 365c72 0 136 -16 193 -48v-105c-57 36 -121 56 -183 56c-150 0 -262 -116 -262 -268
c0 -171 128 -268 272 -268c64 0 130 23 186 66z" />
    <glyph glyph-name="cdotaccent" unicode="&#x10b;" horiz-adv-x="499" 
d="M301 718c33 0 61 -27 61 -61s-28 -62 -61 -62s-61 28 -61 62s28 61 61 61zM449 484v-97c-37 26 -91 39 -132 39c-105 0 -174 -74 -174 -174c0 -92 63 -172 174 -172c46 0 98 12 134 40v-98c-39 -25 -95 -34 -142 -34c-153 0 -265 114 -265 264c0 151 110 266 266 266
c48 0 100 -11 139 -34z" />
    <glyph glyph-name="Ccaron" unicode="&#x10c;" horiz-adv-x="653" 
d="M362 753l-120 182h92l71 -114l71 114h92l-120 -182h-86zM610 151v-105c-42 -35 -120 -58 -198 -58c-203 0 -362 157 -362 365c0 212 159 365 354 365c72 0 136 -16 193 -48v-105c-57 36 -121 56 -183 56c-150 0 -262 -116 -262 -268c0 -171 128 -268 272 -268
c64 0 130 23 186 66z" />
    <glyph glyph-name="ccaron" unicode="&#x10d;" horiz-adv-x="499" 
d="M257 553l-120 182h92l71 -114l71 114h92l-120 -182h-86zM449 484v-97c-37 26 -91 39 -132 39c-105 0 -174 -74 -174 -174c0 -92 63 -172 174 -172c46 0 98 12 134 40v-98c-39 -25 -95 -34 -142 -34c-153 0 -265 114 -265 264c0 151 110 266 266 266c48 0 100 -11 139 -34
z" />
    <glyph glyph-name="Dcaron" unicode="&#x10e;" horiz-adv-x="750" 
d="M312 753l-120 182h92l71 -114l71 114h92l-120 -182h-86zM98 0v706h246c206 0 356 -156 356 -352c0 -200 -150 -354 -356 -354h-246zM197 91h138c144 0 262 109 262 263c0 151 -117 262 -261 262h-139v-525z" />
    <glyph glyph-name="dcaron" unicode="&#x10f;" horiz-adv-x="635" 
d="M456 75c-28 -49 -101 -87 -171 -87c-135 0 -240 111 -240 265s105 265 240 265c70 0 138 -37 167 -82v270h97v-706h-93v75zM594 706h89c5 -28 7 -48 7 -72c0 -43 -11 -71 -29 -111h-72c10 40 17 74 17 104c0 23 -1 48 -12 79zM301 77c84 0 157 71 157 176
c0 106 -73 176 -157 176s-158 -71 -158 -176s74 -176 158 -176z" />
    <glyph glyph-name="Dcroat" unicode="&#x110;" horiz-adv-x="760" 
d="M108 0v308h-81v90h81v308h246c206 0 356 -156 356 -352c0 -200 -150 -354 -356 -354h-246zM207 91h138c144 0 262 109 262 263c0 151 -117 262 -261 262h-139v-218h180v-90h-180v-217z" />
    <glyph glyph-name="dcroat" unicode="&#x111;" horiz-adv-x="635" 
d="M456 75c-28 -49 -101 -87 -171 -87c-135 0 -240 111 -240 265s105 265 240 265c70 0 138 -37 167 -82v129h-143v81h143v60h97v-60h85v-81h-85v-565h-93v75zM301 77c84 0 157 71 157 176c0 106 -73 176 -157 176s-158 -71 -158 -176s74 -176 158 -176z" />
    <glyph glyph-name="Emacron" unicode="&#x112;" horiz-adv-x="594" 
d="M180 822v70h269v-70h-269zM98 0v706h438v-90h-339v-215h281v-90h-281v-220h349v-91h-448z" />
    <glyph glyph-name="emacron" unicode="&#x113;" horiz-adv-x="568" 
d="M155 622v70h269v-70h-269zM295 518c145 0 229 -105 229 -235c0 -19 -2 -39 -5 -55h-373c11 -107 88 -150 175 -150c64 0 127 23 170 61v-101c-65 -44 -124 -50 -184 -50c-160 0 -263 115 -263 264s99 266 251 266zM293 431c-75 0 -129 -47 -144 -124h279
c-7 75 -59 124 -135 124z" />
    <glyph glyph-name="Ebreve" unicode="&#x114;" horiz-adv-x="594" 
d="M368 916h74c0 -75 -53 -130 -127 -130s-127 55 -127 130h74c1 -36 21 -63 53 -63s52 27 53 63zM98 0v706h438v-90h-339v-215h281v-90h-281v-220h349v-91h-448z" />
    <glyph glyph-name="ebreve" unicode="&#x115;" horiz-adv-x="568" 
d="M343 716h74c0 -75 -53 -130 -127 -130s-127 55 -127 130h74c1 -36 21 -63 53 -63s52 27 53 63zM295 518c145 0 229 -105 229 -235c0 -19 -2 -39 -5 -55h-373c11 -107 88 -150 175 -150c64 0 127 23 170 61v-101c-65 -44 -124 -50 -184 -50c-160 0 -263 115 -263 264
s99 266 251 266zM293 431c-75 0 -129 -47 -144 -124h279c-7 75 -59 124 -135 124z" />
    <glyph glyph-name="Edotaccent" unicode="&#x116;" horiz-adv-x="594" 
d="M322 918c33 0 61 -27 61 -61s-28 -62 -61 -62s-61 28 -61 62s28 61 61 61zM98 0v706h438v-90h-339v-215h281v-90h-281v-220h349v-91h-448z" />
    <glyph glyph-name="edotaccent" unicode="&#x117;" horiz-adv-x="568" 
d="M299 718c33 0 61 -27 61 -61s-28 -62 -61 -62s-61 28 -61 62s28 61 61 61zM295 518c145 0 229 -105 229 -235c0 -19 -2 -39 -5 -55h-373c11 -107 88 -150 175 -150c64 0 127 23 170 61v-101c-65 -44 -124 -50 -184 -50c-160 0 -263 115 -263 264s99 266 251 266zM293 431
c-75 0 -129 -47 -144 -124h279c-7 75 -59 124 -135 124z" />
    <glyph glyph-name="Eogonek" unicode="&#x118;" horiz-adv-x="594" 
d="M98 0v706h438v-90h-339v-215h281v-90h-281v-220h349v-91c-56 -42 -83 -67 -83 -98c0 -32 39 -44 68 -49l-27 -75c-68 3 -124 38 -124 99c0 52 37 92 81 123h-363z" />
    <glyph glyph-name="eogonek" unicode="&#x119;" horiz-adv-x="568" 
d="M235 -123c0 46 28 82 65 111c-156 3 -256 117 -256 264c0 149 99 266 251 266c145 0 229 -105 229 -235c0 -19 -2 -39 -5 -55h-373c11 -107 88 -150 175 -150c64 0 127 23 170 61v-101c-33 -22 -64 -35 -95 -42c-53 -39 -78 -64 -78 -94c0 -32 39 -44 68 -49l-27 -75
c-68 3 -124 38 -124 99zM293 431c-75 0 -129 -47 -144 -124h279c-7 75 -59 124 -135 124z" />
    <glyph glyph-name="Ecaron" unicode="&#x11a;" horiz-adv-x="594" 
d="M277 753l-120 182h92l71 -114l71 114h92l-120 -182h-86zM98 0v706h438v-90h-339v-215h281v-90h-281v-220h349v-91h-448z" />
    <glyph glyph-name="ecaron" unicode="&#x11b;" horiz-adv-x="568" 
d="M247 553l-120 182h92l71 -114l71 114h92l-120 -182h-86zM295 518c145 0 229 -105 229 -235c0 -19 -2 -39 -5 -55h-373c11 -107 88 -150 175 -150c64 0 127 23 170 61v-101c-65 -44 -124 -50 -184 -50c-160 0 -263 115 -263 264s99 266 251 266zM293 431
c-75 0 -129 -47 -144 -124h279c-7 75 -59 124 -135 124z" />
    <glyph glyph-name="Gcircumflex" unicode="&#x11c;" horiz-adv-x="739" 
d="M455 935l120 -182h-92l-71 114l-71 -114h-92l120 182h86zM675 376v-320c-75 -45 -168 -68 -266 -68c-209 0 -358 159 -358 367c0 215 172 363 375 363c85 0 157 -18 226 -56v-107c-72 45 -146 66 -228 66c-146 0 -273 -111 -273 -275c0 -153 102 -260 267 -260
c43 0 103 8 159 27v176h-188v87h286z" />
    <glyph glyph-name="gcircumflex" unicode="&#x11d;" horiz-adv-x="541" 
d="M292 735l120 -182h-92l-71 114l-71 -114h-92l120 182h86zM247 518c26 0 50 -4 73 -12h186v-81h-83c17 -27 26 -58 26 -92c0 -103 -89 -185 -202 -185c-18 0 -35 2 -52 6c-11 -8 -20 -19 -20 -34c0 -23 20 -36 40 -36h128c102 0 168 -60 168 -141
c0 -87 -99 -155 -252 -155c-140 0 -228 52 -228 141c0 49 38 87 85 110c-23 17 -33 41 -33 68c0 30 18 56 45 76c-50 33 -83 88 -83 150c0 103 89 185 202 185zM247 433c-60 0 -108 -45 -108 -100s48 -100 108 -100s108 45 108 100s-48 100 -108 100zM187 -2
c-22 -6 -59 -24 -59 -60c0 -40 57 -63 133 -63c100 0 155 27 155 66c0 38 -37 57 -81 57h-148z" />
    <glyph glyph-name="Gbreve" unicode="&#x11e;" horiz-adv-x="739" 
d="M462 916h74c0 -75 -53 -130 -127 -130s-127 55 -127 130h74c1 -36 21 -63 53 -63s52 27 53 63zM675 376v-320c-75 -45 -168 -68 -266 -68c-209 0 -358 159 -358 367c0 215 172 363 375 363c85 0 157 -18 226 -56v-107c-72 45 -146 66 -228 66c-146 0 -273 -111 -273 -275
c0 -153 102 -260 267 -260c43 0 103 8 159 27v176h-188v87h286z" />
    <glyph glyph-name="gbreve" unicode="&#x11f;" horiz-adv-x="541" 
d="M301 716h74c0 -75 -53 -130 -127 -130s-127 55 -127 130h74c1 -36 21 -63 53 -63s52 27 53 63zM247 518c26 0 50 -4 73 -12h186v-81h-83c17 -27 26 -58 26 -92c0 -103 -89 -185 -202 -185c-18 0 -35 2 -52 6c-11 -8 -20 -19 -20 -34c0 -23 20 -36 40 -36h128
c102 0 168 -60 168 -141c0 -87 -99 -155 -252 -155c-140 0 -228 52 -228 141c0 49 38 87 85 110c-23 17 -33 41 -33 68c0 30 18 56 45 76c-50 33 -83 88 -83 150c0 103 89 185 202 185zM247 433c-60 0 -108 -45 -108 -100s48 -100 108 -100s108 45 108 100s-48 100 -108 100
zM187 -2c-22 -6 -59 -24 -59 -60c0 -40 57 -63 133 -63c100 0 155 27 155 66c0 38 -37 57 -81 57h-148z" />
    <glyph glyph-name="Gdotaccent" unicode="&#x120;" horiz-adv-x="739" 
d="M412 918c33 0 61 -27 61 -61s-28 -62 -61 -62s-61 28 -61 62s28 61 61 61zM675 376v-320c-75 -45 -168 -68 -266 -68c-209 0 -358 159 -358 367c0 215 172 363 375 363c85 0 157 -18 226 -56v-107c-72 45 -146 66 -228 66c-146 0 -273 -111 -273 -275
c0 -153 102 -260 267 -260c43 0 103 8 159 27v176h-188v87h286z" />
    <glyph glyph-name="gdotaccent" unicode="&#x121;" horiz-adv-x="541" 
d="M258 718c33 0 61 -27 61 -61s-28 -62 -61 -62s-61 28 -61 62s28 61 61 61zM247 518c26 0 50 -4 73 -12h186v-81h-83c17 -27 26 -58 26 -92c0 -103 -89 -185 -202 -185c-18 0 -35 2 -52 6c-11 -8 -20 -19 -20 -34c0 -23 20 -36 40 -36h128c102 0 168 -60 168 -141
c0 -87 -99 -155 -252 -155c-140 0 -228 52 -228 141c0 49 38 87 85 110c-23 17 -33 41 -33 68c0 30 18 56 45 76c-50 33 -83 88 -83 150c0 103 89 185 202 185zM247 433c-60 0 -108 -45 -108 -100s48 -100 108 -100s108 45 108 100s-48 100 -108 100zM187 -2
c-22 -6 -59 -24 -59 -60c0 -40 57 -63 133 -63c100 0 155 27 155 66c0 38 -37 57 -81 57h-148z" />
    <glyph glyph-name="uni0122" unicode="&#x122;" horiz-adv-x="739" 
d="M675 376v-320c-75 -45 -168 -68 -266 -68c-209 0 -358 159 -358 367c0 215 172 363 375 363c85 0 157 -18 226 -56v-107c-72 45 -146 66 -228 66c-146 0 -273 -111 -273 -275c0 -153 102 -260 267 -260c43 0 103 8 159 27v176h-188v87h286zM368 -66h89c5 -28 7 -48 7 -72
c0 -43 -11 -71 -29 -111h-72c10 40 17 74 17 104c0 23 -1 48 -12 79z" />
    <glyph glyph-name="uni0123" unicode="&#x123;" horiz-adv-x="541" 
d="M292 572h-89c-5 28 -7 48 -7 72c0 43 11 71 29 111h72c-10 -40 -17 -74 -17 -104c0 -23 1 -48 12 -79zM247 518c26 0 50 -4 73 -12h186v-81h-83c17 -27 26 -58 26 -92c0 -103 -89 -185 -202 -185c-18 0 -35 2 -52 6c-11 -8 -20 -19 -20 -34c0 -23 20 -36 40 -36h128
c102 0 168 -60 168 -141c0 -87 -99 -155 -252 -155c-140 0 -228 52 -228 141c0 49 38 87 85 110c-23 17 -33 41 -33 68c0 30 18 56 45 76c-50 33 -83 88 -83 150c0 103 89 185 202 185zM247 433c-60 0 -108 -45 -108 -100s48 -100 108 -100s108 45 108 100s-48 100 -108 100
zM187 -2c-22 -6 -59 -24 -59 -60c0 -40 57 -63 133 -63c100 0 155 27 155 66c0 38 -37 57 -81 57h-148z" />
    <glyph glyph-name="Hcircumflex" unicode="&#x124;" horiz-adv-x="768" 
d="M427 935l120 -182h-92l-71 114l-71 -114h-92l120 182h86zM98 0v706h99v-310h374v310h99v-706h-99v310h-374v-310h-99z" />
    <glyph glyph-name="hcircumflex" unicode="&#x125;" horiz-adv-x="618" 
d="M178 935l120 -182h-92l-71 114l-71 -114h-92l120 182h86zM86 706h97v-270c29 45 80 82 162 82c112 0 196 -78 196 -212v-306h-97v302c0 84 -55 127 -119 127c-105 0 -142 -87 -142 -162v-267h-97v706z" />
    <glyph glyph-name="Hbar" unicode="&#x126;" horiz-adv-x="806" 
d="M117 0v512h-90v84h90v110h99v-110h374v110h99v-110h90v-84h-90v-512h-99v310h-374v-310h-99zM216 396h374v116h-374v-116z" />
    <glyph glyph-name="hbar" unicode="&#x127;" horiz-adv-x="618" 
d="M86 706h97v-60h162v-81h-162v-129c29 45 80 82 162 82c112 0 196 -78 196 -212v-306h-97v302c0 84 -55 127 -119 127c-105 0 -142 -87 -142 -162v-267h-97v565h-79v81h79v60z" />
    <glyph glyph-name="Itilde" unicode="&#x128;" horiz-adv-x="295" 
d="M49 776l-65 20c0 70 42 111 102 111c57 0 88 -53 121 -53c26 0 37 28 39 56l65 -20c0 -70 -48 -111 -102 -111c-57 0 -88 53 -121 53c-26 0 -37 -28 -39 -56zM98 0v706h99v-706h-99z" />
    <glyph glyph-name="itilde" unicode="&#x129;" horiz-adv-x="269" 
d="M36 576l-65 20c0 70 42 111 102 111c57 0 88 -53 121 -53c26 0 37 28 39 56l65 -20c0 -70 -48 -111 -102 -111c-57 0 -88 53 -121 53c-26 0 -37 -28 -39 -56zM86 0v506h97v-506h-97z" />
    <glyph glyph-name="Imacron" unicode="&#x12a;" horiz-adv-x="295" 
d="M13 822v70h269v-70h-269zM98 0v706h99v-706h-99z" />
    <glyph glyph-name="imacron" unicode="&#x12b;" horiz-adv-x="269" 
d="M0 622v70h269v-70h-269zM86 0v506h97v-506h-97z" />
    <glyph glyph-name="Ibreve" unicode="&#x12c;" horiz-adv-x="295" 
d="M201 916h74c0 -75 -53 -130 -127 -130s-127 55 -127 130h74c1 -36 21 -63 53 -63s52 27 53 63zM98 0v706h99v-706h-99z" />
    <glyph glyph-name="ibreve" unicode="&#x12d;" horiz-adv-x="269" 
d="M188 716h74c0 -75 -53 -130 -127 -130s-127 55 -127 130h74c1 -36 21 -63 53 -63s52 27 53 63zM86 0v506h97v-506h-97z" />
    <glyph glyph-name="Iogonek" unicode="&#x12e;" horiz-adv-x="295" 
d="M98 0v706h99v-706c-56 -42 -83 -67 -83 -98c0 -32 39 -44 68 -49l-27 -75c-68 3 -124 38 -124 99c0 52 37 92 81 123h-14z" />
    <glyph glyph-name="iogonek" unicode="&#x12f;" horiz-adv-x="269" 
d="M135 718c33 0 61 -27 61 -61s-28 -62 -61 -62s-61 28 -61 62s28 61 61 61zM86 0v506h97v-506c-56 -42 -83 -67 -83 -98c0 -32 39 -44 68 -49l-27 -75c-68 3 -124 38 -124 99c0 52 37 92 81 123h-12z" />
    <glyph glyph-name="Idotaccent" unicode="&#x130;" horiz-adv-x="295" 
d="M148 918c33 0 61 -27 61 -61s-28 -62 -61 -62s-61 28 -61 62s28 61 61 61zM98 0v706h99v-706h-99z" />
    <glyph glyph-name="dotlessi" unicode="&#x131;" horiz-adv-x="269" 
d="M86 0v506h97v-506h-97z" />
    <glyph glyph-name="IJ" unicode="&#x132;" horiz-adv-x="765" 
d="M98 0v706h99v-706h-99zM321 131c37 -32 83 -50 129 -50c81 0 126 51 126 144v481h98v-498c0 -134 -84 -220 -216 -220c-52 0 -101 14 -137 39v104z" />
    <glyph glyph-name="ij" unicode="&#x133;" horiz-adv-x="536" 
d="M402 718c33 0 61 -27 61 -61s-28 -62 -61 -62s-61 28 -61 62s28 61 61 61zM135 718c33 0 61 -27 61 -61s-28 -62 -61 -62s-61 28 -61 62s28 61 61 61zM450 506v-537c0 -123 -61 -181 -157 -181c-30 0 -46 5 -62 13v86c19 -10 38 -12 54 -12c42 0 68 31 68 92v539h97z
M86 0v506h97v-506h-97z" />
    <glyph glyph-name="Jcircumflex" unicode="&#x134;" horiz-adv-x="466" 
d="M368 935l120 -182h-92l-71 114l-71 -114h-92l120 182h86zM22 131c37 -32 83 -50 129 -50c81 0 126 51 126 144v481h98v-498c0 -134 -84 -220 -216 -220c-52 0 -101 14 -137 39v104z" />
    <glyph glyph-name="jcircumflex" unicode="&#x135;" horiz-adv-x="269" 
d="M183 735l120 -182h-92l-71 114l-71 -114h-92l120 182h86zM183 506v-537c0 -123 -61 -181 -157 -181c-30 0 -46 5 -62 13v86c19 -10 38 -12 54 -12c42 0 68 31 68 92v539h97z" />
    <glyph glyph-name="uni0136" unicode="&#x136;" horiz-adv-x="652" 
d="M197 386l299 320h125l-284 -302l322 -404h-125l-264 337l-73 -86v-251h-99v706h99v-320zM304 -66h89c5 -28 7 -48 7 -72c0 -43 -11 -71 -29 -111h-72c10 40 17 74 17 104c0 23 -1 48 -12 79z" />
    <glyph glyph-name="uni0137" unicode="&#x137;" horiz-adv-x="537" 
d="M183 0h-97v706h97v-443l212 243h116l-179 -212l197 -294h-112l-150 233l-84 -98v-135zM238 -66h89c5 -28 7 -48 7 -72c0 -43 -11 -71 -29 -111h-72c10 40 17 74 17 104c0 23 -1 48 -12 79z" />
    <glyph glyph-name="kgreenlandic" unicode="&#x138;" horiz-adv-x="536" 
d="M182 0h-96v506h96v-243l212 243h116l-179 -212l197 -294h-112l-150 233l-84 -98v-135z" />
    <glyph glyph-name="Lacute" unicode="&#x139;" horiz-adv-x="524" 
d="M112 768l95 167h116l-129 -167h-82zM98 0v706h99v-616h311v-90h-410z" />
    <glyph glyph-name="lacute" unicode="&#x13a;" horiz-adv-x="290" 
d="M96 768l95 167h116l-129 -167h-82zM80 126v580h97v-563c0 -38 9 -66 47 -66c9 0 20 1 33 6v-87c-15 -6 -30 -8 -45 -8c-67 0 -132 31 -132 138z" />
    <glyph glyph-name="uni013B" unicode="&#x13b;" horiz-adv-x="524" 
d="M98 0v706h99v-616h311v-90h-410zM258 -66h89c5 -28 7 -48 7 -72c0 -43 -11 -71 -29 -111h-72c10 40 17 74 17 104c0 23 -1 48 -12 79z" />
    <glyph glyph-name="uni013C" unicode="&#x13c;" horiz-adv-x="290" 
d="M80 126v580h97v-563c0 -38 9 -66 47 -66c9 0 20 1 33 6v-87c-15 -6 -30 -8 -45 -8c-67 0 -132 31 -132 138zM122 -66h89c5 -28 7 -48 7 -72c0 -43 -11 -71 -29 -111h-72c10 40 17 74 17 104c0 23 -1 48 -12 79z" />
    <glyph glyph-name="Lcaron" unicode="&#x13d;" horiz-adv-x="526" 
d="M98 0v706h99v-616h311v-90h-410zM301 706h89c5 -28 7 -48 7 -72c0 -43 -11 -71 -29 -111h-72c10 40 17 74 17 104c0 23 -1 48 -12 79z" />
    <glyph glyph-name="lcaron" unicode="&#x13e;" horiz-adv-x="290" 
d="M80 126v580h97v-563c0 -38 9 -66 47 -66c9 0 20 1 33 6v-87c-15 -6 -30 -8 -45 -8c-67 0 -132 31 -132 138zM222 706h89c5 -28 7 -48 7 -72c0 -43 -11 -71 -29 -111h-72c10 40 17 74 17 104c0 23 -1 48 -12 79z" />
    <glyph glyph-name="Ldot" unicode="&#x13f;" horiz-adv-x="536" 
d="M98 0v706h99v-616h311v-90h-410zM329 376c0 34 28 61 61 61s61 -27 61 -61s-28 -62 -61 -62s-61 28 -61 62z" />
    <glyph glyph-name="ldot" unicode="&#x140;" horiz-adv-x="363" 
d="M80 126v580h97v-563c0 -38 9 -66 47 -66c9 0 20 1 33 6v-87c-15 -6 -30 -8 -45 -8c-67 0 -132 31 -132 138zM249 299c0 34 28 61 61 61s61 -27 61 -61s-28 -62 -61 -62s-61 28 -61 62z" />
    <glyph glyph-name="Lslash" unicode="&#x141;" horiz-adv-x="572" 
d="M72 236l-43 75l115 66v329h99v-272l171 99l43 -75l-214 -123v-245h311v-90h-410v278z" />
    <glyph glyph-name="lslash" unicode="&#x142;" horiz-adv-x="366" 
d="M63 264l-43 75l99 57v310h97v-254l87 50l43 -75l-130 -75v-209c0 -38 9 -66 47 -66c9 0 20 1 33 6v-87c-15 -6 -30 -8 -45 -8c-67 0 -132 31 -132 138v170z" />
    <glyph glyph-name="Nacute" unicode="&#x143;" horiz-adv-x="774" 
d="M352 768l95 167h116l-129 -167h-82zM577 706h99v-706h-87l-391 530v-530h-100v706h88l391 -529v529z" />
    <glyph glyph-name="nacute" unicode="&#x144;" horiz-adv-x="618" 
d="M285 568l95 167h116l-129 -167h-82zM181 430c29 53 80 88 164 88c115 0 196 -78 196 -212v-306h-97v302c0 84 -54 127 -119 127c-105 0 -142 -97 -142 -172v-257h-97v506h95v-76z" />
    <glyph glyph-name="uni0145" unicode="&#x145;" horiz-adv-x="774" 
d="M577 706h99v-706h-87l-391 530v-530h-100v706h88l391 -529v529zM342 -66h89c5 -28 7 -48 7 -72c0 -43 -11 -71 -29 -111h-72c10 40 17 74 17 104c0 23 -1 48 -12 79z" />
    <glyph glyph-name="uni0146" unicode="&#x146;" horiz-adv-x="618" 
d="M181 430c29 53 80 88 164 88c115 0 196 -78 196 -212v-306h-97v302c0 84 -54 127 -119 127c-105 0 -142 -97 -142 -172v-257h-97v506h95v-76zM265 -66h89c5 -28 7 -48 7 -72c0 -43 -11 -71 -29 -111h-72c10 40 17 74 17 104c0 23 -1 48 -12 79z" />
    <glyph glyph-name="Ncaron" unicode="&#x147;" horiz-adv-x="774" 
d="M344 753l-120 182h92l71 -114l71 114h92l-120 -182h-86zM577 706h99v-706h-87l-391 530v-530h-100v706h88l391 -529v529z" />
    <glyph glyph-name="ncaron" unicode="&#x148;" horiz-adv-x="618" 
d="M277 553l-120 182h92l71 -114l71 114h92l-120 -182h-86zM181 430c29 53 80 88 164 88c115 0 196 -78 196 -212v-306h-97v302c0 84 -54 127 -119 127c-105 0 -142 -97 -142 -172v-257h-97v506h95v-76z" />
    <glyph glyph-name="napostrophe" unicode="&#x149;" horiz-adv-x="618" 
d="M-20 706h89c5 -28 7 -48 7 -72c0 -43 -11 -71 -29 -111h-72c10 40 17 74 17 104c0 23 -1 48 -12 79zM181 430c29 53 80 88 164 88c115 0 196 -78 196 -212v-306h-97v302c0 84 -54 127 -119 127c-105 0 -142 -97 -142 -172v-257h-97v506h95v-76z" />
    <glyph glyph-name="Eng" unicode="&#x14a;" horiz-adv-x="774" 
d="M577 706h99v-737c0 -125 -63 -181 -160 -181c-30 0 -46 5 -62 13v86c19 -10 38 -12 54 -12c42 0 68 31 68 92v51l-378 512v-530h-100v706h88l391 -529v529z" />
    <glyph glyph-name="eng" unicode="&#x14b;" horiz-adv-x="618" 
d="M181 430c29 53 80 88 164 88c115 0 196 -78 196 -212v-337c0 -125 -60 -181 -157 -181c-30 0 -46 5 -62 13v86c19 -10 38 -12 54 -12c42 0 68 31 68 92v335c0 84 -54 127 -119 127c-105 0 -142 -97 -142 -172v-257h-97v506h95v-76z" />
    <glyph glyph-name="Omacron" unicode="&#x14c;" horiz-adv-x="828" 
d="M280 822v70h269v-70h-269zM414 718c204 0 364 -157 364 -365s-160 -365 -364 -365s-364 157 -364 365s160 365 364 365zM414 621c-144 0 -262 -114 -262 -268s118 -268 262 -268s262 114 262 268s-118 268 -262 268z" />
    <glyph glyph-name="omacron" unicode="&#x14d;" horiz-adv-x="612" 
d="M172 622v70h269v-70h-269zM306 518c150 0 262 -116 262 -265s-112 -265 -262 -265s-262 116 -262 265s112 265 262 265zM306 426c-96 0 -163 -79 -163 -173s67 -173 163 -173s163 79 163 173s-67 173 -163 173z" />
    <glyph glyph-name="Obreve" unicode="&#x14e;" horiz-adv-x="828" 
d="M468 916h74c0 -75 -53 -130 -127 -130s-127 55 -127 130h74c1 -36 21 -63 53 -63s52 27 53 63zM414 718c204 0 364 -157 364 -365s-160 -365 -364 -365s-364 157 -364 365s160 365 364 365zM414 621c-144 0 -262 -114 -262 -268s118 -268 262 -268s262 114 262 268
s-118 268 -262 268z" />
    <glyph glyph-name="obreve" unicode="&#x14f;" horiz-adv-x="612" 
d="M359 716h74c0 -75 -53 -130 -127 -130s-127 55 -127 130h74c1 -36 21 -63 53 -63s52 27 53 63zM306 518c150 0 262 -116 262 -265s-112 -265 -262 -265s-262 116 -262 265s112 265 262 265zM306 426c-96 0 -163 -79 -163 -173s67 -173 163 -173s163 79 163 173
s-67 173 -163 173z" />
    <glyph glyph-name="Ohungarumlaut" unicode="&#x150;" horiz-adv-x="828" 
d="M292 758l102 177h101l-126 -177h-77zM455 758l102 177h101l-126 -177h-77zM414 718c204 0 364 -157 364 -365s-160 -365 -364 -365s-364 157 -364 365s160 365 364 365zM414 621c-144 0 -262 -114 -262 -268s118 -268 262 -268s262 114 262 268s-118 268 -262 268z" />
    <glyph glyph-name="ohungarumlaut" unicode="&#x151;" horiz-adv-x="612" 
d="M180 558l102 177h101l-126 -177h-77zM343 558l102 177h101l-126 -177h-77zM306 518c150 0 262 -116 262 -265s-112 -265 -262 -265s-262 116 -262 265s112 265 262 265zM306 426c-96 0 -163 -79 -163 -173s67 -173 163 -173s163 79 163 173s-67 173 -163 173z" />
    <glyph glyph-name="OE" unicode="&#x152;" horiz-adv-x="986" 
d="M609 91h329v-91h-426c-31 -8 -64 -12 -98 -12c-204 0 -364 157 -364 365s160 365 364 365c36 0 72 -4 105 -12h409v-90h-319v-215h261v-90h-261v-220zM510 98v511c-30 9 -62 12 -96 12c-144 0 -262 -114 -262 -268s118 -268 262 -268c34 0 66 4 96 13z" />
    <glyph glyph-name="oe" unicode="&#x153;" horiz-adv-x="998" 
d="M514 409c45 67 118 109 206 109c145 0 234 -105 234 -235c0 -18 -3 -36 -5 -55h-383c9 -96 85 -151 173 -151c64 0 135 24 179 62v-101c-65 -44 -127 -50 -187 -50c-93 0 -169 43 -216 110c-47 -67 -122 -110 -209 -110c-150 0 -262 116 -262 265s112 265 262 265
c87 0 161 -42 208 -109zM721 431c-78 0 -137 -47 -152 -124h290v1c-7 75 -64 123 -138 123zM306 426c-96 0 -163 -79 -163 -173s67 -173 163 -173s163 79 163 173s-67 173 -163 173z" />
    <glyph glyph-name="Racute" unicode="&#x154;" horiz-adv-x="655" 
d="M277 768l95 167h116l-129 -167h-82zM98 0v706h248c145 0 239 -86 239 -212c0 -93 -63 -176 -162 -200l202 -294h-117l-192 279h-119v-279h-99zM197 367h149c87 0 135 51 135 126c0 73 -48 123 -135 123h-149v-249z" />
    <glyph glyph-name="racute" unicode="&#x155;" horiz-adv-x="379" 
d="M174 568l95 167h116l-129 -167h-82zM181 506v-89c25 62 77 101 145 101c12 0 25 -2 31 -4v-95c-4 1 -14 2 -20 2c-93 0 -154 -67 -154 -170v-251h-97v506h95z" />
    <glyph glyph-name="uni0156" unicode="&#x156;" horiz-adv-x="655" 
d="M98 0v706h248c145 0 239 -86 239 -212c0 -93 -63 -176 -162 -200l202 -294h-117l-192 279h-119v-279h-99zM197 367h149c87 0 135 51 135 126c0 73 -48 123 -135 123h-149v-249zM287 -66h89c5 -28 7 -48 7 -72c0 -43 -11 -71 -29 -111h-72c10 40 17 74 17 104
c0 23 -1 48 -12 79z" />
    <glyph glyph-name="uni0157" unicode="&#x157;" horiz-adv-x="379" 
d="M181 506v-89c25 62 77 101 145 101c12 0 25 -2 31 -4v-95c-4 1 -14 2 -20 2c-93 0 -154 -67 -154 -170v-251h-97v506h95zM94 -66h89c5 -28 7 -48 7 -72c0 -43 -11 -71 -29 -111h-72c10 40 17 74 17 104c0 23 -1 48 -12 79z" />
    <glyph glyph-name="Rcaron" unicode="&#x158;" horiz-adv-x="655" 
d="M290 753l-120 182h92l71 -114l71 114h92l-120 -182h-86zM98 0v706h248c145 0 239 -86 239 -212c0 -93 -63 -176 -162 -200l202 -294h-117l-192 279h-119v-279h-99zM197 367h149c87 0 135 51 135 126c0 73 -48 123 -135 123h-149v-249z" />
    <glyph glyph-name="rcaron" unicode="&#x159;" horiz-adv-x="379" 
d="M176 553l-120 182h92l71 -114l71 114h92l-120 -182h-86zM181 506v-89c25 62 77 101 145 101c12 0 25 -2 31 -4v-95c-4 1 -14 2 -20 2c-93 0 -154 -67 -154 -170v-251h-97v506h95z" />
    <glyph glyph-name="Sacute" unicode="&#x15a;" horiz-adv-x="554" 
d="M253 768l95 167h116l-129 -167h-82zM296 718c68 0 130 -19 174 -45v-103c-49 34 -114 55 -171 55c-72 0 -131 -33 -131 -96c0 -57 47 -85 140 -124c105 -45 200 -88 200 -209c0 -127 -103 -207 -246 -207c-81 0 -155 26 -202 59v112c51 -44 126 -78 198 -78
c78 0 143 41 143 110c0 62 -54 89 -155 133c-92 39 -183 83 -183 198c0 120 98 195 233 195z" />
    <glyph glyph-name="sacute" unicode="&#x15b;" horiz-adv-x="461" 
d="M191 568l95 167h116l-129 -167h-82zM238 518c58 0 119 -18 155 -47v-100c-45 38 -94 60 -151 60c-64 0 -94 -27 -94 -61c0 -37 37 -55 105 -75c81 -23 166 -51 166 -152c0 -95 -74 -155 -189 -155c-66 0 -131 20 -178 58v108c49 -50 102 -79 171 -79c68 0 102 28 102 67
c0 41 -40 55 -113 77c-80 25 -159 55 -159 146c0 88 73 153 185 153z" />
    <glyph glyph-name="Scircumflex" unicode="&#x15c;" horiz-adv-x="554" 
d="M333 935l120 -182h-92l-71 114l-71 -114h-92l120 182h86zM296 718c68 0 130 -19 174 -45v-103c-49 34 -114 55 -171 55c-72 0 -131 -33 -131 -96c0 -57 47 -85 140 -124c105 -45 200 -88 200 -209c0 -127 -103 -207 -246 -207c-81 0 -155 26 -202 59v112
c51 -44 126 -78 198 -78c78 0 143 41 143 110c0 62 -54 89 -155 133c-92 39 -183 83 -183 198c0 120 98 195 233 195z" />
    <glyph glyph-name="scircumflex" unicode="&#x15d;" horiz-adv-x="461" 
d="M279 735l120 -182h-92l-71 114l-71 -114h-92l120 182h86zM238 518c58 0 119 -18 155 -47v-100c-45 38 -94 60 -151 60c-64 0 -94 -27 -94 -61c0 -37 37 -55 105 -75c81 -23 166 -51 166 -152c0 -95 -74 -155 -189 -155c-66 0 -131 20 -178 58v108c49 -50 102 -79 171 -79
c68 0 102 28 102 67c0 41 -40 55 -113 77c-80 25 -159 55 -159 146c0 88 73 153 185 153z" />
    <glyph glyph-name="Scedilla" unicode="&#x15e;" horiz-adv-x="554" 
d="M296 718c68 0 130 -19 174 -45v-103c-49 34 -114 55 -171 55c-72 0 -131 -33 -131 -96c0 -57 47 -85 140 -124c105 -45 200 -88 200 -209c0 -114 -83 -190 -202 -204l-14 -48c45 -8 82 -37 82 -81c0 -58 -57 -89 -118 -89c-25 0 -39 3 -52 7v62c12 -3 27 -6 47 -6
c27 0 46 10 46 29c0 20 -20 30 -50 30c-8 0 -18 -1 -22 -2l25 95c-76 3 -145 28 -190 59v112c51 -44 126 -78 198 -78c78 0 143 41 143 110c0 62 -54 89 -155 133c-92 39 -183 83 -183 198c0 120 98 195 233 195z" />
    <glyph glyph-name="scedilla" unicode="&#x15f;" horiz-adv-x="461" 
d="M238 518c58 0 119 -18 155 -47v-100c-45 38 -94 60 -151 60c-64 0 -94 -27 -94 -61c0 -37 37 -55 105 -75c81 -23 166 -51 166 -152c0 -86 -60 -143 -156 -153l-13 -46c45 -8 82 -37 82 -81c0 -58 -57 -89 -118 -89c-25 0 -39 3 -52 7v62c12 -3 27 -6 47 -6
c27 0 46 10 46 29c0 20 -20 30 -50 30c-8 0 -18 -1 -22 -2l25 95c-58 4 -114 23 -156 57v108c49 -50 102 -79 171 -79c68 0 102 28 102 67c0 41 -40 55 -113 77c-80 25 -159 55 -159 146c0 88 73 153 185 153z" />
    <glyph glyph-name="Scaron" unicode="&#x160;" horiz-adv-x="554" 
d="M247 753l-120 182h92l71 -114l71 114h92l-120 -182h-86zM296 718c68 0 130 -19 174 -45v-103c-49 34 -114 55 -171 55c-72 0 -131 -33 -131 -96c0 -57 47 -85 140 -124c105 -45 200 -88 200 -209c0 -127 -103 -207 -246 -207c-81 0 -155 26 -202 59v112
c51 -44 126 -78 198 -78c78 0 143 41 143 110c0 62 -54 89 -155 133c-92 39 -183 83 -183 198c0 120 98 195 233 195z" />
    <glyph glyph-name="scaron" unicode="&#x161;" horiz-adv-x="461" 
d="M193 553l-120 182h92l71 -114l71 114h92l-120 -182h-86zM238 518c58 0 119 -18 155 -47v-100c-45 38 -94 60 -151 60c-64 0 -94 -27 -94 -61c0 -37 37 -55 105 -75c81 -23 166 -51 166 -152c0 -95 -74 -155 -189 -155c-66 0 -131 20 -178 58v108c49 -50 102 -79 171 -79
c68 0 102 28 102 67c0 41 -40 55 -113 77c-80 25 -159 55 -159 146c0 88 73 153 185 153z" />
    <glyph glyph-name="uni0162" unicode="&#x162;" horiz-adv-x="557" 
d="M229 0v616h-212v90h523v-90h-212v-616h-24l-16 -56c45 -8 82 -37 82 -81c0 -58 -57 -89 -118 -89c-25 0 -39 3 -52 7v62c12 -3 27 -6 47 -6c27 0 46 10 46 29c0 20 -20 30 -50 30c-8 0 -18 -1 -22 -2l28 106h-20z" />
    <glyph glyph-name="uni0163" unicode="&#x163;" horiz-adv-x="374" 
d="M344 94v-89c-19 -11 -46 -17 -81 -17c-12 0 -23 1 -34 3l-13 -47c45 -8 82 -37 82 -81c0 -58 -57 -89 -118 -89c-25 0 -39 3 -52 7v62c12 -3 27 -6 47 -6c27 0 46 10 46 29c0 20 -20 30 -50 30c-8 0 -18 -1 -22 -2l30 113c-47 24 -74 73 -74 142v276h-76v81h79v119l94 30
v-149h130v-81h-130v-264c0 -57 26 -83 82 -83c11 0 36 2 60 16z" />
    <glyph glyph-name="Tcaron" unicode="&#x164;" horiz-adv-x="557" 
d="M236 753l-120 182h92l71 -114l71 114h92l-120 -182h-86zM229 0v616h-212v90h523v-90h-212v-616h-99z" />
    <glyph glyph-name="tcaron" unicode="&#x165;" horiz-adv-x="373" 
d="M256 706h89c5 -24 7 -41 7 -62c0 -39 -11 -65 -29 -101h-72c10 30 17 64 17 94c0 20 -1 42 -12 69zM343 94v-89c-19 -11 -46 -17 -81 -17c-99 0 -158 59 -158 161v276h-76v81h79v119l94 30v-149h130v-81h-130v-264c0 -57 26 -83 82 -83c11 0 36 2 60 16z" />
    <glyph glyph-name="Tbar" unicode="&#x166;" horiz-adv-x="582" 
d="M82 328v86h159v202h-212v90h523v-90h-212v-202h160v-86h-160v-328h-99v328h-159z" />
    <glyph glyph-name="tbar" unicode="&#x167;" horiz-adv-x="381" 
d="M43 253v81h66v91h-76v81h79v119l94 30v-149h130v-81h-130v-91h131v-81h-131v-92c0 -57 26 -83 82 -83c11 0 36 2 60 16v-89c-19 -11 -46 -17 -81 -17c-99 0 -158 59 -158 161v104h-66z" />
    <glyph glyph-name="Utilde" unicode="&#x168;" horiz-adv-x="726" 
d="M265 776l-65 20c0 70 42 111 102 111c57 0 88 -53 121 -53c26 0 37 28 39 56l65 -20c0 -70 -48 -111 -102 -111c-57 0 -88 53 -121 53c-26 0 -37 -28 -39 -56zM636 706v-451c0 -148 -116 -267 -273 -267c-158 0 -273 119 -273 267v451h99v-445c0 -96 71 -178 174 -178
c102 0 174 82 174 178v445h99z" />
    <glyph glyph-name="utilde" unicode="&#x169;" horiz-adv-x="618" 
d="M208 576l-65 20c0 70 42 111 102 111c57 0 88 -53 121 -53c26 0 37 28 39 56l65 -20c0 -70 -48 -111 -102 -111c-57 0 -88 53 -121 53c-26 0 -37 -28 -39 -56zM437 76c-29 -53 -80 -88 -164 -88c-115 0 -196 78 -196 212v306h97v-302c0 -84 54 -127 119 -127
c105 0 142 97 142 172v257h97v-506h-95v76z" />
    <glyph glyph-name="Umacron" unicode="&#x16a;" horiz-adv-x="726" 
d="M229 822v70h269v-70h-269zM636 706v-451c0 -148 -116 -267 -273 -267c-158 0 -273 119 -273 267v451h99v-445c0 -96 71 -178 174 -178c102 0 174 82 174 178v445h99z" />
    <glyph glyph-name="umacron" unicode="&#x16b;" horiz-adv-x="618" 
d="M172 622v70h269v-70h-269zM437 76c-29 -53 -80 -88 -164 -88c-115 0 -196 78 -196 212v306h97v-302c0 -84 54 -127 119 -127c105 0 142 97 142 172v257h97v-506h-95v76z" />
    <glyph glyph-name="Ubreve" unicode="&#x16c;" horiz-adv-x="726" 
d="M416 916h74c0 -75 -53 -130 -127 -130s-127 55 -127 130h74c1 -36 21 -63 53 -63s52 27 53 63zM636 706v-451c0 -148 -116 -267 -273 -267c-158 0 -273 119 -273 267v451h99v-445c0 -96 71 -178 174 -178c102 0 174 82 174 178v445h99z" />
    <glyph glyph-name="ubreve" unicode="&#x16d;" horiz-adv-x="618" 
d="M359 716h74c0 -75 -53 -130 -127 -130s-127 55 -127 130h74c1 -36 21 -63 53 -63s52 27 53 63zM437 76c-29 -53 -80 -88 -164 -88c-115 0 -196 78 -196 212v306h97v-302c0 -84 54 -127 119 -127c105 0 142 97 142 172v257h97v-506h-95v76z" />
    <glyph glyph-name="Uring" unicode="&#x16e;" horiz-adv-x="726" 
d="M255 868c0 60 48 108 108 108s108 -48 108 -108s-48 -108 -108 -108s-108 48 -108 108zM317 868c0 -25 21 -46 46 -46s46 21 46 46s-21 46 -46 46s-46 -21 -46 -46zM636 706v-451c0 -148 -116 -267 -273 -267c-158 0 -273 119 -273 267v451h99v-445
c0 -96 71 -178 174 -178c102 0 174 82 174 178v445h99z" />
    <glyph glyph-name="uring" unicode="&#x16f;" horiz-adv-x="618" 
d="M201 668c0 60 48 108 108 108s108 -48 108 -108s-48 -108 -108 -108s-108 48 -108 108zM263 668c0 -25 21 -46 46 -46s46 21 46 46s-21 46 -46 46s-46 -21 -46 -46zM437 76c-29 -53 -80 -88 -164 -88c-115 0 -196 78 -196 212v306h97v-302c0 -84 54 -127 119 -127
c105 0 142 97 142 172v257h97v-506h-95v76z" />
    <glyph glyph-name="Uhungarumlaut" unicode="&#x170;" horiz-adv-x="726" 
d="M238 758l102 177h101l-126 -177h-77zM401 758l102 177h101l-126 -177h-77zM636 706v-451c0 -148 -116 -267 -273 -267c-158 0 -273 119 -273 267v451h99v-445c0 -96 71 -178 174 -178c102 0 174 82 174 178v445h99z" />
    <glyph glyph-name="uhungarumlaut" unicode="&#x171;" horiz-adv-x="618" 
d="M186 558l102 177h101l-126 -177h-77zM349 558l102 177h101l-126 -177h-77zM437 76c-29 -53 -80 -88 -164 -88c-115 0 -196 78 -196 212v306h97v-302c0 -84 54 -127 119 -127c105 0 142 97 142 172v257h97v-506h-95v76z" />
    <glyph glyph-name="Uogonek" unicode="&#x172;" horiz-adv-x="726" 
d="M636 706v-451c0 -121 -77 -222 -190 -255c-56 -42 -83 -67 -83 -98c0 -32 39 -44 68 -49l-27 -75c-68 3 -124 38 -124 99c0 46 29 82 66 111c-149 9 -256 124 -256 267v451h99v-445c0 -96 71 -178 174 -178c102 0 174 82 174 178v445h99z" />
    <glyph glyph-name="uogonek" unicode="&#x173;" horiz-adv-x="618" 
d="M437 76c-29 -53 -80 -88 -164 -88c-115 0 -196 78 -196 212v306h97v-302c0 -84 54 -127 119 -127c105 0 142 97 142 172v257h97v-506c-56 -42 -83 -67 -83 -98c0 -32 39 -44 68 -49l-27 -75c-68 3 -124 38 -124 99c0 52 37 92 81 123h-10v76z" />
    <glyph glyph-name="Wcircumflex" unicode="&#x174;" horiz-adv-x="1016" 
d="M552 935l120 -182h-92l-71 114l-71 -114h-92l120 182h86zM508 558l-178 -558h-102l-213 706h103l163 -563l175 563h104l175 -563l163 563h103l-213 -706h-102z" />
    <glyph glyph-name="wcircumflex" unicode="&#x175;" horiz-adv-x="802" 
d="M444 735l120 -182h-92l-71 114l-71 -114h-92l120 182h86zM181 0l-165 506h101l115 -374l122 374h94l122 -374l115 374h101l-165 -506h-94l-126 371l-126 -371h-94z" />
    <glyph glyph-name="Ycircumflex" unicode="&#x176;" horiz-adv-x="611" 
d="M348 935l120 -182h-92l-71 114l-71 -114h-92l120 182h86zM256 0v320l-251 386h115l185 -294l186 294h115l-251 -386v-320h-99z" />
    <glyph glyph-name="ycircumflex" unicode="&#x177;" horiz-adv-x="524" 
d="M307 735l120 -182h-92l-71 114l-71 -114h-92l120 182h86zM42 -199v87c27 -17 52 -17 64 -17c44 0 70 25 91 80l21 56l-210 499h109l147 -383l143 383h105l-235 -589c-30 -76 -69 -129 -162 -129c-20 0 -45 1 -73 13z" />
    <glyph glyph-name="Ydieresis" unicode="&#x178;" horiz-adv-x="611" 
d="M197 918c33 0 61 -27 61 -61s-28 -62 -61 -62s-61 28 -61 62s28 61 61 61zM417 918c33 0 61 -27 61 -61s-28 -62 -61 -62s-61 28 -61 62s28 61 61 61zM256 0v320l-251 386h115l185 -294l186 294h115l-251 -386v-320h-99z" />
    <glyph glyph-name="Zacute" unicode="&#x179;" horiz-adv-x="564" 
d="M245 768l95 167h116l-129 -167h-82zM39 0v66l351 550h-339v90h469v-65l-351 -550h348v-91h-478z" />
    <glyph glyph-name="zacute" unicode="&#x17a;" horiz-adv-x="479" 
d="M188 568l95 167h116l-129 -167h-82zM43 0v56l260 366h-260v84h388v-56l-262 -366h271v-84h-397z" />
    <glyph glyph-name="Zdotaccent" unicode="&#x17b;" horiz-adv-x="564" 
d="M291 918c33 0 61 -27 61 -61s-28 -62 -61 -62s-61 28 -61 62s28 61 61 61zM39 0v66l351 550h-339v90h469v-65l-351 -550h348v-91h-478z" />
    <glyph glyph-name="zdotaccent" unicode="&#x17c;" horiz-adv-x="479" 
d="M241 718c33 0 61 -27 61 -61s-28 -62 -61 -62s-61 28 -61 62s28 61 61 61zM43 0v56l260 366h-260v84h388v-56l-262 -366h271v-84h-397z" />
    <glyph glyph-name="Zcaron" unicode="&#x17d;" horiz-adv-x="564" 
d="M248 753l-120 182h92l71 -114l71 114h92l-120 -182h-86zM39 0v66l351 550h-339v90h469v-65l-351 -550h348v-91h-478z" />
    <glyph glyph-name="zcaron" unicode="&#x17e;" horiz-adv-x="479" 
d="M200 553l-120 182h92l71 -114l71 114h92l-120 -182h-86zM43 0v56l260 366h-260v84h388v-56l-262 -366h271v-84h-397z" />
    <glyph glyph-name="uni018F" unicode="&#x18f;" horiz-adv-x="771" 
d="M116 642c60 45 150 76 243 76c205 0 361 -150 361 -369c0 -204 -136 -361 -346 -361c-181 0 -325 117 -325 353c0 15 1 31 2 47h565c-16 142 -118 233 -263 233c-98 0 -189 -41 -237 -102v123zM156 302c-1 -109 70 -217 220 -217c138 0 222 92 239 217h-459z" />
    <glyph glyph-name="florin" unicode="&#x192;" horiz-adv-x="556" 
d="M210 88l23 269h-79v81h86l8 94c10 118 94 186 199 186c31 0 58 -6 79 -15v-85c-10 7 -40 14 -72 14c-50 0 -104 -23 -110 -103l-8 -91h114v-81h-121l-23 -272c-10 -118 -94 -186 -199 -186c-37 0 -61 6 -79 15v85c18 -7 44 -14 72 -14c50 0 104 23 110 103z" />
    <glyph glyph-name="uni019D" unicode="&#x19d;" horiz-adv-x="774" 
d="M577 706h99v-706h-87l-391 530v-571c0 -120 -65 -171 -155 -171c-21 0 -38 4 -46 7v85c10 -3 23 -5 39 -5c39 0 62 26 62 82v749h88l391 -529v529z" />
    <glyph glyph-name="Gcaron" unicode="&#x1e6;" horiz-adv-x="739" 
d="M363 753l-120 182h92l71 -114l71 114h92l-120 -182h-86zM675 376v-320c-75 -45 -168 -68 -266 -68c-209 0 -358 159 -358 367c0 215 172 363 375 363c85 0 157 -18 226 -56v-107c-72 45 -146 66 -228 66c-146 0 -273 -111 -273 -275c0 -153 102 -260 267 -260
c43 0 103 8 159 27v176h-188v87h286z" />
    <glyph glyph-name="gcaron" unicode="&#x1e7;" horiz-adv-x="541" 
d="M200 553l-120 182h92l71 -114l71 114h92l-120 -182h-86zM247 518c26 0 50 -4 73 -12h186v-81h-83c17 -27 26 -58 26 -92c0 -103 -89 -185 -202 -185c-18 0 -35 2 -52 6c-11 -8 -20 -19 -20 -34c0 -23 20 -36 40 -36h128c102 0 168 -60 168 -141c0 -87 -99 -155 -252 -155
c-140 0 -228 52 -228 141c0 49 38 87 85 110c-23 17 -33 41 -33 68c0 30 18 56 45 76c-50 33 -83 88 -83 150c0 103 89 185 202 185zM247 433c-60 0 -108 -45 -108 -100s48 -100 108 -100s108 45 108 100s-48 100 -108 100zM187 -2c-22 -6 -59 -24 -59 -60
c0 -40 57 -63 133 -63c100 0 155 27 155 66c0 38 -37 57 -81 57h-148z" />
    <glyph glyph-name="uni01EA" unicode="&#x1ea;" horiz-adv-x="828" 
d="M414 718c204 0 364 -157 364 -365c0 -174 -113 -313 -269 -353c-56 -42 -83 -67 -83 -98c0 -32 39 -44 68 -49l-27 -75c-68 3 -124 38 -124 99c0 46 28 82 65 111c-201 3 -358 159 -358 365c0 208 160 365 364 365zM414 621c-144 0 -262 -114 -262 -268
s118 -268 262 -268s262 114 262 268s-118 268 -262 268z" />
    <glyph glyph-name="uni01EB" unicode="&#x1eb;" horiz-adv-x="612" 
d="M306 518c150 0 262 -116 262 -265c0 -121 -74 -221 -183 -253c-55 -42 -82 -67 -82 -98c0 -32 39 -44 68 -49l-27 -75c-68 3 -124 38 -124 99c0 46 29 82 66 112c-140 9 -242 122 -242 264c0 149 112 265 262 265zM306 426c-96 0 -163 -79 -163 -173s67 -173 163 -173
s163 79 163 173s-67 173 -163 173z" />
    <glyph glyph-name="Aringacute" unicode="&#x1fa;" horiz-adv-x="666" 
d="M376 1011h-82l88 152h110zM225 868c0 60 48 108 108 108s108 -48 108 -108s-48 -108 -108 -108s-108 48 -108 108zM287 868c0 -25 21 -46 46 -46s46 21 46 46s-21 46 -46 46s-46 -21 -46 -46zM7 0l274 706h104l274 -706h-102l-74 192h-300l-74 -192h-102zM215 285h236
l-118 313z" />
    <glyph glyph-name="aringacute" unicode="&#x1fb;" horiz-adv-x="542" 
d="M217 812l88 152h110l-116 -152h-82zM151 668c0 60 48 108 108 108s108 -48 108 -108s-48 -108 -108 -108s-108 48 -108 108zM213 668c0 -25 21 -46 46 -46s46 21 46 46s-21 46 -46 46s-46 -21 -46 -46zM83 468c41 28 104 50 172 50c129 0 209 -75 209 -191v-327h-90v78
c-36 -60 -95 -90 -165 -90c-94 0 -164 62 -164 146c0 90 67 140 189 157l133 19v19c0 63 -44 101 -118 101c-67 0 -128 -31 -166 -59v97zM225 70c82 0 144 68 144 139v26l-120 -15c-70 -9 -109 -36 -109 -80c0 -43 35 -70 85 -70z" />
    <glyph glyph-name="AEacute" unicode="&#x1fc;" horiz-adv-x="947" 
d="M482 768l95 167h116l-129 -167h-82zM471 0v242h-257l-124 -242h-102l361 706h540v-90h-319v-215h261v-90h-261v-220h329v-91h-428zM261 332h210v284h-64z" />
    <glyph glyph-name="aeacute" unicode="&#x1fd;" horiz-adv-x="890" 
d="M399 568l95 167h116l-129 -167h-82zM209 -12c-94 0 -164 62 -164 146c0 79 56 128 164 152l160 35v8c0 63 -46 101 -120 101c-58 0 -128 -24 -166 -59v97c47 35 114 50 172 50c81 0 148 -38 180 -96c44 67 113 96 186 96c141 0 224 -105 224 -235c0 -19 -2 -39 -5 -55
h-369c11 -107 88 -150 173 -150c62 0 126 23 168 61v-101c-64 -44 -121 -50 -180 -50c-95 0 -170 42 -215 107c-46 -70 -138 -107 -208 -107zM622 431c-76 0 -134 -47 -149 -124h278c-7 75 -57 124 -129 124zM225 70c82 0 148 68 148 139v36l-147 -32
c-61 -13 -86 -34 -86 -73c0 -41 35 -70 85 -70z" />
    <glyph glyph-name="Oslashacute" unicode="&#x1fe;" horiz-adv-x="828" 
d="M377 768l95 167h116l-129 -167h-82zM50 353c0 208 160 365 364 365c67 0 130 -17 184 -48l68 95l61 -42l-69 -96c74 -66 120 -163 120 -274c0 -208 -160 -365 -364 -365c-67 0 -129 17 -182 47l-67 -94l-62 42l68 95c-75 66 -121 163 -121 275zM230 160l310 429
c-38 21 -81 32 -126 32c-144 0 -262 -114 -262 -268c0 -78 30 -145 78 -193zM599 545l-309 -429c37 -20 79 -31 124 -31c144 0 262 114 262 268c0 77 -30 144 -77 192z" />
    <glyph glyph-name="oslashacute" unicode="&#x1ff;" horiz-adv-x="614" 
d="M344 568h-82l95 167h116zM45 253c0 149 112 265 262 265c46 0 89 -11 126 -31l57 80l57 -40l-58 -81c50 -48 80 -116 80 -193c0 -149 -112 -265 -262 -265c-46 0 -88 11 -125 30l-57 -79l-58 40l58 81c-50 47 -80 116 -80 193zM182 139l195 271c-21 10 -44 16 -70 16
c-96 0 -163 -79 -163 -173c0 -43 14 -83 38 -114zM432 366l-195 -270c21 -10 44 -16 70 -16c96 0 163 79 163 173c0 43 -14 83 -38 113z" />
    <glyph glyph-name="uni0218" unicode="&#x218;" horiz-adv-x="554" 
d="M296 718c68 0 130 -19 174 -45v-103c-49 34 -114 55 -171 55c-72 0 -131 -33 -131 -96c0 -57 47 -85 140 -124c105 -45 200 -88 200 -209c0 -127 -103 -207 -246 -207c-81 0 -155 26 -202 59v112c51 -44 126 -78 198 -78c78 0 143 41 143 110c0 62 -54 89 -155 133
c-92 39 -183 83 -183 198c0 120 98 195 233 195zM244 -66h89c5 -28 7 -48 7 -72c0 -43 -11 -71 -29 -111h-72c10 40 17 74 17 104c0 23 -1 48 -12 79z" />
    <glyph glyph-name="uni0219" unicode="&#x219;" horiz-adv-x="461" 
d="M238 518c58 0 119 -18 155 -47v-100c-45 38 -94 60 -151 60c-64 0 -94 -27 -94 -61c0 -37 37 -55 105 -75c81 -23 166 -51 166 -152c0 -95 -74 -155 -189 -155c-66 0 -131 20 -178 58v108c49 -50 102 -79 171 -79c68 0 102 28 102 67c0 41 -40 55 -113 77
c-80 25 -159 55 -159 146c0 88 73 153 185 153zM191 -66h89c5 -28 7 -48 7 -72c0 -43 -11 -71 -29 -111h-72c10 40 17 74 17 104c0 23 -1 48 -12 79z" />
    <glyph glyph-name="uni021A" unicode="&#x21a;" horiz-adv-x="557" 
d="M229 0v616h-212v90h523v-90h-212v-616h-99zM235 -66h89c5 -28 7 -48 7 -72c0 -43 -11 -71 -29 -111h-72c10 40 17 74 17 104c0 23 -1 48 -12 79z" />
    <glyph glyph-name="uni021B" unicode="&#x21b;" horiz-adv-x="373" 
d="M107 625l94 30v-149h130v-81h-130v-264c0 -57 26 -83 82 -83c11 0 36 2 60 16v-89c-19 -11 -46 -17 -81 -17c-99 0 -158 59 -158 161v276h-76v81h79v119zM169 -66h89c5 -28 7 -48 7 -72c0 -43 -11 -71 -29 -111h-72c10 40 17 74 17 104c0 23 -1 48 -12 79z" />
    <glyph glyph-name="uni0232" unicode="&#x232;" horiz-adv-x="611" 
d="M171 822v70h269v-70h-269zM256 0v320l-251 386h115l185 -294l186 294h115l-251 -386v-320h-99z" />
    <glyph glyph-name="uni0233" unicode="&#x233;" horiz-adv-x="524" 
d="M126 622v70h269v-70h-269zM42 -199v87c27 -17 52 -17 64 -17c44 0 70 25 91 80l21 56l-210 499h109l147 -383l143 383h105l-235 -589c-30 -76 -69 -129 -162 -129c-20 0 -45 1 -73 13z" />
    <glyph glyph-name="uni0237" unicode="&#x237;" horiz-adv-x="269" 
d="M183 506v-537c0 -123 -61 -181 -157 -181c-30 0 -46 5 -62 13v86c19 -10 38 -12 54 -12c42 0 68 31 68 92v539h97z" />
    <glyph glyph-name="uni0259" unicode="&#x259;" horiz-adv-x="576" 
d="M78 467c66 44 126 50 186 50c162 0 268 -115 268 -264s-104 -266 -256 -266c-145 0 -232 105 -232 235c0 19 2 39 5 55h381c-11 107 -91 150 -178 150c-64 0 -130 -23 -174 -61v101zM140 198c7 -75 61 -124 138 -124c75 0 134 47 149 124h-287z" />
    <glyph glyph-name="uni0272" unicode="&#x272;" horiz-adv-x="618" 
d="M181 430c29 53 80 88 164 88c115 0 196 -78 196 -212v-306h-97v302c0 84 -54 127 -119 127c-105 0 -142 -97 -142 -172v-298c0 -120 -62 -171 -152 -171c-21 0 -38 4 -46 7v85c10 -3 23 -5 39 -5c39 0 62 26 62 82v549h95v-76z" />
    <glyph glyph-name="circumflex" unicode="&#x2c6;" horiz-adv-x="426" 
d="M256 735l120 -182h-92l-71 114l-71 -114h-92l120 182h86z" />
    <glyph glyph-name="caron" unicode="&#x2c7;" horiz-adv-x="426" 
d="M170 553l-120 182h92l71 -114l71 114h92l-120 -182h-86z" />
    <glyph glyph-name="breve" unicode="&#x2d8;" horiz-adv-x="354" 
d="M230 716h74c0 -75 -53 -130 -127 -130s-127 55 -127 130h74c1 -36 21 -63 53 -63s52 27 53 63z" />
    <glyph glyph-name="dotaccent" unicode="&#x2d9;" horiz-adv-x="222" 
d="M111 718c33 0 61 -27 61 -61s-28 -62 -61 -62s-61 28 -61 62s28 61 61 61z" />
    <glyph glyph-name="ring" unicode="&#x2da;" horiz-adv-x="316" 
d="M50 668c0 60 48 108 108 108s108 -48 108 -108s-48 -108 -108 -108s-108 48 -108 108zM112 668c0 -25 21 -46 46 -46s46 21 46 46s-21 46 -46 46s-46 -21 -46 -46z" />
    <glyph glyph-name="ogonek" unicode="&#x2db;" horiz-adv-x="266" 
d="M50 -123c0 67 61 113 120 148l46 -25c-56 -42 -83 -67 -83 -98c0 -32 39 -44 68 -49l-27 -75c-68 3 -124 38 -124 99z" />
    <glyph glyph-name="tilde" unicode="&#x2dc;" horiz-adv-x="427" 
d="M115 576l-65 20c0 70 42 111 102 111c57 0 88 -53 121 -53c26 0 37 28 39 56l65 -20c0 -70 -48 -111 -102 -111c-57 0 -88 53 -121 53c-26 0 -37 -28 -39 -56z" />
    <glyph glyph-name="hungarumlaut" unicode="&#x2dd;" horiz-adv-x="469" 
d="M51 558l102 177h101l-126 -177h-77zM214 558l102 177h101l-126 -177h-77z" />
    <glyph glyph-name="acutecomb" unicode="&#x301;" horiz-adv-x="298" 
d="M50 568l88 152h110l-116 -152h-82z" />
    <glyph glyph-name="pi" unicode="&#x3c0;" horiz-adv-x="667" 
d="M22 506h623v-86h-99v-420h-97v420h-232v-420h-97v420h-98v86z" />
    <glyph glyph-name="Wgrave" unicode="&#x1e80;" horiz-adv-x="1016" 
d="M448 935l95 -167h-82l-129 167h116zM508 558l-178 -558h-102l-213 706h103l163 -563l175 563h104l175 -563l163 563h103l-213 -706h-102z" />
    <glyph glyph-name="wgrave" unicode="&#x1e81;" horiz-adv-x="802" 
d="M339 735l95 -167h-82l-129 167h116zM181 0l-165 506h101l115 -374l122 374h94l122 -374l115 374h101l-165 -506h-94l-126 371l-126 -371h-94z" />
    <glyph glyph-name="Wacute" unicode="&#x1e82;" horiz-adv-x="1016" 
d="M473 768l95 167h116l-129 -167h-82zM508 558l-178 -558h-102l-213 706h103l163 -563l175 563h104l175 -563l163 563h103l-213 -706h-102z" />
    <glyph glyph-name="wacute" unicode="&#x1e83;" horiz-adv-x="802" 
d="M366 568l95 167h116l-129 -167h-82zM181 0l-165 506h101l115 -374l122 374h94l122 -374l115 374h101l-165 -506h-94l-126 371l-126 -371h-94z" />
    <glyph glyph-name="Wdieresis" unicode="&#x1e84;" horiz-adv-x="1016" 
d="M399 918c33 0 61 -27 61 -61s-28 -62 -61 -62s-61 28 -61 62s28 61 61 61zM619 918c33 0 61 -27 61 -61s-28 -62 -61 -62s-61 28 -61 62s28 61 61 61zM508 558l-178 -558h-102l-213 706h103l163 -563l175 563h104l175 -563l163 563h103l-213 -706h-102z" />
    <glyph glyph-name="wdieresis" unicode="&#x1e85;" horiz-adv-x="802" 
d="M291 718c33 0 61 -27 61 -61s-28 -62 -61 -62s-61 28 -61 62s28 61 61 61zM511 718c33 0 61 -27 61 -61s-28 -62 -61 -62s-61 28 -61 62s28 61 61 61zM181 0l-165 506h101l115 -374l122 374h94l122 -374l115 374h101l-165 -506h-94l-126 371l-126 -371h-94z" />
    <glyph glyph-name="Germandbls" unicode="&#x1e9e;" horiz-adv-x="709" 
d="M326 384l179 232h-178c-80 0 -137 -56 -137 -135v-481h-99v479c0 133 97 227 233 227h300v-83l-172 -215c118 -9 206 -92 206 -209c0 -131 -110 -208 -235 -208c-48 0 -111 11 -156 44v111c49 -51 112 -67 158 -67c83 0 132 51 132 123c0 81 -63 131 -164 131
c-21 0 -49 -2 -67 -5v56z" />
    <glyph glyph-name="uni1EA0" unicode="&#x1ea0;" horiz-adv-x="666" 
d="M7 0l274 706h104l274 -706h-102l-74 192h-300l-74 -192h-102zM215 285h236l-118 313zM272 -150c0 34 28 61 61 61s61 -27 61 -61s-28 -62 -61 -62s-61 28 -61 62z" />
    <glyph glyph-name="uni1EA1" unicode="&#x1ea1;" horiz-adv-x="542" 
d="M83 468c41 28 104 50 172 50c129 0 209 -75 209 -191v-327h-90v78c-36 -60 -95 -90 -165 -90c-94 0 -164 62 -164 146c0 90 67 140 189 157l133 19v19c0 63 -44 101 -118 101c-67 0 -128 -31 -166 -59v97zM225 70c82 0 144 68 144 139v26l-120 -15
c-70 -9 -109 -36 -109 -80c0 -43 35 -70 85 -70zM191 -150c0 34 28 61 61 61s61 -27 61 -61s-28 -62 -61 -62s-61 28 -61 62z" />
    <glyph glyph-name="uni1EB8" unicode="&#x1eb8;" horiz-adv-x="594" 
d="M98 0v706h438v-90h-339v-215h281v-90h-281v-220h349v-91h-448zM281 -150c0 34 28 61 61 61s61 -27 61 -61s-28 -62 -61 -62s-61 28 -61 62z" />
    <glyph glyph-name="uni1EB9" unicode="&#x1eb9;" horiz-adv-x="568" 
d="M295 518c145 0 229 -105 229 -235c0 -19 -2 -39 -5 -55h-373c11 -107 88 -150 175 -150c64 0 127 23 170 61v-101c-65 -44 -124 -50 -184 -50c-160 0 -263 115 -263 264s99 266 251 266zM293 431c-75 0 -129 -47 -144 -124h279c-7 75 -59 124 -135 124zM239 -150
c0 34 28 61 61 61s61 -27 61 -61s-28 -62 -61 -62s-61 28 -61 62z" />
    <glyph glyph-name="uni1EBC" unicode="&#x1ebc;" horiz-adv-x="594" 
d="M216 776l-65 20c0 70 42 111 102 111c57 0 88 -53 121 -53c26 0 37 28 39 56l65 -20c0 -70 -48 -111 -102 -111c-57 0 -88 53 -121 53c-26 0 -37 -28 -39 -56zM98 0v706h438v-90h-339v-215h281v-90h-281v-220h349v-91h-448z" />
    <glyph glyph-name="uni1EBD" unicode="&#x1ebd;" horiz-adv-x="568" 
d="M191 576l-65 20c0 70 42 111 102 111c57 0 88 -53 121 -53c26 0 37 28 39 56l65 -20c0 -70 -48 -111 -102 -111c-57 0 -88 53 -121 53c-26 0 -37 -28 -39 -56zM295 518c145 0 229 -105 229 -235c0 -19 -2 -39 -5 -55h-373c11 -107 88 -150 175 -150c64 0 127 23 170 61
v-101c-65 -44 -124 -50 -184 -50c-160 0 -263 115 -263 264s99 266 251 266zM293 431c-75 0 -129 -47 -144 -124h279c-7 75 -59 124 -135 124z" />
    <glyph glyph-name="uni1ECA" unicode="&#x1eca;" horiz-adv-x="295" 
d="M98 0v706h99v-706h-99zM86 -150c0 34 28 61 61 61s61 -27 61 -61s-28 -62 -61 -62s-61 28 -61 62z" />
    <glyph glyph-name="uni1ECB" unicode="&#x1ecb;" horiz-adv-x="269" 
d="M135 718c33 0 61 -27 61 -61s-28 -62 -61 -62s-61 28 -61 62s28 61 61 61zM86 0v506h97v-506h-97zM74 -149c0 34 28 61 61 61s61 -27 61 -61s-28 -62 -61 -62s-61 28 -61 62z" />
    <glyph glyph-name="uni1ECC" unicode="&#x1ecc;" horiz-adv-x="828" 
d="M414 718c204 0 364 -157 364 -365s-160 -365 -364 -365s-364 157 -364 365s160 365 364 365zM414 621c-144 0 -262 -114 -262 -268s118 -268 262 -268s262 114 262 268s-118 268 -262 268zM353 -150c0 34 28 61 61 61s61 -27 61 -61s-28 -62 -61 -62s-61 28 -61 62z" />
    <glyph glyph-name="uni1ECD" unicode="&#x1ecd;" horiz-adv-x="612" 
d="M306 518c150 0 262 -116 262 -265s-112 -265 -262 -265s-262 116 -262 265s112 265 262 265zM306 426c-96 0 -163 -79 -163 -173s67 -173 163 -173s163 79 163 173s-67 173 -163 173zM245 -150c0 34 28 61 61 61s61 -27 61 -61s-28 -62 -61 -62s-61 28 -61 62z" />
    <glyph glyph-name="uni1EE4" unicode="&#x1ee4;" horiz-adv-x="726" 
d="M636 706v-451c0 -148 -116 -267 -273 -267c-158 0 -273 119 -273 267v451h99v-445c0 -96 71 -178 174 -178c102 0 174 82 174 178v445h99zM301 -150c0 34 28 61 61 61s61 -27 61 -61s-28 -62 -61 -62s-61 28 -61 62z" />
    <glyph glyph-name="uni1EE5" unicode="&#x1ee5;" horiz-adv-x="618" 
d="M437 76c-29 -53 -80 -88 -164 -88c-115 0 -196 78 -196 212v306h97v-302c0 -84 54 -127 119 -127c105 0 142 97 142 172v257h97v-506h-95v76zM241 -150c0 34 28 61 61 61s61 -27 61 -61s-28 -62 -61 -62s-61 28 -61 62z" />
    <glyph glyph-name="Ygrave" unicode="&#x1ef2;" horiz-adv-x="611" 
d="M244 935l95 -167h-82l-129 167h116zM256 0v320l-251 386h115l185 -294l186 294h115l-251 -386v-320h-99z" />
    <glyph glyph-name="ygrave" unicode="&#x1ef3;" horiz-adv-x="524" 
d="M203 735l95 -167h-82l-129 167h116zM42 -199v87c27 -17 52 -17 64 -17c44 0 70 25 91 80l21 56l-210 499h109l147 -383l143 383h105l-235 -589c-30 -76 -69 -129 -162 -129c-20 0 -45 1 -73 13z" />
    <glyph glyph-name="uni1EF8" unicode="&#x1ef8;" horiz-adv-x="611" 
d="M207 776l-65 20c0 70 42 111 102 111c57 0 88 -53 121 -53c26 0 37 28 39 56l65 -20c0 -70 -48 -111 -102 -111c-57 0 -88 53 -121 53c-26 0 -37 -28 -39 -56zM256 0v320l-251 386h115l185 -294l186 294h115l-251 -386v-320h-99z" />
    <glyph glyph-name="uni1EF9" unicode="&#x1ef9;" horiz-adv-x="524" 
d="M162 576l-65 20c0 70 42 111 102 111c57 0 88 -53 121 -53c26 0 37 28 39 56l65 -20c0 -70 -48 -111 -102 -111c-57 0 -88 53 -121 53c-26 0 -37 -28 -39 -56zM42 -199v87c27 -17 52 -17 64 -17c44 0 70 25 91 80l21 56l-210 499h109l147 -383l143 383h105l-235 -589
c-30 -76 -69 -129 -162 -129c-20 0 -45 1 -73 13z" />
    <glyph glyph-name="endash" unicode="&#x2013;" horiz-adv-x="678" 
d="M609 229h-540v84h540v-84z" />
    <glyph glyph-name="emdash" unicode="&#x2014;" horiz-adv-x="858" 
d="M789 229h-720v84h720v-84z" />
    <glyph glyph-name="quoteleft" unicode="&#x2018;" horiz-adv-x="217" 
d="M163 773l-41 -112c22 -8 44 -31 44 -59c0 -35 -26 -61 -61 -61s-61 26 -61 61c0 10 3 20 8 31l62 140h49z" />
    <glyph glyph-name="quoteright" unicode="&#x2019;" horiz-adv-x="217" 
d="M60 541l41 112c-22 8 -44 31 -44 59c0 35 26 61 61 61s61 -26 61 -61c0 -10 -3 -20 -8 -31l-62 -140h-49z" />
    <glyph glyph-name="quotesinglbase" unicode="&#x201a;" horiz-adv-x="238" 
d="M61 -121l41 112c-22 8 -44 31 -44 59c0 35 26 61 61 61s61 -26 61 -61c0 -10 -3 -20 -8 -31l-62 -140h-49z" />
    <glyph glyph-name="quotedblleft" unicode="&#x201c;" horiz-adv-x="393" 
d="M339 773l-41 -112c22 -8 44 -31 44 -59c0 -35 -26 -61 -61 -61s-61 26 -61 61c0 10 3 20 8 31l62 140h49zM163 773l-41 -112c22 -8 44 -31 44 -59c0 -35 -26 -61 -61 -61s-61 26 -61 61c0 10 3 20 8 31l62 140h49z" />
    <glyph glyph-name="quotedblright" unicode="&#x201d;" horiz-adv-x="393" 
d="M60 541l41 112c-22 8 -44 31 -44 59c0 35 26 61 61 61s61 -26 61 -61c0 -10 -3 -20 -8 -31l-62 -140h-49zM236 541l41 112c-22 8 -44 31 -44 59c0 35 26 61 61 61s61 -26 61 -61c0 -10 -3 -20 -8 -31l-62 -140h-49z" />
    <glyph glyph-name="quotedblbase" unicode="&#x201e;" horiz-adv-x="414" 
d="M61 -121l41 112c-22 8 -44 31 -44 59c0 35 26 61 61 61s61 -26 61 -61c0 -10 -3 -20 -8 -31l-62 -140h-49zM237 -121l41 112c-22 8 -44 31 -44 59c0 35 26 61 61 61s61 -26 61 -61c0 -10 -3 -20 -8 -31l-62 -140h-49z" />
    <glyph glyph-name="dagger" unicode="&#x2020;" horiz-adv-x="484" 
d="M285 515h169v-84h-169v-531h-87v531h-167v84h167v191h87v-191z" />
    <glyph glyph-name="daggerdbl" unicode="&#x2021;" horiz-adv-x="521" 
d="M49 451v84h167v171h87v-171h169v-84h-169v-269h164v-84h-164v-198h-87v198h-162v84h162v269h-167z" />
    <glyph glyph-name="bullet" unicode="&#x2022;" horiz-adv-x="380" 
d="M190 411c58 0 107 -47 107 -107c0 -59 -49 -108 -107 -108s-107 49 -107 108c0 60 49 107 107 107z" />
    <glyph glyph-name="ellipsis" unicode="&#x2026;" horiz-adv-x="638" 
d="M55 50c0 34 28 61 61 61s61 -27 61 -61s-28 -62 -61 -62s-61 28 -61 62zM258 50c0 34 28 61 61 61s61 -27 61 -61s-28 -62 -61 -62s-61 28 -61 62zM461 50c0 34 28 61 61 61s61 -27 61 -61s-28 -62 -61 -62s-61 28 -61 62z" />
    <glyph glyph-name="perthousand" unicode="&#x2030;" horiz-adv-x="1179" 
d="M367 552c0 -94 -74 -164 -166 -164s-167 70 -167 164c0 93 75 165 167 165s166 -72 166 -165zM95 0l516 706h88l-516 -706h-88zM286 552c0 49 -38 87 -85 87c-48 0 -86 -38 -86 -87s38 -86 86 -86c47 0 85 37 85 86zM758 152c0 -94 -74 -164 -166 -164s-167 70 -167 164
c0 93 75 165 167 165s166 -72 166 -165zM1148 152c0 -94 -74 -164 -166 -164s-167 70 -167 164c0 93 75 165 167 165s166 -72 166 -165zM677 152c0 49 -38 87 -85 87c-48 0 -86 -38 -86 -87s38 -86 86 -86c47 0 85 37 85 86zM1067 152c0 49 -38 87 -85 87
c-48 0 -86 -38 -86 -87s38 -86 86 -86c47 0 85 37 85 86z" />
    <glyph glyph-name="guilsinglleft" unicode="&#x2039;" horiz-adv-x="321" 
d="M168 449h98l-121 -196l121 -195h-98l-121 195z" />
    <glyph glyph-name="guilsinglright" unicode="&#x203a;" horiz-adv-x="321" 
d="M153 58h-98l121 196l-121 195h98l121 -195z" />
    <glyph glyph-name="fraction" unicode="&#x2044;" horiz-adv-x="170" 
d="M-215 0l516 706h88l-516 -706h-88z" />
    <glyph glyph-name="uni2070" unicode="&#x2070;" horiz-adv-x="386" 
d="M193 306c-132 0 -160 128 -160 206c0 79 27 206 160 206s161 -127 161 -206c0 -78 -29 -206 -161 -206zM111 512c0 -51 16 -135 82 -135c67 0 83 83 83 135s-15 135 -83 135s-82 -83 -82 -135z" />
    <glyph glyph-name="uni2074" unicode="&#x2074;" horiz-adv-x="355" 
d="M15 398v47l192 261h63v-240h58v-68h-58v-80h-75v80h-180zM196 575l-80 -110h80v110z" />
    <glyph glyph-name="uni2075" unicode="&#x2075;" horiz-adv-x="329" 
d="M280 706v-70h-159l-6 -65c11 4 27 5 41 5c73 0 142 -50 142 -133c0 -84 -55 -137 -154 -137c-45 0 -82 14 -111 38v84c29 -33 69 -51 109 -51c47 0 77 26 77 65s-33 68 -86 68c-34 0 -63 -11 -81 -23l-9 5l22 214h215z" />
    <glyph glyph-name="uni2076" unicode="&#x2076;" horiz-adv-x="344" 
d="M175 306c-89 0 -147 67 -147 138c0 49 28 88 55 127l93 135h91l-86 -126h1c85 -2 138 -68 138 -137c0 -71 -57 -137 -145 -137zM175 377c36 0 66 31 66 66c0 37 -29 66 -66 66c-39 0 -68 -25 -68 -66c0 -36 31 -66 68 -66z" />
    <glyph glyph-name="uni2077" unicode="&#x2077;" horiz-adv-x="315" 
d="M36 318l170 318h-184v70h281v-44l-181 -344h-86z" />
    <glyph glyph-name="uni2078" unicode="&#x2078;" horiz-adv-x="352" 
d="M176 718c72 0 132 -47 132 -114c0 -30 -16 -58 -40 -79c32 -22 52 -57 52 -94c0 -74 -63 -125 -144 -125s-144 52 -144 125c0 37 22 72 52 94c-23 21 -38 50 -38 79c0 66 57 114 130 114zM176 648c-28 0 -53 -21 -53 -45c0 -25 23 -45 53 -45s54 20 54 45s-25 45 -54 45z
M176 486c-36 0 -67 -24 -67 -55s31 -56 67 -56c39 0 66 23 66 56c0 31 -28 55 -66 55z" />
    <glyph glyph-name="uni2079" unicode="&#x2079;" horiz-adv-x="344" 
d="M169 718c89 0 147 -67 147 -138c0 -49 -28 -88 -55 -127l-93 -135h-91l86 126h-1c-85 2 -138 68 -138 137c0 71 57 137 145 137zM169 647c-36 0 -66 -31 -66 -66c0 -37 29 -66 66 -66c40 0 68 26 68 66c0 36 -31 66 -68 66z" />
    <glyph glyph-name="uni2080" unicode="&#x2080;" horiz-adv-x="386" 
d="M193 -12c-132 0 -160 128 -160 206c0 79 27 206 160 206s161 -127 161 -206c0 -78 -29 -206 -161 -206zM111 194c0 -51 16 -135 82 -135c67 0 83 83 83 135s-15 135 -83 135s-82 -83 -82 -135z" />
    <glyph glyph-name="uni2081" unicode="&#x2081;" horiz-adv-x="302" 
d="M124 0v294l-85 -47v81l98 60h64v-388h-77z" />
    <glyph glyph-name="uni2082" unicode="&#x2082;" horiz-adv-x="331" 
d="M183 218c25 27 31 41 31 65c0 29 -28 48 -67 48c-31 0 -73 -14 -103 -48v82c22 20 61 35 103 35c84 0 145 -49 145 -116c0 -36 -14 -64 -52 -103l-107 -111h167v-70h-273v53z" />
    <glyph glyph-name="uni2083" unicode="&#x2083;" horiz-adv-x="332" 
d="M45 283v81c25 22 64 36 108 36c78 0 136 -46 136 -109c0 -39 -20 -73 -55 -88c38 -14 66 -53 66 -99c0 -69 -60 -116 -147 -116c-49 0 -88 13 -119 38v86c26 -31 69 -55 115 -55c48 0 74 23 74 55s-31 53 -89 53h-40v65h29c61 0 89 21 89 51c0 27 -22 50 -65 50
c-41 0 -75 -18 -102 -48z" />
    <glyph glyph-name="uni2084" unicode="&#x2084;" horiz-adv-x="357" 
d="M16 80v47l192 261h63v-240h58v-68h-58v-80h-75v80h-180zM197 257l-80 -110h80v110z" />
    <glyph glyph-name="uni2085" unicode="&#x2085;" horiz-adv-x="330" 
d="M281 388v-70h-159l-6 -65c11 4 27 5 41 5c73 0 142 -50 142 -133c0 -84 -55 -137 -154 -137c-45 0 -82 14 -111 38v84c29 -33 69 -51 109 -51c47 0 77 26 77 65s-33 68 -86 68c-34 0 -63 -11 -81 -23l-9 5l22 214h215z" />
    <glyph glyph-name="uni2086" unicode="&#x2086;" horiz-adv-x="344" 
d="M175 -12c-89 0 -147 67 -147 138c0 49 28 88 55 127l93 135h91l-86 -126h1c85 -2 138 -68 138 -137c0 -71 -57 -137 -145 -137zM175 59c36 0 66 31 66 66c0 37 -29 66 -66 66c-39 0 -68 -25 -68 -66c0 -36 31 -66 68 -66z" />
    <glyph glyph-name="uni2087" unicode="&#x2087;" horiz-adv-x="315" 
d="M36 0l170 318h-184v70h281v-44l-181 -344h-86z" />
    <glyph glyph-name="uni2088" unicode="&#x2088;" horiz-adv-x="351" 
d="M175 400c72 0 132 -47 132 -114c0 -30 -16 -58 -40 -79c32 -22 52 -57 52 -94c0 -74 -63 -125 -144 -125s-144 52 -144 125c0 37 22 72 52 94c-23 21 -38 50 -38 79c0 66 57 114 130 114zM175 330c-28 0 -53 -21 -53 -45c0 -25 23 -45 53 -45s54 20 54 45s-25 45 -54 45z
M175 168c-36 0 -67 -24 -67 -55s31 -56 67 -56c39 0 66 23 66 56c0 31 -28 55 -66 55z" />
    <glyph glyph-name="uni2089" unicode="&#x2089;" horiz-adv-x="343" 
d="M168 400c89 0 147 -67 147 -138c0 -49 -28 -88 -55 -127l-93 -135h-91l86 126h-1c-85 2 -138 68 -138 137c0 71 57 137 145 137zM168 329c-36 0 -66 -31 -66 -66c0 -37 29 -66 66 -66c40 0 68 26 68 66c0 36 -31 66 -68 66z" />
    <glyph glyph-name="Euro" unicode="&#x20ac;" horiz-adv-x="651" 
d="M494 237h-245c44 -98 143 -152 251 -152c32 0 63 4 94 17v-100c-36 -10 -74 -14 -106 -14c-164 0 -299 101 -346 249h-91v83h74c-1 11 -1 22 -1 33c0 10 0 19 1 29h-74v83h89c45 152 180 253 339 253c37 0 76 -4 115 -15v-101c-37 15 -73 19 -104 19
c-111 0 -201 -63 -241 -156h246v-83h-268c-1 -10 -1 -19 -1 -29c0 -11 1 -22 2 -33h266v-83z" />
    <glyph glyph-name="trademark" unicode="&#x2122;" horiz-adv-x="628" 
d="M117 457v196h-76v53h206v-53h-76v-196h-54zM436 523h-40l-60 113v-179h-54v249h76l58 -112l59 112h76v-249h-56v179z" />
    <glyph glyph-name="estimated" unicode="&#x212e;" horiz-adv-x="885" 
d="M849 338v-11h-640c-4 0 -5 -2 -5 -4v-184c0 -8 3 -15 8 -24c63 -59 149 -89 244 -89c101 0 193 35 253 101h59c-69 -83 -182 -139 -313 -139c-224 0 -395 158 -395 355c0 199 177 357 395 357s394 -165 394 -362zM704 367v183c0 10 -3 16 -8 24c-61 58 -148 89 -240 89
c-96 0 -180 -30 -242 -89c-7 -9 -10 -16 -10 -27v-180c0 -4 1 -6 5 -6h492c2 0 3 2 3 6z" />
    <glyph glyph-name="onethird" unicode="&#x2153;" horiz-adv-x="848" 
d="M127 0l516 706h88l-516 -706h-88zM157 318v294l-85 -47v81l98 60h64v-388h-77zM551 283v81c25 22 64 36 108 36c78 0 137 -46 137 -109c0 -39 -21 -73 -56 -88c38 -14 66 -53 66 -99c0 -69 -60 -116 -147 -116c-49 0 -88 13 -119 38v86c26 -31 69 -55 115 -55
c48 0 74 23 74 55s-30 53 -88 53h-41v65h29c61 0 90 21 90 51c0 27 -23 50 -66 50c-41 0 -75 -18 -102 -48z" />
    <glyph glyph-name="twothirds" unicode="&#x2154;" horiz-adv-x="858" 
d="M40 371l156 165c25 27 31 41 31 65c0 29 -27 48 -66 48c-31 0 -74 -14 -104 -48v82c22 20 62 35 104 35c84 0 145 -49 145 -116c0 -36 -14 -64 -52 -103l-107 -111h166v-70h-273v53zM224 0h-88l516 706h88zM562 283v81c25 22 64 36 108 36c78 0 136 -46 136 -109
c0 -39 -20 -73 -55 -88c38 -14 66 -53 66 -99c0 -69 -60 -116 -147 -116c-49 0 -88 13 -119 38v86c26 -31 69 -55 115 -55c48 0 74 23 74 55s-31 53 -89 53h-40v65h29c61 0 89 21 89 51c0 27 -22 50 -65 50c-41 0 -75 -18 -102 -48z" />
    <glyph glyph-name="arrowleft" unicode="&#x2190;" horiz-adv-x="789" 
d="M340 576l-151 -183h539v-80h-539l151 -183h-103l-182 223l182 223h103z" />
    <glyph glyph-name="arrowup" unicode="&#x2191;" horiz-adv-x="528" 
d="M224 556l-183 -151v103l223 182l223 -182v-103l-183 151v-539h-80v539z" />
    <glyph glyph-name="arrowright" unicode="&#x2192;" horiz-adv-x="789" 
d="M449 130l151 183h-539v80h539l-151 183h103l182 -223l-182 -223h-103z" />
    <glyph glyph-name="arrowdown" unicode="&#x2193;" horiz-adv-x="528" 
d="M304 150l183 151v-103l-223 -182l-223 182v103l183 -151v539h80v-539z" />
    <glyph glyph-name="arrowboth" unicode="&#x2194;" horiz-adv-x="976" 
d="M340 576l-151 -183h599l-152 183h103l182 -223l-182 -223h-103l152 183h-599l151 -183h-103l-182 223l182 223h103z" />
    <glyph glyph-name="arrowupdn" unicode="&#x2195;" horiz-adv-x="528" 
d="M41 205l183 -151v599l-183 -152v103l223 182l223 -182v-103l-183 152v-599l183 151v-103l-223 -182l-223 182v103z" />
    <glyph glyph-name="uni219E" unicode="&#x219e;" horiz-adv-x="955" 
d="M556 576l-151 -183h489v-80h-489l151 -183h-103l-182 223l182 223h103zM340 576l-185 -223l185 -223h-103l-182 223l182 223h103z" />
    <glyph glyph-name="uni219F" unicode="&#x219f;" horiz-adv-x="528" 
d="M487 493l-223 185l-223 -185v103l223 182l223 -182v-103zM487 277l-183 151v-489h-80v489l-183 -151v103l223 182l223 -182v-103z" />
    <glyph glyph-name="uni21A0" unicode="&#x21a0;" horiz-adv-x="955" 
d="M399 130l151 183h-489v80h489l-151 183h103l182 -223l-182 -223h-103zM615 130l185 223l-185 223h103l182 -223l-182 -223h-103z" />
    <glyph glyph-name="uni21A1" unicode="&#x21a1;" horiz-adv-x="528" 
d="M41 429l183 -151v489h80v-489l183 151v-103l-223 -182l-223 182v103zM41 213l223 -185l223 185v-103l-223 -182l-223 182v103z" />
    <glyph glyph-name="uni21B4" unicode="&#x21b4;" horiz-adv-x="629" 
d="M474 238l22 236l73 -73l-29 -286l-286 -29l-73 73l236 23l-381 381l57 56z" />
    <glyph glyph-name="uni21BA" unicode="&#x21ba;" horiz-adv-x="652" 
d="M318 507h-60l101 -122h-97l-130 160l131 160h97l-102 -122h60c156 0 281 -128 281 -282c0 -155 -124 -280 -279 -280c-154 0 -279 126 -279 282h82c0 -114 88 -206 197 -206s197 91 197 204s-89 206 -199 206z" />
    <glyph glyph-name="uni21BB" unicode="&#x21bb;" horiz-adv-x="652" 
d="M394 518h-60c-110 0 -199 -93 -199 -206s88 -204 197 -204s197 92 197 206h82c0 -156 -125 -282 -279 -282c-155 0 -279 125 -279 280c0 154 125 282 281 282h60l-102 122h97l131 -160l-130 -160h-97z" />
    <glyph glyph-name="uni21BC" unicode="&#x21bc;" horiz-adv-x="822" 
d="M373 576l-151 -183h539v-80h-706l215 263h103z" />
    <glyph glyph-name="uni21BD" unicode="&#x21bd;" horiz-adv-x="822" 
d="M222 313l151 -183h-103l-215 263h706v-80h-539z" />
    <glyph glyph-name="uni21BE" unicode="&#x21be;" horiz-adv-x="375" 
d="M334 394l-183 151v-539h-80v706l263 -215v-103z" />
    <glyph glyph-name="uni21BF" unicode="&#x21bf;" horiz-adv-x="375" 
d="M224 545l-183 -151v103l263 215v-706h-80v539z" />
    <glyph glyph-name="uni21C0" unicode="&#x21c0;" horiz-adv-x="822" 
d="M600 393l-151 183h103l215 -263h-706v80h539z" />
    <glyph glyph-name="uni21C1" unicode="&#x21c1;" horiz-adv-x="822" 
d="M767 393l-215 -263h-103l151 183h-539v80h706z" />
    <glyph glyph-name="uni21C2" unicode="&#x21c2;" horiz-adv-x="375" 
d="M151 161l183 151v-103l-263 -215v706h80v-539z" />
    <glyph glyph-name="uni21C3" unicode="&#x21c3;" horiz-adv-x="375" 
d="M41 312l183 -151v539h80v-706l-263 215v103z" />
    <glyph glyph-name="uni21C4" unicode="&#x21c4;" horiz-adv-x="832" 
d="M492 330l152 183h-559v80h559l-152 183h104l181 -223l-181 -223h-104zM340 376l-152 -183h559v-80h-559l152 -183h-104l-181 223l181 223h104z" />
    <glyph glyph-name="uni21C5" unicode="&#x21c5;" horiz-adv-x="928" 
d="M487 423l-183 152v-559h-80v559l-183 -152v104l223 181l223 -181v-104zM441 271l183 -152v559h80v-559l183 152v-104l-223 -181l-223 181v104z" />
    <glyph glyph-name="uni21C6" unicode="&#x21c6;" horiz-adv-x="832" 
d="M188 513l152 -183h-104l-181 223l181 223h104l-152 -183h559v-80h-559zM644 193l-152 183h104l181 -223l-181 -223h-104l152 183h-559v80h559z" />
    <glyph glyph-name="uni21C7" unicode="&#x21c7;" horiz-adv-x="808" 
d="M188 513l133 -160l-133 -160h559v-80h-559l152 -183h-104l-181 223l164 200l-164 200l181 223h104l-152 -183h559v-80h-559z" />
    <glyph glyph-name="uni21C8" unicode="&#x21c8;" horiz-adv-x="928" 
d="M624 567l-160 -133l-160 133v-559h-80v559l-183 -152v104l223 181l200 -164l200 164l223 -181v-104l-183 152v-559h-80v559z" />
    <glyph glyph-name="uni21C9" unicode="&#x21c9;" horiz-adv-x="808" 
d="M620 193l-133 160l133 160h-559v80h559l-152 183h104l181 -223l-164 -200l164 -200l-181 -223h-104l152 183h-559v80h559z" />
    <glyph glyph-name="uni21CA" unicode="&#x21ca;" horiz-adv-x="928" 
d="M304 139l160 133l160 -133v559h80v-559l183 152v-104l-223 -181l-200 164l-200 -164l-223 181v104l183 -152v559h80v-559z" />
    <glyph glyph-name="uni21CB" unicode="&#x21cb;" horiz-adv-x="832" 
d="M373 666l-151 -183h539v-80h-706l215 263h103zM777 303l-215 -263h-103l151 183h-539v80h706z" />
    <glyph glyph-name="uni21CC" unicode="&#x21cc;" horiz-adv-x="832" 
d="M562 666l215 -263h-706v80h539l-151 183h103zM222 223l151 -183h-103l-215 263h706v-80h-539z" />
    <glyph glyph-name="uni21CD" unicode="&#x21cd;" horiz-adv-x="799" 
d="M340 576l-81 -99h280l45 99h79l-44 -99h119v-72h-152l-46 -104h198v-72h-231l-44 -99h-80l45 99h-169l81 -99h-103l-182 223l182 223h103zM200 301h260l47 104h-307l-43 -52z" />
    <glyph glyph-name="uni21CE" unicode="&#x21ce;" horiz-adv-x="995" 
d="M340 576l-81 -99h256l45 99h79l-44 -99h142l-82 99h104l181 -223l-181 -223h-104l82 99h-254l-44 -99h-80l45 99h-145l81 -99h-103l-182 223l182 223h103zM200 301h236l47 104h-283l-43 -52zM516 301h280l43 52l-43 52h-234z" />
    <glyph glyph-name="uni21CF" unicode="&#x21cf;" horiz-adv-x="799" 
d="M459 130l81 99h-280l-45 -99h-79l44 99h-119v72h152l46 104h-198v72h231l44 99h80l-45 -99h169l-81 99h103l182 -223l-182 -223h-103zM292 301h307l43 52l-43 52h-260z" />
    <glyph glyph-name="arrowdblleft" unicode="&#x21d0;" horiz-adv-x="799" 
d="M340 576l-81 -99h479v-72h-538l-43 -52l43 -52h538v-72h-479l81 -99h-103l-182 223l182 223h103z" />
    <glyph glyph-name="arrowdblup" unicode="&#x21d1;" horiz-adv-x="528" 
d="M487 410l-99 81v-479h-72v538l-52 43l-52 -43v-538h-72v479l-99 -81v103l223 182l223 -182v-103z" />
    <glyph glyph-name="arrowdblright" unicode="&#x21d2;" horiz-adv-x="799" 
d="M459 130l81 99h-479v72h538l43 52l-43 52h-538v72h479l-81 99h103l182 -223l-182 -223h-103z" />
    <glyph glyph-name="arrowdbldown" unicode="&#x21d3;" horiz-adv-x="528" 
d="M41 296l99 -81v479h72v-538l52 -43l52 43v538h72v-479l99 81v-103l-223 -182l-223 182v103z" />
    <glyph glyph-name="arrowdblboth" unicode="&#x21d4;" horiz-adv-x="995" 
d="M340 576l-81 -99h478l-82 99h104l181 -223l-181 -223h-104l82 99h-478l81 -99h-103l-182 223l182 223h103zM200 301h596l43 52l-43 52h-596l-43 -52z" />
    <glyph glyph-name="uni21D5" unicode="&#x21d5;" horiz-adv-x="528" 
d="M41 195l99 -81v478l-99 -82v104l223 181l223 -181v-104l-99 82v-478l99 81v-103l-223 -182l-223 182v103zM212 55l52 -43l52 43v596l-52 43l-52 -43v-596z" />
    <glyph glyph-name="uni21D6" unicode="&#x21d6;" horiz-adv-x="696" 
d="M448 580l-127 -12l339 -339l-51 -51l-381 381l-67 -7l-6 -67l380 -380l-51 -51l-339 338l-12 -127l-73 73l29 286l286 29z" />
    <glyph glyph-name="uni21D7" unicode="&#x21d7;" horiz-adv-x="695" 
d="M562 265l-12 127l-339 -339l-51 51l381 381l-7 67l-67 6l-380 -380l-51 51l338 339l-127 12l73 73l286 -29l29 -286z" />
    <glyph glyph-name="uni21D8" unicode="&#x21d8;" horiz-adv-x="695" 
d="M272 126l127 12l-339 339l51 51l381 -381l67 7l6 67l-380 381l51 50l339 -338l12 127l73 -73l-29 -286l-286 -29z" />
    <glyph glyph-name="uni21D9" unicode="&#x21d9;" horiz-adv-x="695" 
d="M108 441l12 -127l339 339l51 -51l-381 -381l7 -67l67 -6l381 380l50 -51l-338 -339l127 -12l-73 -73l-286 29l-29 286z" />
    <glyph glyph-name="uni21E0" unicode="&#x21e0;" horiz-adv-x="830" 
d="M340 576l-151 -183h151v-80h-151l151 -183h-103l-182 223l182 223h103zM408 313v80h146v-80h-146zM622 313v80h147v-80h-147z" />
    <glyph glyph-name="uni21E1" unicode="&#x21e1;" horiz-adv-x="528" 
d="M487 425l-183 151v-151h-80v151l-183 -151v103l223 182l223 -182v-103zM224 357h80v-146h-80v146zM224 143h80v-147h-80v147z" />
    <glyph glyph-name="uni21E2" unicode="&#x21e2;" horiz-adv-x="830" 
d="M490 130l151 183h-151v80h151l-151 183h103l182 -223l-182 -223h-103zM422 393v-80h-146v80h146zM208 393v-80h-147v80h147z" />
    <glyph glyph-name="uni21E3" unicode="&#x21e3;" horiz-adv-x="528" 
d="M304 563h-80v147h80v-147zM304 349h-80v146h80v-146zM41 281l183 -151v151h80v-151l183 151v-103l-223 -182l-223 182v103z" />
    <glyph glyph-name="uni21F5" unicode="&#x21f5;" horiz-adv-x="928" 
d="M624 587l-183 -152v104l223 181l223 -181v-104l-183 152v-559h-80v559zM304 131l183 152v-104l-223 -181l-223 181v104l183 -152v559h80v-559z" />
    <glyph glyph-name="uni21FD" unicode="&#x21fd;" horiz-adv-x="907" 
d="M426 130l-371 223l371 223v-183h420v-80h-420v-183zM348 441l-152 -88l152 -88v176z" />
    <glyph glyph-name="uni21FE" unicode="&#x21fe;" horiz-adv-x="907" 
d="M481 576l371 -223l-371 -223v183h-420v80h420v183zM559 265l152 88l-152 88v-176z" />
    <glyph glyph-name="minus" unicode="&#x2212;" horiz-adv-x="556" 
d="M73 396h410v-85h-410v85z" />
    <glyph glyph-name="uni2215" unicode="&#x2215;" horiz-adv-x="562" 
d="M-19 0l516 706h88l-516 -706h-88z" />
    <glyph glyph-name="uni2219" unicode="&#x2219;" horiz-adv-x="348" 
d="M113 304c0 34 28 61 61 61s61 -27 61 -61s-28 -62 -61 -62s-61 28 -61 62z" />
    <glyph glyph-name="approxequal" unicode="&#x2248;" horiz-adv-x="592" 
d="M143 368l-70 20c0 66 53 125 130 125s144 -66 192 -66c49 0 59 43 64 70l68 -20c0 -69 -47 -130 -130 -130c-77 0 -144 66 -192 66c-42 0 -58 -40 -62 -65zM143 189l-70 20c0 66 53 125 130 125s144 -66 192 -66c49 0 59 43 64 70l68 -20c0 -69 -47 -130 -130 -130
c-77 0 -144 66 -192 66c-42 0 -58 -40 -62 -65z" />
    <glyph glyph-name="notequal" unicode="&#x2260;" horiz-adv-x="554" 
d="M107 118l56 101h-91v82h137l57 103h-194v82h240l76 137l60 -36l-56 -101h90v-82h-136l-57 -103h193v-82h-238l-76 -136z" />
    <glyph glyph-name="lessequal" unicode="&#x2264;" horiz-adv-x="586" 
d="M69 462l440 195v-93l-339 -148l339 -148v-93l-440 195v92zM59 132h460v-85h-460v85z" />
    <glyph glyph-name="greaterequal" unicode="&#x2265;" horiz-adv-x="586" 
d="M77 657l440 -195v-92l-440 -195v93l339 148l-339 148v93zM67 132h460v-85h-460v85z" />
    <glyph glyph-name="filledbox" unicode="&#x25a0;" horiz-adv-x="664" 
d="M566 128h-468v456h468v-456z" />
    <glyph glyph-name="uni25A1" unicode="&#x25a1;" horiz-adv-x="684" 
d="M586 118h-488v476h488v-476zM509 195v322h-334v-322h334z" />
    <glyph glyph-name="uni25AA" unicode="&#x25aa;" horiz-adv-x="406" 
d="M333 139h-260v253h260v-253z" />
    <glyph glyph-name="uni25AB" unicode="&#x25ab;" horiz-adv-x="433" 
d="M360 122h-287v283h287v-283zM290 192v143h-147v-143h147z" />
    <glyph glyph-name="triagup" unicode="&#x25b2;" horiz-adv-x="605" 
d="M29 112l273 501l274 -501h-547z" />
    <glyph glyph-name="uni25B3" unicode="&#x25b3;" horiz-adv-x="647" 
d="M29 94l294 539l295 -539h-589zM158 169h330l-165 309z" />
    <glyph glyph-name="uni25B4" unicode="&#x25b4;" horiz-adv-x="440" 
d="M35 115l185 341l186 -341h-371z" />
    <glyph glyph-name="uni25B5" unicode="&#x25b5;" horiz-adv-x="474" 
d="M31 94l206 379l206 -379h-412zM141 159h192l-96 182z" />
    <glyph glyph-name="uni25B6" unicode="&#x25b6;" horiz-adv-x="654" 
d="M113 628l500 -273l-500 -274v547z" />
    <glyph glyph-name="uni25B7" unicode="&#x25b7;" horiz-adv-x="688" 
d="M114 651l539 -294l-539 -295v589zM189 522v-330l309 165z" />
    <glyph glyph-name="uni25B8" unicode="&#x25b8;" horiz-adv-x="479" 
d="M94 444l342 -185l-342 -186v371z" />
    <glyph glyph-name="uni25B9" unicode="&#x25b9;" horiz-adv-x="522" 
d="M101 461l379 -206l-379 -206v412zM166 351v-192l182 96z" />
    <glyph glyph-name="triagdn" unicode="&#x25bc;" horiz-adv-x="609" 
d="M578 595l-273 -501l-274 501h547z" />
    <glyph glyph-name="uni25BD" unicode="&#x25bd;" horiz-adv-x="645" 
d="M617 614l-294 -539l-295 539h589zM488 539h-330l165 -309z" />
    <glyph glyph-name="uni25BE" unicode="&#x25be;" horiz-adv-x="433" 
d="M402 428l-185 -341l-186 341h371z" />
    <glyph glyph-name="uni25BF" unicode="&#x25bf;" horiz-adv-x="472" 
d="M442 445l-206 -379l-206 379h412zM332 380h-192l96 -182z" />
    <glyph glyph-name="uni25C0" unicode="&#x25c0;" horiz-adv-x="652" 
d="M539 81l-500 273l500 274v-547z" />
    <glyph glyph-name="uni25C1" unicode="&#x25c1;" horiz-adv-x="690" 
d="M576 62l-539 294l539 295v-589zM501 191v330l-309 -165z" />
    <glyph glyph-name="uni25C2" unicode="&#x25c2;" horiz-adv-x="479" 
d="M386 73l-342 184l342 187v-371z" />
    <glyph glyph-name="uni25C3" unicode="&#x25c3;" horiz-adv-x="522" 
d="M423 49l-379 206l379 206v-412zM358 159v192l-182 -96z" />
    <glyph glyph-name="uni25C6" unicode="&#x25c6;" horiz-adv-x="670" 
d="M627 356l-292 -292l-292 292l292 291z" />
    <glyph glyph-name="uni25C7" unicode="&#x25c7;" horiz-adv-x="722" 
d="M685 356l-328 -324l-320 324l324 324zM576 356l-215 216l-215 -216l211 -215z" />
    <glyph glyph-name="uni25C8" unicode="&#x25c8;" horiz-adv-x="722" 
d="M685 356l-328 -324l-320 324l324 324zM579 356l-218 219l-218 -219l214 -218zM232 356l129 130l129 -130l-130 -128z" />
    <glyph glyph-name="uni25C9" unicode="&#x25c9;" horiz-adv-x="682" 
d="M62 355c0 155 124 281 279 281s279 -126 279 -281s-124 -280 -279 -280s-279 125 -279 280zM141 355c0 -115 89 -208 200 -208s200 93 200 208s-89 209 -200 209s-200 -94 -200 -209zM203 356c0 82 60 144 138 144s138 -62 138 -144s-60 -143 -138 -143s-138 61 -138 143
z" />
    <glyph glyph-name="circle" unicode="&#x25cb;" horiz-adv-x="682" 
d="M62 355c0 154 125 281 279 281c155 0 279 -127 279 -281c0 -155 -124 -280 -279 -280c-154 0 -279 125 -279 280zM141 355c0 -115 89 -208 200 -208s200 93 200 208s-89 209 -200 209s-200 -94 -200 -209z" />
    <glyph glyph-name="uni25CC" unicode="&#x25cc;" horiz-adv-x="683" 
d="M299 593c0 24 19 43 43 43s43 -19 43 -43c0 -23 -19 -43 -43 -43c-23 0 -43 20 -43 43zM479 554c9 9 20 13 31 13s22 -4 30 -13c17 -17 17 -44 0 -61c-8 -8 -19 -13 -30 -13s-22 5 -31 13c-17 17 -17 44 0 61zM144 552c9 9 20 13 31 13s22 -4 30 -13c17 -17 17 -44 0 -61
c-8 -8 -19 -13 -30 -13s-22 5 -31 13c-17 17 -17 44 0 61zM535 355c0 24 20 43 43 43c24 0 43 -19 43 -43s-19 -43 -43 -43c-23 0 -43 20 -43 43zM63 355c0 24 19 43 43 43c23 0 43 -19 43 -43s-19 -43 -43 -43s-43 19 -43 43zM478 219c9 9 20 13 31 13s22 -4 30 -13
c17 -17 17 -44 0 -61c-8 -8 -19 -13 -30 -13s-22 5 -31 13c-17 17 -17 44 0 61zM144 218c9 9 20 13 31 13s22 -4 30 -13c17 -17 17 -44 0 -61c-8 -8 -19 -13 -30 -13s-22 5 -31 13c-17 17 -17 44 0 61zM299 118c0 23 20 43 43 43c24 0 43 -20 43 -43c0 -24 -19 -43 -43 -43
c-23 0 -43 19 -43 43z" />
    <glyph glyph-name="uni25CF" unicode="&#x25cf;" horiz-adv-x="666" 
d="M63 356c0 149 121 271 270 271c150 0 270 -122 270 -271c0 -150 -120 -272 -270 -272c-149 0 -270 122 -270 272z" />
    <glyph glyph-name="uni25D6" unicode="&#x25d6;" horiz-adv-x="435" 
d="M63 356c0 149 121 271 270 271v-543c-149 0 -270 122 -270 272z" />
    <glyph glyph-name="uni25D7" unicode="&#x25d7;" horiz-adv-x="435" 
d="M102 84v543c150 0 270 -122 270 -271c0 -150 -120 -272 -270 -272z" />
    <glyph glyph-name="uni2600" unicode="&#x2600;" horiz-adv-x="651" 
d="M128 121l136 198l-231 63l20 73l235 -64v243h75v-243l235 64l20 -73l-231 -63l136 -198l-62 -43l-135 196l-136 -196z" />
    <glyph glyph-name="uni2605" unicode="&#x2605;" horiz-adv-x="683" 
d="M655 443l-171 -147l51 -220l-193 116l-193 -116l51 220l-171 147l225 20l88 207l88 -207z" />
    <glyph glyph-name="uni2606" unicode="&#x2606;" horiz-adv-x="680" 
d="M653 443l-171 -148l51 -219l-193 116l-193 -116l51 219l-171 148l225 20l88 207l88 -207zM340 268l99 -60l-26 113l88 76l-116 10l-45 106l-45 -106l-115 -10l87 -76l-26 -113z" />
    <glyph glyph-name="uni2621" unicode="&#x2621;" horiz-adv-x="654" 
d="M108 523l-48 45c27 29 63 61 106 61c48 0 75 -40 75 -83c0 -46 -29 -87 -55 -127c-25 -37 -48 -73 -48 -113c0 -21 7 -38 21 -38c18 0 40 27 68 61c47 58 111 137 192 137c75 0 112 -62 121 -132h77v-68h-78c-7 -81 -47 -191 -142 -191c-56 0 -95 41 -95 92
c0 84 89 150 169 162c-7 43 -23 68 -62 68c-42 0 -78 -45 -116 -92c-41 -52 -86 -106 -140 -106c-53 0 -86 49 -86 98c0 59 37 116 67 162c21 33 40 63 40 84c0 8 -5 17 -16 17c-16 0 -39 -25 -50 -37zM400 142c49 0 70 85 75 122c-40 -11 -102 -48 -102 -94
c0 -16 11 -28 27 -28z" />
    <glyph glyph-name="uni2639" unicode="&#x2639;" horiz-adv-x="847" 
d="M60 352c0 201 161 366 363 366s363 -165 363 -366c0 -203 -161 -364 -363 -364s-363 161 -363 364zM124 352c0 -167 126 -301 299 -301c172 0 299 131 299 301s-127 303 -299 303c-173 0 -299 -133 -299 -303zM305 395c-33 0 -61 28 -61 62s28 61 61 61s61 -27 61 -61
s-28 -62 -61 -62zM542 395c-33 0 -61 28 -61 62s28 61 61 61s61 -27 61 -61s-28 -62 -61 -62zM314 174h-58c0 94 74 168 167 168s167 -74 167 -168h-58c0 62 -48 110 -109 110s-109 -48 -109 -110z" />
    <glyph glyph-name="smileface" unicode="&#x263a;" horiz-adv-x="847" 
d="M60 352c0 201 161 366 363 366s363 -165 363 -366c0 -203 -161 -364 -363 -364s-363 161 -363 364zM124 352c0 -167 126 -301 299 -301c172 0 299 131 299 301s-127 303 -299 303c-173 0 -299 -133 -299 -303zM305 395c-33 0 -61 28 -61 62s28 61 61 61s61 -27 61 -61
s-28 -62 -61 -62zM542 395c-33 0 -61 28 -61 62s28 61 61 61s61 -27 61 -61s-28 -62 -61 -62zM237 312h372c0 -104 -83 -186 -186 -186c-104 0 -186 82 -186 186zM540 259h-234c20 -45 64 -75 117 -75s97 30 117 75z" />
    <glyph glyph-name="invsmileface" unicode="&#x263b;" horiz-adv-x="847" 
d="M60 352c0 201 161 366 363 366s363 -165 363 -366c0 -203 -161 -364 -363 -364s-363 161 -363 364zM124 352c0 -167 126 -301 299 -301c172 0 299 131 299 301s-127 303 -299 303c-173 0 -299 -133 -299 -303zM305 395c-33 0 -61 28 -61 62s28 61 61 61s61 -27 61 -61
s-28 -62 -61 -62zM542 395c-33 0 -61 28 -61 62s28 61 61 61s61 -27 61 -61s-28 -62 -61 -62zM268 214v58h312v-58h-312z" />
    <glyph glyph-name="heart" unicode="&#x2665;" horiz-adv-x="638" 
d="M356 136l-37 -37l-37 37c-181 160 -229 223 -229 305s64 147 146 147c45 0 91 -21 120 -56c29 35 75 56 120 56c82 0 146 -65 146 -147s-48 -145 -229 -305z" />
    <glyph glyph-name="uni26A1" unicode="&#x26a1;" horiz-adv-x="383" 
d="M143 610h196l-118 -212h112l-275 -342l85 259h-86z" />
    <glyph glyph-name="uni2720" unicode="&#x2720;" horiz-adv-x="657" 
d="M590 220h-71v97h-154v-154h96v-71h-265v71h97v154h-154v-97h-71v266h71v-97h154v154h-97v71h265v-71h-96v-154h154v97h71v-266z" />
    <glyph glyph-name="uni2725" unicode="&#x2725;" horiz-adv-x="679" 
d="M142 148l121 152l-182 -65l-19 69l176 51l-176 52l19 68l182 -65l-121 153l58 40l109 -155l-5 187h71l-6 -187l109 155l59 -40l-121 -153l182 65l19 -68l-176 -52l176 -51l-19 -69l-182 65l121 -152l-59 -41l-109 156l6 -187h-71l5 187l-109 -156z" />
    <glyph glyph-name="uni2734" unicode="&#x2734;" horiz-adv-x="655" 
d="M105 529l49 49l142 -147l-3 205h69l-3 -205l142 147l49 -49l-147 -142l204 3v-68l-204 3l147 -142l-49 -49l-142 147l3 -205h-69l3 205l-142 -147l-49 49l147 142l-204 -3v68l204 -3z" />
    <glyph glyph-name="u1F310" unicode="&#x1f310;" horiz-adv-x="672" 
d="M57 355c0 154 125 281 279 281c155 0 279 -127 279 -281c0 -155 -124 -280 -279 -280c-154 0 -279 125 -279 280zM285 458h101c-12 41 -29 80 -50 115c-22 -35 -39 -74 -51 -115zM451 458h70c-24 47 -64 84 -113 103c18 -32 33 -67 43 -103zM151 458h69
c10 36 24 71 43 102c-49 -18 -88 -55 -112 -102zM126 355c0 -15 1 -29 4 -43h78c-2 14 -3 29 -3 43c0 13 1 27 2 41h-77c-3 -13 -4 -27 -4 -41zM273 312h125c2 14 3 29 3 43c0 13 -1 27 -3 41h-125c-2 -14 -3 -28 -3 -41c0 -14 1 -29 3 -43zM463 312h79c3 14 4 28 4 43
c0 14 -1 28 -4 41h-78c1 -14 2 -28 2 -41c0 -14 -1 -29 -3 -43zM220 250h-68c24 -46 63 -81 111 -99c-18 30 -33 64 -43 99zM385 250h-99c11 -40 28 -78 49 -112c22 34 39 72 50 112zM520 250h-69c-10 -35 -25 -69 -43 -100c48 18 88 54 112 100z" />
    <glyph glyph-name="u1F441" unicode="&#x1f441;" horiz-adv-x="793" 
d="M397 587c156 0 290 -107 343 -234c-53 -128 -187 -235 -343 -235c-157 0 -292 107 -345 235c53 127 188 234 345 234zM397 196c87 0 156 70 156 157s-69 156 -156 156c-88 0 -157 -69 -157 -156s69 -157 157 -157zM397 446c52 0 93 -41 93 -93c0 -53 -41 -94 -93 -94
c-53 0 -95 41 -95 94c0 52 42 93 95 93z" />
    <glyph glyph-name="Euro.onum" horiz-adv-x="588" 
d="M392 174h-155c27 -56 80 -94 153 -94c46 0 98 12 134 40v-98c-39 -25 -95 -34 -142 -34c-121 0 -216 76 -251 186h-74v73h61c-1 8 -1 15 -1 23c0 6 0 13 1 19h-61v73h73c34 112 129 190 253 190c48 0 100 -11 139 -34v-97c-37 26 -91 39 -132 39c-72 0 -128 -38 -155 -98
h178l-11 -73h-185c-1 -6 -1 -13 -1 -19c0 -8 0 -15 1 -23h185z" />
    <glyph glyph-name="Euro.onum.tnum" 
d="M440 174h-155c27 -56 80 -94 153 -94c46 0 98 12 134 40v-98c-39 -25 -95 -34 -142 -34c-121 0 -216 76 -251 186h-74v73h61c-1 8 -1 15 -1 23c0 6 0 13 1 19h-61v73h73c34 112 129 190 253 190c48 0 100 -11 139 -34v-97c-37 26 -91 39 -132 39c-72 0 -128 -38 -155 -98
h178l-11 -73h-185c-1 -6 -1 -13 -1 -19c0 -8 0 -15 1 -23h185z" />
    <glyph glyph-name="Euro.tnum" 
d="M497 237h-245c44 -98 143 -152 251 -152c32 0 63 4 94 17v-100c-36 -10 -74 -14 -106 -14c-164 0 -299 101 -346 249h-91v83h74c-1 11 -1 22 -1 33c0 10 0 19 1 29h-74v83h89c45 152 180 253 339 253c37 0 76 -4 115 -15v-101c-37 15 -73 19 -104 19
c-111 0 -201 -63 -241 -156h246v-83h-268c-1 -10 -1 -19 -1 -29c0 -11 1 -22 2 -33h266v-83z" />
    <glyph glyph-name="I.alt" horiz-adv-x="429" 
d="M45 621v85h339v-85h-120v-536h120v-85h-339v85h120v536h-120z" />
    <glyph glyph-name="IJ.alt" horiz-adv-x="988" 
d="M45 621v85h339v-85h-120v-536h120v-85h-339v85h120v536h-120zM440 128l79 48c32 -57 68 -97 149 -97c90 0 130 55 130 125v417h-257v85h356v-503c0 -126 -94 -215 -233 -215c-93 0 -180 49 -224 140z" />
    <glyph glyph-name="IJacute" horiz-adv-x="764" 
d="M109 768l95 167h116l-129 -167h-82zM588 768l95 167h116l-129 -167h-82zM98 0v706h99v-706h-99zM321 131c37 -32 82 -50 128 -50c81 0 126 51 126 144v481h98v-498c0 -134 -84 -220 -216 -220c-52 0 -100 14 -136 39v104z" />
    <glyph glyph-name="IJacute.alt" horiz-adv-x="988" 
d="M178 768l95 167h116l-129 -167h-82zM671 768l95 167h116l-129 -167h-82zM440 128l79 48c32 -57 68 -97 149 -97c90 0 130 55 130 125v417h-257v85h356v-503c0 -126 -94 -215 -233 -215c-93 0 -180 49 -224 140zM45 621v85h339v-85h-120v-536h120v-85h-339v85h120v536
h-120z" />
    <glyph glyph-name="Iacute.alt" horiz-adv-x="429" 
d="M176 768l95 167h116l-129 -167h-82zM45 621v85h339v-85h-120v-536h120v-85h-339v85h120v536h-120z" />
    <glyph glyph-name="Ibreve.alt" horiz-adv-x="429" 
d="M268 916h74c0 -75 -53 -130 -127 -130s-127 55 -127 130h74c1 -36 21 -63 53 -63s52 27 53 63zM45 621v85h339v-85h-120v-536h120v-85h-339v85h120v536h-120z" />
    <glyph glyph-name="Icircumflex.alt" horiz-adv-x="429" 
d="M258 935l120 -182h-92l-71 114l-71 -114h-92l120 182h86zM45 621v85h339v-85h-120v-536h120v-85h-339v85h120v536h-120z" />
    <glyph glyph-name="Idieresis.alt" horiz-adv-x="429" 
d="M106 918c33 0 61 -27 61 -61s-28 -62 -61 -62s-61 28 -61 62s28 61 61 61zM326 918c33 0 61 -27 61 -61s-28 -62 -61 -62s-61 28 -61 62s28 61 61 61zM45 621v85h339v-85h-120v-536h120v-85h-339v85h120v536h-120z" />
    <glyph glyph-name="Idotaccent.alt" horiz-adv-x="429" 
d="M215 918c33 0 61 -27 61 -61s-28 -62 -61 -62s-61 28 -61 62s28 61 61 61zM45 621v85h339v-85h-120v-536h120v-85h-339v85h120v536h-120z" />
    <glyph glyph-name="Idotbelow.alt" horiz-adv-x="429" 
d="M45 621v85h339v-85h-120v-536h120v-85h-339v85h120v536h-120zM153 -150c0 34 28 61 61 61s61 -27 61 -61s-28 -62 -61 -62s-61 28 -61 62z" />
    <glyph glyph-name="Igrave.alt" horiz-adv-x="429" 
d="M154 935l95 -167h-82l-129 167h116zM45 621v85h339v-85h-120v-536h120v-85h-339v85h120v536h-120z" />
    <glyph glyph-name="Imacron.alt" horiz-adv-x="429" 
d="M80 822v70h269v-70h-269zM45 621v85h339v-85h-120v-536h120v-85h-339v85h120v536h-120z" />
    <glyph glyph-name="Iogonek.alt" horiz-adv-x="429" 
d="M98 -123c0 52 37 92 81 123h-134v85h120v536h-120v85h339v-85h-120v-536h120v-85h-120c-56 -42 -83 -67 -83 -98c0 -32 39 -44 68 -49l-27 -75c-68 3 -124 38 -124 99z" />
    <glyph glyph-name="Itilde.alt" horiz-adv-x="429" 
d="M116 776l-65 20c0 70 42 111 102 111c57 0 88 -53 121 -53c26 0 37 28 39 56l65 -20c0 -70 -48 -111 -102 -111c-57 0 -88 53 -121 53c-26 0 -37 -28 -39 -56zM45 621v85h339v-85h-120v-536h120v-85h-339v85h120v536h-120z" />
    <glyph glyph-name="J.alt" horiz-adv-x="481" 
d="M37 25v109c32 -32 77 -53 129 -53c79 0 125 48 125 144v396h-217v85h316v-498c0 -128 -78 -220 -216 -220c-46 0 -97 10 -137 37z" />
    <glyph glyph-name="Jcircumflex.alt" horiz-adv-x="481" 
d="M273 935l120 -182h-92l-71 114l-71 -114h-92l120 182h86zM37 25v109c32 -32 77 -53 129 -53c79 0 125 48 125 144v396h-217v85h316v-498c0 -128 -78 -220 -216 -220c-46 0 -97 10 -137 37z" />
    <glyph glyph-name="Q.alt" horiz-adv-x="828" 
d="M749 -175h-120l-123 174c-29 -7 -60 -11 -92 -11c-204 0 -364 157 -364 365s160 365 364 365s364 -157 364 -365c0 -139 -72 -256 -180 -317zM414 621c-144 0 -262 -114 -262 -268s118 -268 262 -268s262 114 262 268s-118 268 -262 268z" />
    <glyph glyph-name="W.alt" horiz-adv-x="1029" 
d="M305 0l-290 706h110l236 -571l98 237l-137 334h110l83 -200l82 200h110l-137 -334l98 -237l236 571h110l-290 -706h-112l-97 237l-98 -237h-112z" />
    <glyph glyph-name="Wacute.alt" horiz-adv-x="1029" 
d="M448 768l95 167h116l-129 -167h-82zM305 0l-290 706h110l236 -571l98 237l-137 334h110l83 -200l82 200h110l-137 -334l98 -237l236 571h110l-290 -706h-112l-97 237l-98 -237h-112z" />
    <glyph glyph-name="Wcircumflex.alt" horiz-adv-x="1030" 
d="M534 935l120 -182h-92l-71 114l-71 -114h-92l120 182h86zM306 0l-291 706h111l236 -571l98 237l-137 334h110l83 -200l82 200h110l-137 -334l98 -237l236 571h110l-290 -706h-112l-97 237l-98 -237h-112z" />
    <glyph glyph-name="Wdieresis.alt" horiz-adv-x="1030" 
d="M381 918c33 0 61 -27 61 -61s-28 -62 -61 -62s-61 28 -61 62s28 61 61 61zM601 918c33 0 61 -27 61 -61s-28 -62 -61 -62s-61 28 -61 62s28 61 61 61zM306 0l-291 706h111l236 -571l98 237l-137 334h110l83 -200l82 200h110l-137 -334l98 -237l236 571h110l-290 -706
h-112l-97 237l-98 -237h-112z" />
    <glyph glyph-name="Wgrave.alt" horiz-adv-x="1029" 
d="M431 935l95 -167h-82l-129 167h116zM305 0l-290 706h110l236 -571l98 237l-137 334h110l83 -200l82 200h110l-137 -334l98 -237l236 571h110l-290 -706h-112l-97 237l-98 -237h-112z" />
    <glyph glyph-name="a.alt" horiz-adv-x="635" 
d="M456 0v75c-28 -49 -101 -87 -171 -87c-135 0 -240 111 -240 265s105 265 240 265c70 0 138 -37 167 -82v70h97v-506h-93zM301 77c84 0 157 71 157 176c0 106 -73 176 -157 176s-158 -71 -158 -176s74 -176 158 -176z" />
    <glyph glyph-name="aacute.alt" horiz-adv-x="635" 
d="M251 568l95 167h116l-129 -167h-82zM456 75c-28 -49 -101 -87 -171 -87c-135 0 -240 111 -240 265s105 265 240 265c70 0 138 -37 167 -82v70h97v-506h-93v75zM301 77c84 0 157 71 157 176c0 106 -73 176 -157 176s-158 -71 -158 -176s74 -176 158 -176z" />
    <glyph glyph-name="abreve.alt" horiz-adv-x="635" 
d="M345 716h74c0 -75 -53 -130 -127 -130s-127 55 -127 130h74c1 -36 21 -63 53 -63s52 27 53 63zM456 75c-28 -49 -101 -87 -171 -87c-135 0 -240 111 -240 265s105 265 240 265c70 0 138 -37 167 -82v70h97v-506h-93v75zM301 77c84 0 157 71 157 176
c0 106 -73 176 -157 176s-158 -71 -158 -176s74 -176 158 -176z" />
    <glyph glyph-name="acircumflex.alt" horiz-adv-x="635" 
d="M340 735l120 -182h-92l-71 114l-71 -114h-92l120 182h86zM456 75c-28 -49 -101 -87 -171 -87c-135 0 -240 111 -240 265s105 265 240 265c70 0 138 -37 167 -82v70h97v-506h-93v75zM301 77c84 0 157 71 157 176c0 106 -73 176 -157 176s-158 -71 -158 -176
s74 -176 158 -176z" />
    <glyph glyph-name="adieresis.alt" horiz-adv-x="635" 
d="M181 718c33 0 61 -27 61 -61s-28 -62 -61 -62s-61 28 -61 62s28 61 61 61zM401 718c33 0 61 -27 61 -61s-28 -62 -61 -62s-61 28 -61 62s28 61 61 61zM456 75c-28 -49 -101 -87 -171 -87c-135 0 -240 111 -240 265s105 265 240 265c70 0 138 -37 167 -82v70h97v-506h-93
v75zM301 77c84 0 157 71 157 176c0 106 -73 176 -157 176s-158 -71 -158 -176s74 -176 158 -176z" />
    <glyph glyph-name="adotbelow.alt" horiz-adv-x="635" 
d="M456 75c-28 -49 -101 -87 -171 -87c-135 0 -240 111 -240 265s105 265 240 265c70 0 138 -37 167 -82v70h97v-506h-93v75zM301 77c84 0 157 71 157 176c0 106 -73 176 -157 176s-158 -71 -158 -176s74 -176 158 -176zM243 -150c0 34 28 61 61 61s61 -27 61 -61
s-28 -62 -61 -62s-61 28 -61 62z" />
    <glyph glyph-name="agrave.alt" horiz-adv-x="635" 
d="M131 735h116l95 -167h-82zM456 0v75c-28 -49 -101 -87 -171 -87c-135 0 -240 111 -240 265s105 265 240 265c70 0 138 -37 167 -82v70h97v-506h-93zM301 77c84 0 157 71 157 176c0 106 -73 176 -157 176s-158 -71 -158 -176s74 -176 158 -176z" />
    <glyph glyph-name="amacron.alt" horiz-adv-x="635" 
d="M169 622v70h269v-70h-269zM456 75c-28 -49 -101 -87 -171 -87c-135 0 -240 111 -240 265s105 265 240 265c70 0 138 -37 167 -82v70h97v-506h-93v75zM301 77c84 0 157 71 157 176c0 106 -73 176 -157 176s-158 -71 -158 -176s74 -176 158 -176z" />
    <glyph glyph-name="ampersand.alt" horiz-adv-x="723" 
d="M588 0l-56 71c-58 -53 -132 -83 -214 -83c-154 0 -269 96 -269 225c0 105 87 188 198 225l-159 203v65h470v-90h-333l309 -393c26 58 36 133 25 222h91c14 -118 -9 -220 -56 -298l115 -147h-121zM478 141l-179 229c-80 -22 -147 -82 -147 -153c0 -78 71 -137 168 -137
c62 0 116 21 158 61z" />
    <glyph glyph-name="aogonek.alt" horiz-adv-x="635" 
d="M456 0v75c-28 -49 -101 -87 -171 -87c-135 0 -240 111 -240 265s105 265 240 265c70 0 138 -37 167 -82v70h97v-506h-8c-56 -42 -83 -67 -83 -98c0 -32 39 -44 68 -49l-27 -75c-68 3 -124 38 -124 99c0 52 37 92 81 123zM301 77c84 0 157 71 157 176
c0 106 -73 176 -157 176s-158 -71 -158 -176s74 -176 158 -176z" />
    <glyph glyph-name="approxequal.onum" horiz-adv-x="596" 
d="M142 284l-70 20c0 66 53 125 130 125s144 -66 192 -66c49 0 59 43 64 70l68 -20c0 -69 -47 -130 -130 -130c-77 0 -144 66 -192 66c-42 0 -58 -40 -62 -65zM142 105l-70 20c0 66 53 125 130 125s144 -66 192 -66c49 0 59 43 64 70l68 -20c0 -69 -47 -130 -130 -130
c-77 0 -144 66 -192 66c-42 0 -58 -40 -62 -65z" />
    <glyph glyph-name="approxequal.onum.tnum" 
d="M169 284l-70 20c0 66 53 125 130 125s144 -66 192 -66c49 0 59 43 64 70l68 -20c0 -69 -47 -130 -130 -130c-77 0 -144 66 -192 66c-42 0 -58 -40 -62 -65zM169 105l-70 20c0 66 53 125 130 125s144 -66 192 -66c49 0 59 43 64 70l68 -20c0 -69 -47 -130 -130 -130
c-77 0 -144 66 -192 66c-42 0 -58 -40 -62 -65z" />
    <glyph glyph-name="approxequal.tnum" 
d="M171 368l-70 20c0 66 53 125 130 125s144 -66 192 -66c49 0 59 43 64 70l68 -20c0 -69 -47 -130 -130 -130c-77 0 -144 66 -192 66c-42 0 -58 -40 -62 -65zM171 189l-70 20c0 66 53 125 130 125s144 -66 192 -66c49 0 59 43 64 70l68 -20c0 -69 -47 -130 -130 -130
c-77 0 -144 66 -192 66c-42 0 -58 -40 -62 -65z" />
    <glyph glyph-name="aring.alt" horiz-adv-x="635" 
d="M193 668c0 60 48 108 108 108s108 -48 108 -108s-48 -108 -108 -108s-108 48 -108 108zM255 668c0 -25 21 -46 46 -46s46 21 46 46s-21 46 -46 46s-46 -21 -46 -46zM456 75c-28 -49 -101 -87 -171 -87c-135 0 -240 111 -240 265s105 265 240 265c70 0 138 -37 167 -82v70
h97v-506h-93v75zM301 77c84 0 157 71 157 176c0 106 -73 176 -157 176s-158 -71 -158 -176s74 -176 158 -176z" />
    <glyph glyph-name="aringacute.alt" horiz-adv-x="635" 
d="M259 816l88 152h110l-116 -152h-82zM193 668c0 60 48 108 108 108s108 -48 108 -108s-48 -108 -108 -108s-108 48 -108 108zM255 668c0 -25 21 -46 46 -46s46 21 46 46s-21 46 -46 46s-46 -21 -46 -46zM456 75c-28 -49 -101 -87 -171 -87c-135 0 -240 111 -240 265
s105 265 240 265c70 0 138 -37 167 -82v70h97v-506h-93v75zM301 77c84 0 157 71 157 176c0 106 -73 176 -157 176s-158 -71 -158 -176s74 -176 158 -176z" />
    <glyph glyph-name="arrowbothdashed" horiz-adv-x="962" 
d="M340 576l-151 -183h151v-80h-151l151 -183h-103l-182 223l182 223h103zM622 130l151 183h-151v80h151l-151 183h103l182 -223l-182 -223h-103zM408 313v80h146v-80h-146z" />
    <glyph glyph-name="arrowbothtwoheaded" horiz-adv-x="1289" 
d="M556 576l-151 -183h479l-152 183h104l181 -223l-181 -223h-104l152 183h-479l151 -183h-103l-181 223l181 223h103zM340 576l-185 -223l185 -223h-103l-182 223l182 223h103zM949 130l185 223l-185 223h103l182 -223l-182 -223h-103z" />
    <glyph glyph-name="arrowleftdown" horiz-adv-x="629" 
d="M133 474l22 -236l381 381l57 -56l-381 -381l236 -23l-73 -73l-286 29l-29 286z" />
    <glyph glyph-name="arrowleftdowndashed" horiz-adv-x="658" 
d="M518 474l-56 56l103 104l57 -56zM367 322l-57 57l103 103l57 -56zM133 460l22 -236l107 107l57 -57l-107 -106l236 -23l-73 -73l-286 29l-29 286z" />
    <glyph glyph-name="arrowleftdowntwoheaded" horiz-adv-x="746" 
d="M286 565l23 -236l346 345l56 -56l-346 -346l237 -23l-73 -72l-287 29l-29 286zM133 412l27 -289l289 -26l-73 -73l-286 29l-29 286z" />
    <glyph glyph-name="arrowleftup" horiz-adv-x="629" 
d="M155 468l-22 -236l-73 73l29 286l286 29l73 -73l-236 -22l381 -382l-57 -56z" />
    <glyph glyph-name="arrowleftupdashed" horiz-adv-x="658" 
d="M448 561l-236 -22l107 -107l-57 -57l-106 107l-23 -236l-73 73l29 286l286 29zM310 327l57 57l103 -103l-56 -57zM462 176l56 57l104 -104l-56 -57z" />
    <glyph glyph-name="arrowleftuptwoheaded" horiz-adv-x="747" 
d="M449 610l-289 -27l-26 -289l-73 73l29 287l286 29zM602 457l-236 -23l345 -345l-56 -57l-346 346l-23 -236l-72 72l29 287l286 29z" />
    <glyph glyph-name="arrowrightdowndashed" horiz-adv-x="658" 
d="M196 530l-56 -56l-104 103l56 57zM348 379l-57 -57l-103 103l56 57zM210 145l236 22l-107 107l57 57l107 -107l22 236l73 -73l-29 -286l-286 -29z" />
    <glyph glyph-name="arrowrightdowntwoheaded" horiz-adv-x="747" 
d="M145 249l237 23l-346 346l56 56l346 -346l23 237l73 -73l-29 -287l-287 -29zM298 96l289 27l26 289l73 -73l-29 -286l-286 -29z" />
    <glyph glyph-name="arrowrightup" horiz-adv-x="629" 
d="M496 232l-22 236l-381 -381l-57 56l381 382l-236 22l73 73l286 -29l29 -286z" />
    <glyph glyph-name="arrowrightupdashed" horiz-adv-x="658" 
d="M525 246l-22 236l-107 -107l-57 57l107 107l-236 22l73 73l286 -29l29 -286zM291 384l57 -57l-103 -103l-57 56zM140 232l57 -56l-104 -104l-57 56z" />
    <glyph glyph-name="arrowrightuptwoheaded" horiz-adv-x="746" 
d="M613 294l-27 289l-289 26l73 73l287 -29l29 -286zM460 141l-23 237l-345 -346l-57 56l346 346l-236 23l72 73l287 -29l29 -287z" />
    <glyph glyph-name="arrowupdndashed" horiz-adv-x="528" 
d="M487 494l-183 151v-151h-80v151l-183 -151v103l223 182l223 -182v-103zM304 280h-80v146h80v-146zM41 212l183 -151v151h80v-151l183 151v-103l-223 -182l-223 182v103z" />
    <glyph glyph-name="arrowupdntwoheaded" horiz-adv-x="528" 
d="M487 657l-223 185l-223 -185v103l223 182l223 -182v-103zM41 264l183 -151v479l-183 -152v104l223 181l223 -181v-104l-183 152v-479l183 151v-103l-223 -181l-223 181v103zM41 48l223 -185l223 185v-103l-223 -182l-223 182v103z" />
    <glyph glyph-name="atilde.alt" horiz-adv-x="635" 
d="M188 576l-65 20c0 70 42 111 102 111c57 0 88 -53 121 -53c26 0 37 28 39 56l65 -20c0 -70 -48 -111 -102 -111c-57 0 -88 53 -121 53c-26 0 -37 -28 -39 -56zM456 75c-28 -49 -101 -87 -171 -87c-135 0 -240 111 -240 265s105 265 240 265c70 0 138 -37 167 -82v70h97
v-506h-93v75zM301 77c84 0 157 71 157 176c0 106 -73 176 -157 176s-158 -71 -158 -176s74 -176 158 -176z" />
    <glyph glyph-name="cent.onum" horiz-adv-x="529" 
d="M273 647h93v-115c35 -4 70 -14 98 -31v-97c-37 26 -91 39 -132 39c-105 0 -174 -74 -174 -174c0 -92 63 -172 174 -172c46 0 98 12 134 40v-98c-28 -18 -64 -27 -100 -32v-114h-93v116c-126 23 -214 127 -214 260c0 134 86 239 214 262v116z" />
    <glyph glyph-name="cent.onum.tnum" 
d="M336 647h93v-115c35 -4 70 -14 98 -31v-97c-37 26 -91 39 -132 39c-105 0 -174 -74 -174 -174c0 -92 63 -172 174 -172c46 0 98 12 134 40v-98c-28 -18 -64 -27 -100 -32v-114h-93v116c-126 23 -214 127 -214 260c0 134 86 239 214 262v116z" />
    <glyph glyph-name="cent.tnum" 
d="M331 730h93v-114c37 -4 74 -15 103 -32v-97c-37 26 -91 39 -132 39c-105 0 -174 -74 -174 -174c0 -92 63 -172 174 -172c46 0 98 12 134 40v-98c-29 -19 -68 -28 -105 -32v-114h-93v117c-124 24 -209 128 -209 259c0 132 84 236 209 261v117z" />
    <glyph glyph-name="circlesmall" horiz-adv-x="458" 
d="M54 259c0 96 77 174 175 174s175 -78 175 -174c0 -98 -77 -176 -175 -176s-175 78 -175 176zM126 259c0 -59 45 -106 102 -106c58 0 104 47 104 106c0 58 -46 104 -104 104c-57 0 -102 -46 -102 -104z" />
    <glyph glyph-name="circlesmallblack" horiz-adv-x="414" 
d="M49 261c0 87 71 158 158 158c88 0 158 -71 158 -158c0 -88 -70 -159 -158 -159c-87 0 -158 71 -158 159z" />
    <glyph glyph-name="commaaccent" horiz-adv-x="201" 
d="M55 -66h89c5 -28 7 -48 7 -72c0 -43 -11 -71 -29 -111h-72c10 40 17 74 17 104c0 23 -1 48 -12 79z" />
    <glyph glyph-name="currency.onum" horiz-adv-x="684" 
d="M111 273c0 47 14 90 38 126l-103 104l65 66l104 -104c36 24 79 38 126 38s91 -14 127 -39l105 105l65 -66l-104 -105c23 -36 37 -79 37 -125c0 -47 -14 -90 -38 -126l105 -105l-66 -65l-105 104c-36 -24 -79 -38 -126 -38c-46 0 -89 14 -125 37l-104 -103l-66 65l104 104
c-25 36 -39 80 -39 127zM203 273c0 -77 61 -140 138 -142c81 -2 144 61 142 142c-2 77 -65 138 -142 138s-138 -61 -138 -138z" />
    <glyph glyph-name="currency.onum.tnum" 
d="M94 273c0 47 14 90 38 126l-103 104l65 66l104 -104c36 24 79 38 126 38s91 -14 127 -39l105 105l65 -66l-104 -105c23 -36 37 -79 37 -125c0 -47 -14 -90 -38 -126l105 -105l-66 -65l-105 104c-36 -24 -79 -38 -126 -38c-46 0 -89 14 -125 37l-104 -103l-66 65l104 104
c-25 36 -39 80 -39 127zM186 273c0 -77 61 -140 138 -142c81 -2 144 61 142 142c-2 77 -65 138 -142 138s-138 -61 -138 -138z" />
    <glyph glyph-name="currency.tnum" 
d="M94 356c0 47 14 90 38 126l-103 104l65 66l104 -104c36 24 79 38 126 38s91 -14 127 -39l105 105l65 -66l-104 -105c23 -36 37 -79 37 -125c0 -47 -14 -90 -38 -126l105 -105l-66 -65l-105 104c-36 -24 -79 -38 -126 -38c-46 0 -89 14 -125 37l-104 -103l-66 65l104 104
c-25 36 -39 80 -39 127zM186 356c0 -77 61 -140 138 -142c81 -2 144 61 142 142c-2 77 -65 138 -142 138s-138 -61 -138 -138z" />
    <glyph glyph-name="degree.onum" horiz-adv-x="396" 
d="M198 238c-83 0 -151 67 -151 151s68 151 151 151s151 -67 151 -151s-68 -151 -151 -151zM198 317c42 0 74 29 74 72c0 44 -32 74 -74 74c-41 0 -72 -30 -72 -74c0 -43 31 -72 72 -72z" />
    <glyph glyph-name="degree.onum.tnum" 
d="M325 238c-83 0 -151 67 -151 151s68 151 151 151s151 -67 151 -151s-68 -151 -151 -151zM325 317c42 0 74 29 74 72c0 44 -32 74 -74 74c-41 0 -72 -30 -72 -74c0 -43 31 -72 72 -72z" />
    <glyph glyph-name="degree.tnum" 
d="M325 416c-83 0 -151 67 -151 151s68 151 151 151s151 -67 151 -151s-68 -151 -151 -151zM325 495c42 0 74 29 74 72c0 44 -32 74 -74 74c-41 0 -72 -30 -72 -74c0 -43 31 -72 72 -72z" />
    <glyph glyph-name="diamondsmallblack" horiz-adv-x="450" 
d="M408 258l-183 -184l-183 184l183 183z" />
    <glyph glyph-name="diamondsmallwhite" horiz-adv-x="493" 
d="M450 255l-204 -204l-203 204l203 203zM358 255l-112 112l-113 -112l113 -112z" />
    <glyph glyph-name="divide.onum" horiz-adv-x="550" 
d="M214 464c0 34 28 61 61 61s61 -27 61 -61s-28 -62 -61 -62s-61 28 -61 62zM55 312h440v-85h-440v85zM214 76c0 34 28 61 61 61s61 -27 61 -61s-28 -62 -61 -62s-61 28 -61 62z" />
    <glyph glyph-name="divide.onum.tnum" 
d="M264 464c0 34 28 61 61 61s61 -27 61 -61s-28 -62 -61 -62s-61 28 -61 62zM105 312h440v-85h-440v85zM264 76c0 34 28 61 61 61s61 -27 61 -61s-28 -62 -61 -62s-61 28 -61 62z" />
    <glyph glyph-name="divide.tnum" 
d="M264 548c0 34 28 61 61 61s61 -27 61 -61s-28 -62 -61 -62s-61 28 -61 62zM105 396h440v-85h-440v85zM264 160c0 34 28 61 61 61s61 -27 61 -61s-28 -62 -61 -62s-61 28 -61 62z" />
    <glyph glyph-name="dollar.onum" horiz-adv-x="480" 
d="M201 641h89v-104c45 -7 88 -23 115 -45v-102c-46 39 -96 61 -154 61c-65 0 -95 -28 -95 -62c0 -38 37 -57 107 -77c82 -23 169 -51 169 -154c0 -82 -56 -140 -146 -154v-111h-89v110c-52 6 -101 25 -139 56v110c50 -51 104 -80 174 -80s104 28 104 68
c0 42 -41 55 -116 78c-82 25 -161 56 -161 149c0 76 54 137 142 152v105z" />
    <glyph glyph-name="dollar.onum.tnum" 
d="M281 641h89v-104c45 -7 88 -23 115 -45v-102c-46 39 -96 61 -154 61c-65 0 -95 -28 -95 -62c0 -38 37 -57 107 -77c82 -23 169 -51 169 -154c0 -82 -56 -140 -146 -154v-111h-89v110c-52 6 -101 25 -139 56v110c50 -51 104 -80 174 -80s104 28 104 68
c0 42 -41 55 -116 78c-82 25 -161 56 -161 149c0 76 54 137 142 152v105z" />
    <glyph glyph-name="dollar.tnum" 
d="M279 832h93v-116c54 -5 103 -22 139 -43v-103c-49 34 -114 55 -171 55c-72 0 -131 -33 -131 -96c0 -57 47 -85 140 -124c105 -45 200 -88 200 -209c0 -107 -74 -181 -183 -201v-127h-93v122c-69 6 -131 29 -172 58v112c51 -44 126 -78 198 -78c78 0 143 41 143 110
c0 62 -54 89 -155 133c-92 39 -183 83 -183 198c0 102 71 171 175 190v119z" />
    <glyph glyph-name="dotbelow" horiz-adv-x="222" 
d="M50 -150c0 34 28 61 61 61s61 -27 61 -61s-28 -62 -61 -62s-61 28 -61 62z" />
    <glyph glyph-name="eight.onum" horiz-adv-x="588" 
d="M294 718c116 0 220 -77 220 -194c0 -76 -49 -138 -99 -159c57 -20 121 -80 121 -173c0 -116 -108 -204 -242 -204s-242 88 -242 204c0 93 64 153 121 173c-50 21 -99 83 -99 159c0 117 104 194 220 194zM294 628c-63 0 -120 -41 -120 -106c0 -69 56 -112 120 -112
s120 43 120 112c0 65 -57 106 -120 106zM294 320c-79 0 -138 -51 -138 -122c0 -68 59 -120 138 -120s138 52 138 120c0 71 -60 122 -138 122z" />
    <glyph glyph-name="eight.onum.tnum" 
d="M326 718c116 0 220 -77 220 -194c0 -76 -49 -138 -99 -159c57 -20 121 -80 121 -173c0 -116 -108 -204 -242 -204s-242 88 -242 204c0 93 64 153 121 173c-50 21 -99 83 -99 159c0 117 104 194 220 194zM326 628c-63 0 -120 -41 -120 -106c0 -69 56 -112 120 -112
s120 43 120 112c0 65 -57 106 -120 106zM326 320c-79 0 -138 -51 -138 -122c0 -68 59 -120 138 -120s138 52 138 120c0 71 -60 122 -138 122z" />
    <glyph glyph-name="eight.tnum" 
d="M325 718c116 0 220 -77 220 -194c0 -76 -52 -138 -102 -159c57 -20 124 -80 124 -173c0 -116 -108 -204 -242 -204s-242 88 -242 204c0 93 67 153 124 173c-50 21 -102 83 -102 159c0 117 104 194 220 194zM325 628c-63 0 -120 -41 -120 -106c0 -69 56 -112 120 -112
s120 43 120 112c0 65 -57 106 -120 106zM325 320c-79 0 -138 -51 -138 -122c0 -68 59 -120 138 -120s138 52 138 120c0 71 -60 122 -138 122z" />
    <glyph glyph-name="equal.onum" horiz-adv-x="556" 
d="M73 405h410v-85h-410v85zM73 217h410v-85h-410v85z" />
    <glyph glyph-name="equal.onum.tnum" 
d="M120 405h410v-85h-410v85zM120 217h410v-85h-410v85z" />
    <glyph glyph-name="equal.tnum" 
d="M120 489h410v-85h-410v85zM120 301h410v-85h-410v85z" />
    <glyph glyph-name="five.onum" horiz-adv-x="535" 
d="M456 541v-85h-272l-19 -182c27 9 56 14 84 14c126 0 248 -84 248 -228c0 -116 -81 -238 -258 -238c-81 0 -147 26 -199 69v115c52 -59 125 -90 196 -90c98 0 160 59 160 142s-63 145 -172 145c-56 0 -97 -16 -134 -34l-14 12l30 360h350z" />
    <glyph glyph-name="five.onum.tnum" 
d="M512 541v-85h-272l-19 -182c27 9 56 14 84 14c126 0 248 -84 248 -228c0 -116 -81 -238 -258 -238c-81 0 -147 26 -199 69v115c52 -59 125 -90 196 -90c98 0 160 59 160 142s-63 145 -172 145c-56 0 -97 -16 -134 -34l-14 12l30 360h350z" />
    <glyph glyph-name="five.tnum" 
d="M512 706v-85h-272l-19 -182c27 9 56 14 84 14c126 0 248 -84 248 -228c0 -116 -81 -238 -258 -238c-81 0 -147 26 -199 69v115c52 -59 125 -90 196 -90c98 0 160 59 160 142s-63 145 -172 145c-56 0 -97 -16 -134 -34l-14 12l30 360h350z" />
    <glyph glyph-name="florin.onum" horiz-adv-x="558" 
d="M210 50l23 269h-79v81h86l8 94c10 118 94 186 199 186c31 0 58 -6 79 -15v-85c-10 7 -40 14 -72 14c-50 0 -104 -23 -110 -103l-8 -91h114v-81h-121l-23 -272c-10 -118 -94 -186 -199 -186c-37 0 -61 6 -79 15v85c18 -7 44 -14 72 -14c50 0 104 23 110 103z" />
    <glyph glyph-name="florin.onum.tnum" 
d="M256 50l23 269h-79v81h86l8 94c10 118 94 186 199 186c31 0 58 -6 79 -15v-85c-10 7 -40 14 -72 14c-50 0 -104 -23 -110 -103l-8 -91h114v-81h-121l-23 -272c-10 -118 -94 -186 -199 -186c-37 0 -61 6 -79 15v85c18 -7 44 -14 72 -14c50 0 104 23 110 103z" />
    <glyph glyph-name="florin.tnum" 
d="M257 88l23 269h-79v81h86l8 94c10 118 94 186 199 186c31 0 58 -6 79 -15v-85c-10 7 -40 14 -72 14c-50 0 -104 -23 -110 -103l-8 -91h114v-81h-121l-23 -272c-10 -118 -94 -186 -199 -186c-37 0 -61 6 -79 15v85c18 -7 44 -14 72 -14c50 0 104 23 110 103z" />
    <glyph glyph-name="foundryicon" horiz-adv-x="1048" 
d="M110 285v147h-50v35h144v-35h-55v-147h-39zM538 285v147h-50v35h139v-35h-50v-147h-39zM779 238h-39v170h32l4 -11l3 3c4 4 16 11 30 11c31 0 50 -26 50 -63c0 -39 -23 -65 -59 -65c-8 0 -15 2 -21 5v-50zM292 238h-40v170h32l4 -11l4 3c3 4 14 11 28 11
c33 0 51 -26 51 -63c0 -39 -23 -65 -59 -65c-8 0 -15 2 -20 5v-50zM389 345c0 40 23 66 62 66c40 0 63 -26 63 -63c0 -39 -24 -65 -64 -65c-39 0 -61 25 -61 62zM984 339h-68c2 -17 11 -24 27 -24s26 4 34 7l8 -29c-7 -4 -23 -10 -46 -10c-39 0 -63 25 -63 62
c0 40 24 66 63 66c31 0 49 -20 49 -47c0 -11 -2 -19 -4 -25zM685 408h43l-39 -125c-13 -36 -30 -50 -61 -50c-13 0 -24 4 -30 6l5 29c2 0 11 -3 22 -3c10 0 16 4 18 15l-4 13l-44 115h44l25 -84h1zM181 408h40v-123h-40v123zM473 346c0 21 -6 37 -22 37
c-17 0 -22 -16 -22 -35c0 -22 6 -37 22 -37s22 15 22 35zM916 360h34c3 13 -3 23 -14 23c-13 0 -18 -8 -20 -23zM779 374v-57c4 -2 9 -4 16 -4c15 0 23 14 23 33c0 20 -7 34 -23 34c-5 0 -12 -3 -16 -6zM292 374v-57c2 -2 7 -4 15 -4c16 0 23 14 23 33c0 20 -7 34 -22 34
c-6 0 -13 -3 -16 -6z" />
    <glyph glyph-name="four.alt" horiz-adv-x="585" 
d="M459 486v-234h96v-86h-96v-166h-99v166h-334v62l263 478h105l-246 -454h212v234h99z" />
    <glyph glyph-name="four.onum" horiz-adv-x="582" 
d="M23 10v62l313 468h120v-444h96v-86h-96v-176h-99v176h-334zM145 96h212v318z" />
    <glyph glyph-name="four.onum.alt" horiz-adv-x="577" 
d="M457 320v-234h96v-86h-96v-166h-99v166h-334v62l263 478h105l-246 -454h212v234h99z" />
    <glyph glyph-name="four.onum.tnum" 
d="M57 10v62l313 468h120v-444h96v-86h-96v-176h-99v176h-334zM179 96h212v318z" />
    <glyph glyph-name="four.tnum" 
d="M591 267v-89h-98v-177h-100v177h-333v64l339 464h93v-439h99zM181 266h212v295z" />
    <glyph glyph-name="g.alt" horiz-adv-x="631" 
d="M454 75c-28 -49 -98 -87 -168 -87c-135 0 -240 111 -240 265s105 265 240 265c70 0 135 -37 164 -82v70h97v-481c-4 -155 -130 -237 -263 -237c-73 0 -144 23 -200 65v103c56 -51 124 -79 196 -79c97 0 174 63 174 163v35zM302 77c84 0 154 71 154 176
c0 106 -70 176 -154 176s-158 -71 -158 -176s74 -176 158 -176z" />
    <glyph glyph-name="gbreve.alt" horiz-adv-x="631" 
d="M348 716h74c0 -75 -53 -130 -127 -130s-127 55 -127 130h74c1 -36 21 -63 53 -63s52 27 53 63zM454 75c-28 -49 -98 -87 -168 -87c-135 0 -240 111 -240 265s105 265 240 265c70 0 135 -37 164 -82v70h97v-481c-4 -155 -130 -237 -263 -237c-73 0 -144 23 -200 65v103
c56 -51 124 -79 196 -79c97 0 174 63 174 163v35zM302 77c84 0 154 71 154 176c0 106 -70 176 -154 176s-158 -71 -158 -176s74 -176 158 -176z" />
    <glyph glyph-name="gcaron.alt" horiz-adv-x="631" 
d="M247 553l-120 182h92l71 -114l71 114h92l-120 -182h-86zM454 75c-28 -49 -98 -87 -168 -87c-135 0 -240 111 -240 265s105 265 240 265c70 0 135 -37 164 -82v70h97v-481c-4 -155 -130 -237 -263 -237c-73 0 -144 23 -200 65v103c56 -51 124 -79 196 -79
c97 0 174 63 174 163v35zM302 77c84 0 154 71 154 176c0 106 -70 176 -154 176s-158 -71 -158 -176s74 -176 158 -176z" />
    <glyph glyph-name="gcircumflex.alt" horiz-adv-x="631" 
d="M339 735l120 -182h-92l-71 114l-71 -114h-92l120 182h86zM454 75c-28 -49 -98 -87 -168 -87c-135 0 -240 111 -240 265s105 265 240 265c70 0 135 -37 164 -82v70h97v-481c-4 -155 -130 -237 -263 -237c-73 0 -144 23 -200 65v103c56 -51 124 -79 196 -79
c97 0 174 63 174 163v35zM302 77c84 0 154 71 154 176c0 106 -70 176 -154 176s-158 -71 -158 -176s74 -176 158 -176z" />
    <glyph glyph-name="gcommaaccent.alt" horiz-adv-x="631" 
d="M330 572h-89c-5 28 -7 48 -7 72c0 43 11 71 29 111h72c-10 -40 -17 -74 -17 -104c0 -23 1 -48 12 -79zM454 75c-28 -49 -98 -87 -168 -87c-135 0 -240 111 -240 265s105 265 240 265c70 0 135 -37 164 -82v70h97v-481c-4 -155 -130 -237 -263 -237c-73 0 -144 23 -200 65
v103c56 -51 124 -79 196 -79c97 0 174 63 174 163v35zM302 77c84 0 154 71 154 176c0 106 -70 176 -154 176s-158 -71 -158 -176s74 -176 158 -176z" />
    <glyph glyph-name="gdotaccent.alt" horiz-adv-x="631" 
d="M295 718c33 0 61 -27 61 -61s-28 -62 -61 -62s-61 28 -61 62s28 61 61 61zM454 75c-28 -49 -98 -87 -168 -87c-135 0 -240 111 -240 265s105 265 240 265c70 0 135 -37 164 -82v70h97v-481c-4 -155 -130 -237 -263 -237c-73 0 -144 23 -200 65v103
c56 -51 124 -79 196 -79c97 0 174 63 174 163v35zM302 77c84 0 154 71 154 176c0 106 -70 176 -154 176s-158 -71 -158 -176s74 -176 158 -176z" />
    <glyph glyph-name="greater.onum" horiz-adv-x="559" 
d="M509 223l-440 -195v93l339 148l-339 148v93l440 -195v-92z" />
    <glyph glyph-name="greater.onum.tnum" 
d="M557 223l-440 -195v93l339 148l-339 148v93l440 -195v-92z" />
    <glyph glyph-name="greater.tnum" 
d="M565 307l-440 -195v93l339 148l-339 148v93l440 -195v-92z" />
    <glyph glyph-name="greaterequal.onum" horiz-adv-x="580" 
d="M78 573l440 -195v-92l-440 -195v93l339 148l-339 148v93zM68 48h460v-85h-460v85z" />
    <glyph glyph-name="greaterequal.onum.tnum" 
d="M113 573l440 -195v-92l-440 -195v93l339 148l-339 148v93zM103 48h460v-85h-460v85z" />
    <glyph glyph-name="greaterequal.tnum" 
d="M110 657l440 -195v-92l-440 -195v93l339 148l-339 148v93zM100 132h460v-85h-460v85z" />
    <glyph glyph-name="i.TRK" horiz-adv-x="269" 
d="M135 718c33 0 61 -27 61 -61s-28 -62 -61 -62s-61 28 -61 62s28 61 61 61zM86 0v506h97v-506h-97z" />
    <glyph glyph-name="ijacute" horiz-adv-x="536" 
d="M365 568l95 167h116l-129 -167h-82zM98 568l95 167h116l-129 -167h-82zM450 506v-537c0 -123 -61 -181 -157 -181c-30 0 -46 5 -62 13v86c19 -10 38 -12 54 -12c42 0 68 31 68 92v539h97zM86 0v506h97v-506h-97z" />
    <glyph glyph-name="l.alt" horiz-adv-x="269" 
d="M86 0v706h97v-706h-97z" />
    <glyph glyph-name="lacute.alt" horiz-adv-x="269" 
d="M102 768l95 167h116l-129 -167h-82zM86 0v706h97v-706h-97z" />
    <glyph glyph-name="lcaron.alt" horiz-adv-x="269" 
d="M228 706h89c5 -28 7 -48 7 -72c0 -43 -11 -71 -29 -111h-72c10 40 17 74 17 104c0 23 -1 48 -12 79zM86 0v706h97v-706h-97z" />
    <glyph glyph-name="lcommaaccent.alt" horiz-adv-x="269" 
d="M86 0v706h97v-706h-97zM91 -66h89c5 -28 7 -48 7 -72c0 -43 -11 -71 -29 -111h-72c10 40 17 74 17 104c0 23 -1 48 -12 79z" />
    <glyph glyph-name="ldot.alt" horiz-adv-x="337" 
d="M86 0v706h97v-706h-97zM242 299c0 34 28 61 61 61s61 -27 61 -61s-28 -62 -61 -62s-61 28 -61 62z" />
    <glyph glyph-name="less.onum" horiz-adv-x="559" 
d="M50 315l440 195v-93l-339 -148l339 -148v-93l-440 195v92z" />
    <glyph glyph-name="less.onum.tnum" 
d="M93 315l440 195v-93l-339 -148l339 -148v-93l-440 195v92z" />
    <glyph glyph-name="less.tnum" 
d="M85 399l440 195v-93l-339 -148l339 -148v-93l-440 195v92z" />
    <glyph glyph-name="lessequal.onum" horiz-adv-x="580" 
d="M62 378l440 195v-93l-339 -148l339 -148v-93l-440 195v92zM52 48h460v-85h-460v85z" />
    <glyph glyph-name="lessequal.onum.tnum" 
d="M97 378l440 195v-93l-339 -148l339 -148v-93l-440 195v92zM87 48h460v-85h-460v85z" />
    <glyph glyph-name="lessequal.tnum" 
d="M100 462l440 195v-93l-339 -148l339 -148v-93l-440 195v92zM90 132h460v-85h-460v85z" />
    <glyph glyph-name="logicalnot.onum" horiz-adv-x="582" 
d="M73 227v85h432v-200h-88v115h-344z" />
    <glyph glyph-name="logicalnot.onum.tnum" 
d="M107 227v85h432v-200h-88v115h-344z" />
    <glyph glyph-name="logicalnot.tnum" 
d="M105 311v85h432v-200h-88v115h-344z" />
    <glyph glyph-name="lslash.alt" horiz-adv-x="350" 
d="M56 264l-43 75l118 68v299h97v-243l68 39l43 -75l-111 -64v-363h-97v307z" />
    <glyph glyph-name="minus.onum" horiz-adv-x="556" 
d="M73 312h410v-85h-410v85z" />
    <glyph glyph-name="minus.onum.tnum" 
d="M120 312h410v-85h-410v85z" />
    <glyph glyph-name="minus.tnum" 
d="M120 396h410v-85h-410v85z" />
    <glyph glyph-name="mu.onum" horiz-adv-x="627" 
d="M86 -200v706h97v-302c0 -84 54 -127 119 -127c105 0 142 97 142 172v257h97v-506h-95v76c-29 -53 -80 -88 -164 -88c-38 0 -73 9 -102 25v-213h-94z" />
    <glyph glyph-name="mu.onum.tnum" 
d="M98 -200v706h97v-302c0 -84 54 -127 119 -127c105 0 142 97 142 172v257h97v-506h-95v76c-29 -53 -80 -88 -164 -88c-38 0 -73 9 -102 25v-213h-94z" />
    <glyph glyph-name="mu.tnum" 
d="M98 -200v706h97v-302c0 -84 54 -127 119 -127c105 0 142 97 142 172v257h97v-506h-95v76c-29 -53 -80 -88 -164 -88c-38 0 -73 9 -102 25v-213h-94z" />
    <glyph glyph-name="multiply.onum" horiz-adv-x="547" 
d="M274 326l164 164l57 -57l-164 -164l164 -165l-57 -57l-164 164l-165 -164l-57 57l164 165l-164 164l57 57z" />
    <glyph glyph-name="multiply.onum.tnum" 
d="M326 326l164 164l57 -57l-164 -164l164 -165l-57 -57l-164 164l-165 -164l-57 57l164 165l-164 164l57 57z" />
    <glyph glyph-name="multiply.tnum" 
d="M326 410l164 164l57 -57l-164 -164l164 -165l-57 -57l-164 164l-165 -164l-57 57l164 165l-164 164l57 57z" />
    <glyph glyph-name="nine.onum" horiz-adv-x="555" 
d="M275 552c134 0 239 -92 239 -236c0 -91 -40 -162 -88 -234l-169 -248h-117l201 287c-26 -18 -60 -25 -93 -25c-122 0 -218 96 -218 223c0 143 113 233 245 233zM272 459c-78 0 -143 -54 -143 -137c0 -82 64 -137 142 -137c76 0 142 52 142 136c0 79 -62 138 -141 138z
" />
    <glyph glyph-name="nine.onum.tnum" 
d="M328 552c134 0 239 -92 239 -236c0 -91 -40 -162 -88 -234l-169 -248h-117l201 287c-26 -18 -60 -25 -93 -25c-122 0 -218 96 -218 223c0 143 113 233 245 233zM325 459c-78 0 -143 -54 -143 -137c0 -82 64 -137 142 -137c76 0 142 52 142 136c0 79 -62 138 -141 138z
" />
    <glyph glyph-name="nine.tnum" 
d="M328 718c134 0 239 -92 239 -236c0 -91 -40 -162 -88 -234l-169 -248h-117l201 287c-26 -18 -60 -25 -93 -25c-122 0 -218 96 -218 223c0 143 113 233 245 233zM325 625c-78 0 -143 -54 -143 -137c0 -82 64 -137 142 -137c76 0 142 52 142 136c0 79 -62 138 -141 138z
" />
    <glyph glyph-name="notequal.onum" horiz-adv-x="524" 
d="M92 34l56 101h-91v82h137l57 103h-194v82h240l76 137l60 -36l-56 -101h90v-82h-136l-57 -103h193v-82h-238l-76 -136z" />
    <glyph glyph-name="notequal.onum.tnum" 
d="M155 34l56 101h-91v82h137l57 103h-194v82h240l76 137l60 -36l-56 -101h90v-82h-136l-57 -103h193v-82h-238l-76 -136z" />
    <glyph glyph-name="notequal.tnum" 
d="M155 118l56 101h-91v82h137l57 103h-194v82h240l76 137l60 -36l-56 -101h90v-82h-136l-57 -103h193v-82h-238l-76 -136z" />
    <glyph glyph-name="numbersign.onum" horiz-adv-x="701" 
d="M47 220h147l17 101h-147l13 77h148l35 202h86l-35 -202h123l35 202h86l-35 -202h147l-13 -77h-148l-17 -101h147l-13 -77h-148l-35 -203h-86l35 203h-123l-35 -203h-86l35 203h-146zM280 220h123l17 101h-123z" />
    <glyph glyph-name="numbersign.onum.tnum" 
d="M22 220h147l17 101h-147l13 77h148l35 202h86l-35 -202h123l35 202h86l-35 -202h147l-13 -77h-148l-17 -101h147l-13 -77h-148l-35 -203h-86l35 203h-123l-35 -203h-86l35 203h-146zM255 220h123l17 101h-123z" />
    <glyph glyph-name="numbersign.tnum" 
d="M32 303h137l17 101h-137l13 77h138l35 202h86l-35 -202h123l35 202h86l-35 -202h137l-13 -77h-138l-17 -101h137l-13 -77h-138l-35 -203h-86l35 203h-123l-35 -203h-86l35 203h-136zM255 303h123l17 101h-123z" />
    <glyph glyph-name="one.alt" horiz-adv-x="502" 
d="M324 86h161v-86h-427v86h167v506l-167 -90v99l180 105h86v-620z" />
    <glyph glyph-name="one.onum" horiz-adv-x="510" 
d="M328 540v-454h161v-86h-427v86h167v338l-175 -92v101l186 107h88z" />
    <glyph glyph-name="one.onum.alt" horiz-adv-x="349" 
d="M24 540h240v-540h-99v453h-141v87z" />
    <glyph glyph-name="one.onum.tnum" 
d="M396 540v-454h161v-86h-427v86h167v338l-175 -92v101l186 107h88z" />
    <glyph glyph-name="one.tnum" 
d="M135 86h167v506l-167 -92v101l180 105h86v-620h161v-86h-427v86z" />
    <glyph glyph-name="onehalf.onum" horiz-adv-x="859" 
d="M131 -83l516 706h88l-516 -706h-88zM161 235v294l-85 -47v81l98 60h64v-388h-77zM701 135c25 27 31 41 31 65c0 29 -28 48 -67 48c-31 0 -73 -14 -103 -48v82c22 20 61 35 103 35c84 0 146 -49 146 -116c0 -36 -14 -64 -52 -103l-108 -111h167v-70h-273v53z" />
    <glyph glyph-name="onequarter.onum" horiz-adv-x="798" 
d="M131 -83l516 706h88l-516 -706h-88zM161 235v294l-85 -47v81l98 60h64v-388h-77zM440 -3v47l192 261h63v-240h58v-68h-58v-80h-75v80h-180zM621 174l-80 -110h80v110z" />
    <glyph glyph-name="onethird.onum" horiz-adv-x="853" 
d="M131 -83l516 706h88l-516 -706h-88zM161 235v294l-85 -47v81l98 60h64v-388h-77zM555 200v81c25 22 64 36 108 36c78 0 137 -46 137 -109c0 -39 -21 -73 -56 -88c38 -14 66 -53 66 -99c0 -69 -60 -116 -147 -116c-49 0 -88 13 -119 38v86c26 -31 69 -55 115 -55
c48 0 74 23 74 55s-30 53 -88 53h-41v65h29c61 0 90 21 90 51c0 27 -23 50 -66 50c-41 0 -75 -18 -102 -48z" />
    <glyph glyph-name="openheadarrowboth" horiz-adv-x="1162" 
d="M426 130l-371 223l371 223v-183h310v183l371 -223l-371 -223v183h-310v-183zM348 441l-152 -88l152 -88v176zM814 265l152 88l-152 88v-176z" />
    <glyph glyph-name="openheadarrowdown" horiz-adv-x="528" 
d="M487 323l-223 -371l-223 371h183v420h80v-420h183zM176 245l88 -152l88 152h-176z" />
    <glyph glyph-name="openheadarrowleftdown" horiz-adv-x="683" 
d="M480 160l-420 -105l105 420l129 -129l297 297l56 -57l-297 -297zM205 324l-45 -169l169 45z" />
    <glyph glyph-name="openheadarrowleftup" horiz-adv-x="684" 
d="M165 231l-105 420l420 -104l-129 -130l297 -297l-57 -56l-297 297zM329 506l-169 46l45 -170z" />
    <glyph glyph-name="openheadarrowrightdown" horiz-adv-x="684" 
d="M519 475l105 -420l-420 105l129 129l-297 297l57 56l297 -297zM355 200l169 -45l-45 169z" />
    <glyph glyph-name="openheadarrowrightup" horiz-adv-x="683" 
d="M203 546l420 105l-104 -420l-130 129l-297 -297l-56 57l297 297zM478 382l46 169l-170 -45z" />
    <glyph glyph-name="openheadarrowup" horiz-adv-x="528" 
d="M41 383l223 371l223 -371h-183v-420h-80v420h-183zM352 461l-88 152l-88 -152h176z" />
    <glyph glyph-name="openheadarrowupdn" horiz-adv-x="528" 
d="M487 198l-223 -371l-223 371h183v310h-183l223 371l223 -371h-183v-310h183zM352 586l-88 152l-88 -152h176zM176 120l88 -152l88 152h-176z" />
    <glyph glyph-name="ordfeminine.onum" horiz-adv-x="405" 
d="M251 245v39c-10 -21 -38 -46 -83 -46c-53 0 -94 34 -94 82c0 47 37 76 93 89l80 19v4c0 26 -28 40 -58 40c-32 0 -76 -16 -93 -32v75c22 13 65 26 105 26c73 0 125 -42 125 -113v-183h-75zM250 374l-62 -16c-24 -6 -37 -15 -37 -31c0 -17 13 -25 32 -25c35 0 67 29 67 66
v6zM59 118v74h282v-74h-282z" />
    <glyph glyph-name="ordfeminine.onum.tnum" 
d="M375 244v39c-10 -21 -38 -46 -83 -46c-53 0 -94 34 -94 82c0 47 37 76 93 89l80 19v4c0 26 -28 40 -58 40c-32 0 -76 -16 -93 -32v75c22 13 65 26 105 26c73 0 125 -42 125 -113v-183h-75zM374 373l-62 -16c-24 -6 -37 -15 -37 -31c0 -17 13 -25 32 -25c35 0 67 29 67 66
v6zM183 117v74h282v-74h-282z" />
    <glyph glyph-name="ordfeminine.tnum" 
d="M376 423v39c-10 -21 -38 -46 -83 -46c-53 0 -94 34 -94 82c0 47 37 76 93 89l80 19v4c0 26 -28 40 -58 40c-32 0 -76 -16 -93 -32v75c22 13 65 26 105 26c73 0 125 -42 125 -113v-183h-75zM375 552l-62 -16c-24 -6 -37 -15 -37 -31c0 -17 13 -25 32 -25c35 0 67 29 67 66
v6zM184 296v74h282v-74h-282z" />
    <glyph glyph-name="ordmasculine.onum" horiz-adv-x="426" 
d="M213 238c-83 0 -151 67 -151 151s68 151 151 151s151 -67 151 -151s-68 -151 -151 -151zM213 317c42 0 74 29 74 72c0 44 -32 74 -74 74c-41 0 -72 -30 -72 -74c0 -43 31 -72 72 -72zM72 123v74h282v-74h-282z" />
    <glyph glyph-name="ordmasculine.onum.tnum" 
d="M325 238c-83 0 -151 67 -151 151s68 151 151 151s151 -67 151 -151s-68 -151 -151 -151zM325 317c42 0 74 29 74 72c0 44 -32 74 -74 74c-41 0 -72 -30 -72 -74c0 -43 31 -72 72 -72zM184 123v74h282v-74h-282z" />
    <glyph glyph-name="ordmasculine.tnum" 
d="M325 416c-83 0 -151 67 -151 151s68 151 151 151s151 -67 151 -151s-68 -151 -151 -151zM325 495c42 0 74 29 74 72c0 44 -32 74 -74 74c-41 0 -72 -30 -72 -74c0 -43 31 -72 72 -72zM184 301v74h282v-74h-282z" />
    <glyph glyph-name="percent.onum" horiz-adv-x="795" 
d="M368 469c0 -94 -74 -164 -166 -164s-167 70 -167 164c0 93 75 165 167 165s166 -72 166 -165zM96 -83l516 706h88l-516 -706h-88zM287 469c0 49 -38 87 -85 87c-48 0 -86 -38 -86 -87s38 -86 86 -86c47 0 85 37 85 86zM759 69c0 -94 -74 -164 -166 -164s-167 70 -167 164
c0 93 75 165 167 165s166 -72 166 -165zM678 69c0 49 -38 87 -85 87c-48 0 -86 -38 -86 -87s38 -86 86 -86c47 0 85 37 85 86z" />
    <glyph glyph-name="perthousand.onum" horiz-adv-x="1179" 
d="M368 469c0 -94 -74 -164 -166 -164s-167 70 -167 164c0 93 75 165 167 165s166 -72 166 -165zM96 -83l516 706h88l-516 -706h-88zM287 469c0 49 -38 87 -85 87c-48 0 -86 -38 -86 -87s38 -86 86 -86c47 0 85 37 85 86zM759 69c0 -94 -74 -164 -166 -164s-167 70 -167 164
c0 93 75 165 167 165s166 -72 166 -165zM1149 69c0 -94 -74 -164 -166 -164s-167 70 -167 164c0 93 75 165 167 165s166 -72 166 -165zM678 69c0 49 -38 87 -85 87c-48 0 -86 -38 -86 -87s38 -86 86 -86c47 0 85 37 85 86zM1068 69c0 49 -38 87 -85 87
c-48 0 -86 -38 -86 -87s38 -86 86 -86c47 0 85 37 85 86z" />
    <glyph glyph-name="pi.onum" horiz-adv-x="667" 
d="M22 506h623v-86h-99v-420h-97v420h-232v-420h-97v420h-98v86z" />
    <glyph glyph-name="pi.onum.tnum" 
d="M14 506h623v-86h-99v-420h-97v420h-232v-420h-97v420h-98v86z" />
    <glyph glyph-name="pi.tnum" 
d="M14 506h623v-86h-99v-420h-97v420h-232v-420h-97v420h-98v86z" />
    <glyph glyph-name="plus.onum" horiz-adv-x="592" 
d="M340 312h201v-85h-201v-201h-88v201h-201v85h201v200h88v-200z" />
    <glyph glyph-name="plus.onum.tnum" 
d="M369 312h201v-85h-201v-201h-88v201h-201v85h201v200h88v-200z" />
    <glyph glyph-name="plus.tnum" 
d="M369 396h201v-85h-201v-201h-88v201h-201v85h201v200h88v-200z" />
    <glyph glyph-name="plusminus.onum" horiz-adv-x="594" 
d="M341 395h191v-85h-191v-181h-88v181h-191v85h191v180h88v-180zM62 48h470v-85h-470v85z" />
    <glyph glyph-name="plusminus.onum.tnum" 
d="M369 395h191v-85h-191v-181h-88v181h-191v85h191v180h88v-180zM90 48h470v-85h-470v85z" />
    <glyph glyph-name="plusminus.tnum" 
d="M369 479h191v-85h-191v-181h-88v181h-191v85h191v180h88v-180zM90 132h470v-85h-470v85z" />
    <glyph glyph-name="seven.alt" horiz-adv-x="497" 
d="M122 0c15 198 95 396 246 619h-345v87h457v-68c-154 -229 -239 -441 -253 -638h-105z" />
    <glyph glyph-name="seven.onum" horiz-adv-x="497" 
d="M59 -166l307 619h-342v87h457v-68l-313 -638h-109z" />
    <glyph glyph-name="seven.onum.alt" horiz-adv-x="488" 
d="M116 -166c15 198 95 396 246 619h-345v87h457v-68c-154 -229 -239 -441 -253 -638h-105z" />
    <glyph glyph-name="seven.onum.tnum" 
d="M135 -166l307 619h-342v87h457v-68l-313 -638h-109z" />
    <glyph glyph-name="seven.tnum" 
d="M132 0l307 619h-342v87h457v-68l-313 -638h-109z" />
    <glyph glyph-name="six.onum" horiz-adv-x="565" 
d="M288 -12c-134 0 -239 92 -239 236c0 91 40 162 88 234l168 248h118l-201 -287c26 18 60 25 93 25c122 0 218 -96 218 -223c0 -143 -113 -233 -245 -233zM291 81c78 0 143 54 143 137c0 82 -64 137 -142 137c-76 0 -142 -52 -142 -136c0 -79 62 -138 141 -138z" />
    <glyph glyph-name="six.onum.tnum" 
d="M322 -12c-134 0 -239 92 -239 236c0 91 40 162 88 234l168 248h118l-201 -287c26 18 60 25 93 25c122 0 218 -96 218 -223c0 -143 -113 -233 -245 -233zM325 81c78 0 143 54 143 137c0 82 -64 137 -142 137c-76 0 -142 -52 -142 -136c0 -79 62 -138 141 -138z" />
    <glyph glyph-name="six.tnum" 
d="M322 -12c-134 0 -239 92 -239 236c0 91 40 162 88 234l168 248h118l-201 -287c26 18 60 25 93 25c122 0 218 -96 218 -223c0 -143 -113 -233 -245 -233zM325 81c78 0 143 54 143 137c0 82 -64 137 -142 137c-76 0 -142 -52 -142 -136c0 -79 62 -138 141 -138z" />
    <glyph glyph-name="square" horiz-adv-x="955" 
d="M100 -290v1510h755v-1510h-755z" />
    <glyph glyph-name="sterling.onum" horiz-adv-x="531" 
d="M215 361v-59h163v-77h-163v-70c0 -27 -11 -54 -27 -69h298v-86h-431v86h13c30 0 48 26 48 70v69h-60v77h60v58c0 115 87 198 206 198c55 0 106 -21 139 -54v-110c-35 44 -87 73 -136 73c-66 0 -110 -42 -110 -106z" />
    <glyph glyph-name="sterling.onum.tnum" 
d="M280 361v-59h163v-77h-163v-70c0 -27 -11 -54 -27 -69h298v-86h-431v86h13c30 0 48 26 48 70v69h-60v77h60v58c0 115 87 198 206 198c55 0 106 -21 139 -54v-110c-35 44 -87 73 -136 73c-66 0 -110 -42 -110 -106z" />
    <glyph glyph-name="sterling.tnum" 
d="M245 508v-121h198v-82h-198v-145c0 -27 -11 -54 -27 -69h348v-91h-481v91h13c30 0 48 26 48 70v144h-60v82h60v123c0 122 94 208 222 208c68 0 132 -23 173 -60v-116c-43 53 -109 82 -170 82c-77 0 -126 -47 -126 -116z" />
    <glyph glyph-name="three.alt" horiz-adv-x="551" 
d="M253 81c81 0 139 53 139 131c0 80 -62 131 -168 131c-21 0 -50 -2 -69 -5v58l186 224h-276v86h409v-63l-188 -222c123 -9 208 -95 208 -213c0 -139 -118 -222 -243 -222c-69 0 -148 25 -195 79v123c57 -84 133 -107 197 -107z" />
    <glyph glyph-name="three.onum" horiz-adv-x="541" 
d="M66 375v114c42 38 108 63 182 63c138 0 225 -89 225 -190c0 -71 -32 -130 -98 -161c64 -21 116 -84 116 -178c0 -107 -84 -201 -242 -201c-83 0 -149 23 -202 68v121c44 -55 116 -96 194 -96c97 0 152 49 152 118c0 70 -55 117 -159 117h-81v87h60c109 0 159 47 159 114
c0 59 -46 108 -134 108c-69 0 -127 -30 -172 -84z" />
    <glyph glyph-name="three.onum.alt" horiz-adv-x="525" 
d="M243 -83c81 0 139 53 139 131c0 80 -62 131 -168 131c-21 0 -50 -2 -69 -5v58l186 224h-276v86h409v-63l-188 -222c123 -9 208 -95 208 -213c0 -139 -118 -222 -243 -222c-69 0 -148 25 -195 79v123c57 -84 133 -107 197 -107z" />
    <glyph glyph-name="three.onum.tnum" 
d="M122 375v114c42 38 108 63 182 63c138 0 225 -89 225 -190c0 -71 -32 -130 -98 -161c64 -21 116 -84 116 -178c0 -107 -84 -201 -242 -201c-83 0 -149 23 -202 68v121c44 -55 116 -96 194 -96c97 0 152 49 152 118c0 70 -55 117 -159 117h-81v87h60c109 0 159 47 159 114
c0 59 -46 108 -134 108c-69 0 -127 -30 -172 -84z" />
    <glyph glyph-name="three.tnum" 
d="M122 541v114c42 38 108 63 182 63c138 0 225 -89 225 -190c0 -71 -32 -130 -98 -161c64 -21 116 -84 116 -178c0 -107 -84 -201 -242 -201c-83 0 -149 23 -202 68v121c44 -55 116 -96 194 -96c97 0 152 49 152 118c0 70 -55 117 -159 117h-81v87h60c109 0 159 47 159 114
c0 59 -46 108 -134 108c-69 0 -127 -30 -172 -84z" />
    <glyph glyph-name="threequarters.onum" horiz-adv-x="802" 
d="M58 518v81c25 22 64 36 108 36c78 0 136 -46 136 -109c0 -39 -20 -73 -55 -88c38 -14 66 -53 66 -99c0 -69 -60 -116 -147 -116c-49 0 -88 13 -119 38v86c26 -31 69 -55 115 -55c48 0 74 23 74 55s-31 53 -89 53h-40v65h29c61 0 89 21 89 51c0 27 -22 50 -65 50
c-41 0 -75 -18 -102 -48zM135 -83l516 706h88l-516 -706h-88zM444 -3v47l192 261h63v-240h58v-68h-58v-80h-75v80h-180zM625 174l-80 -110h80v110z" />
    <glyph glyph-name="two.onum" horiz-adv-x="524" 
d="M286 249c50 38 75 79 75 120c0 54 -45 89 -117 89c-69 0 -136 -32 -184 -87v116c48 42 114 65 186 65c127 0 215 -72 215 -175c0 -66 -35 -128 -98 -178l-146 -114h258v-85h-423v68z" />
    <glyph glyph-name="two.onum.tnum" 
d="M358 249c50 38 75 79 75 120c0 54 -45 89 -117 89c-69 0 -136 -32 -184 -87v116c48 42 114 65 186 65c127 0 215 -72 215 -175c0 -66 -35 -128 -98 -178l-146 -114h258v-85h-423v68z" />
    <glyph glyph-name="two.tnum" 
d="M387 392c36 42 50 82 50 117c0 69 -60 115 -133 115c-55 0 -132 -25 -185 -86v116c40 37 111 64 186 64c132 0 234 -84 234 -208c0 -71 -33 -126 -85 -185l-210 -239h299v-86h-436v63z" />
    <glyph glyph-name="twothirds.onum" horiz-adv-x="863" 
d="M43 288l156 165c25 27 31 41 31 65c0 29 -27 48 -66 48c-31 0 -74 -14 -104 -48v82c22 20 62 35 104 35c84 0 145 -49 145 -116c0 -36 -14 -64 -52 -103l-107 -111h166v-70h-273v53zM227 -83h-88l516 706h88zM565 200v81c25 22 64 36 108 36c78 0 136 -46 136 -109
c0 -39 -20 -73 -55 -88c38 -14 66 -53 66 -99c0 -69 -60 -116 -147 -116c-49 0 -88 13 -119 38v86c26 -31 69 -55 115 -55c48 0 74 23 74 55s-31 53 -89 53h-40v65h29c61 0 89 21 89 51c0 27 -22 50 -65 50c-41 0 -75 -18 -102 -48z" />
    <glyph glyph-name="uni0000.1" horiz-adv-x="20" 
 />
    <glyph glyph-name="uni000D.1" horiz-adv-x="250" 
 />
    <glyph glyph-name="uni000D.1.1" horiz-adv-x="333" 
 />
    <glyph glyph-name="yen.onum" horiz-adv-x="571" 
d="M476 100h-141v-100h-99v100h-140v78h140v42h-140v78h107l-174 242h115l143 -206l139 206h115l-173 -242h108v-78h-141v-42h141v-78z" />
    <glyph glyph-name="yen.onum.tnum" 
d="M516 100h-141v-100h-99v100h-140v78h140v42h-140v78h107l-174 242h115l143 -206l139 206h115l-173 -242h108v-78h-141v-42h141v-78z" />
    <glyph glyph-name="yen.tnum" 
d="M551 158h-176v-158h-99v158h-175v80h175v68h-175v80h132l-208 320h115l185 -294l186 294h115l-208 -320h133v-80h-176v-68h176v-80z" />
    <glyph glyph-name="zero.onum" horiz-adv-x="662" 
d="M331 -12c-157 0 -282 121 -282 282s125 282 282 282s282 -121 282 -282s-125 -282 -282 -282zM148 270c0 -101 75 -190 183 -190s183 89 183 190s-75 190 -183 190s-183 -89 -183 -190z" />
    <glyph glyph-name="zero.onum.tnum" 
d="M325 -12c-146 0 -262 121 -262 282s116 282 262 282s262 -121 262 -282s-116 -282 -262 -282zM162 270c0 -101 67 -190 163 -190s163 89 163 190s-67 190 -163 190s-163 -89 -163 -190z" />
    <glyph glyph-name="zero.slash" horiz-adv-x="630" 
d="M315 -12c-187 0 -257 181 -257 365s70 365 257 365s257 -181 257 -365s-70 -365 -257 -365zM160 353c0 -68 9 -125 25 -168l227 394c-25 29 -58 45 -97 45c-99 0 -155 -97 -155 -271zM452 500l-221 -386c23 -21 51 -32 84 -32c99 0 155 97 155 271c0 58 -6 107 -18 147z
" />
    <glyph glyph-name="zero.slash.onum" horiz-adv-x="662" 
d="M49 270c0 161 125 282 282 282s282 -121 282 -282s-125 -282 -282 -282s-282 121 -282 282zM195 141l216 301c-24 11 -51 18 -80 18c-108 0 -183 -89 -183 -190c0 -49 17 -94 47 -129zM331 80c108 0 183 89 183 190c0 48 -17 94 -47 128l-216 -300c24 -11 51 -18 80 -18z
" />
    <glyph glyph-name="zero.slash.onum.tnum" 
d="M63 270c0 161 116 282 262 282s262 -121 262 -282s-116 -282 -262 -282s-262 121 -262 282zM197 151l206 287c-23 14 -49 22 -78 22c-96 0 -163 -89 -163 -190c0 -44 13 -86 35 -119zM325 80c96 0 163 89 163 190c0 44 -13 85 -35 118l-205 -286c22 -14 48 -22 77 -22z
" />
    <glyph glyph-name="zero.slash.tnum" 
d="M325 -12c-187 0 -257 181 -257 365s70 365 257 365s257 -181 257 -365s-70 -365 -257 -365zM170 353c0 -68 9 -125 25 -168l227 394c-25 29 -58 45 -97 45c-99 0 -155 -97 -155 -271zM462 500l-221 -386c23 -21 51 -32 84 -32c99 0 155 97 155 271c0 58 -6 107 -18 147z
" />
    <glyph glyph-name="zero.tnum" 
d="M325 -12c-187 0 -257 181 -257 365s70 365 257 365s257 -181 257 -365s-70 -365 -257 -365zM170 353c0 -174 56 -271 155 -271s155 97 155 271s-56 271 -155 271s-155 -97 -155 -271z" />
    <glyph glyph-name="f_j" horiz-adv-x="616" 
d="M208 549v-43h121v-81h-121v-425h-97v425h-70v81h70v46c0 102 72 166 173 166c26 0 50 -3 70 -14v-84c-17 8 -36 12 -55 12c-47 0 -91 -22 -91 -83zM482 718c33 0 61 -27 61 -61s-28 -62 -61 -62s-61 28 -61 62s28 61 61 61zM530 506v-537c0 -123 -61 -181 -157 -181
c-30 0 -46 5 -62 13v86c19 -10 38 -12 54 -12c42 0 68 31 68 92v539h97z" />
    </font>
</defs>
</svg>
